<svg width="159" height="50" viewBox="0 0 159 50" fill="none" xmlns="http://www.w3.org/2000/svg">
<g clip-path="url(#clip0_1:4194)">
<path d="M45.5802 35.4363C45.3308 34.8269 45.0969 34.1863 44.8475 33.6394L43.694 31.0301L43.6472 30.9832C40.2178 23.4832 36.5546 15.8582 32.6731 8.35819L32.5172 8.04569C32.1275 7.31132 31.7378 6.49881 31.3325 5.74881C30.8337 4.85819 30.3505 3.90506 29.5555 2.99881C28.7805 2.05058 27.8053 1.28661 26.7 0.762025C25.5948 0.237442 24.3872 -0.034668 23.1643 -0.034668C21.9414 -0.034668 20.7338 0.237442 19.6286 0.762025C18.5233 1.28661 17.548 2.05058 16.7731 2.99881C16.0405 3.90506 15.4949 4.85819 14.9961 5.74881C14.6064 6.56131 14.2166 7.35819 13.8114 8.09256L13.6555 8.40507C9.83636 15.9051 6.11077 23.5301 2.68136 31.0301L2.58783 31.1238C2.24489 31.9363 1.83959 32.7801 1.44989 33.6863C1.20047 34.2332 0.951063 34.8269 0.701651 35.4832C0.0282899 37.2016 -0.186735 39.0662 0.0777663 40.8933C0.342268 42.7204 1.07717 44.4469 2.21004 45.9026C3.34291 47.3583 4.83465 48.493 6.53824 49.1948C8.24183 49.8967 10.0985 50.1415 11.9252 49.9051C13.6765 49.674 15.3628 49.0893 16.8822 48.1863C18.9087 47.0457 20.8572 45.3894 23.0396 42.9988C25.2219 45.3894 27.2172 47.0457 29.1969 48.2019C31.1007 49.322 33.2567 49.9402 35.4634 49.9988C38.0189 50.0094 40.4919 49.093 42.4259 47.4187C44.3598 45.7444 45.6242 43.4252 45.9855 40.8894C46.403 39.0672 46.2617 37.1611 45.5802 35.4207V35.4363ZM23.1955 38.0301C20.5143 34.5926 18.7684 31.4363 18.1761 28.7332C17.9306 27.7315 17.8777 26.6922 18.0202 25.6707C18.1293 24.8738 18.4255 24.1707 18.8308 23.5769C19.7661 22.2176 21.4028 21.3738 23.1955 21.3738C24.0468 21.3477 24.8913 21.534 25.6531 21.9158C26.4149 22.2976 27.0702 22.863 27.5602 23.5613C27.9655 24.1863 28.2617 24.8738 28.3552 25.6707C28.5111 26.5769 28.4487 27.6238 28.1993 28.7332C27.6069 31.3894 25.8611 34.5769 23.1955 38.0301ZM43.0549 40.3426C42.8778 41.63 42.3672 42.8484 41.5741 43.8765C40.7809 44.9045 39.7328 45.7063 38.5343 46.2019C37.3496 46.7019 36.0402 46.8426 34.7619 46.7019C33.5149 46.5457 32.2678 46.1394 30.9896 45.3894C28.8673 44.0746 26.9589 42.441 25.3311 40.5457C28.6046 36.4832 30.5843 32.7801 31.3325 29.4832C31.6911 27.9207 31.7378 26.5144 31.5819 25.2176C31.3873 23.9883 30.93 22.8157 30.2414 21.7801C29.4551 20.657 28.4056 19.7448 27.1852 19.1236C25.9647 18.5024 24.6107 18.1913 23.2422 18.2176C20.3584 18.2176 17.7864 19.5613 16.2275 21.7644C15.5258 22.7975 15.0723 23.9794 14.9025 25.2176C14.6999 26.5301 14.7466 27.9832 15.1519 29.4832C15.9002 32.7801 17.9266 36.5301 21.1534 40.5769C19.5532 42.5084 17.6404 44.1564 15.4949 45.4519C14.2011 46.2019 12.9696 46.5926 11.7225 46.7488C9.78318 46.9978 7.82415 46.4695 6.27127 45.2787C4.71838 44.0879 3.69717 42.3308 3.42959 40.3894C3.27371 39.1394 3.38283 37.8894 3.88165 36.4832C4.03753 35.9832 4.27136 35.4832 4.52077 34.8894C4.86371 34.0769 5.269 33.2332 5.65871 32.3894L5.72106 32.2801C9.08812 24.8269 12.7669 17.2176 16.5861 9.76444L16.7419 9.45194C17.1316 8.70194 17.5214 7.90506 17.9266 7.15506C18.3319 6.35819 18.7684 5.59256 19.3296 4.96756C19.8153 4.38635 20.4223 3.91893 21.1077 3.59822C21.7931 3.2775 22.5404 3.1113 23.2968 3.1113C24.0532 3.1113 24.8004 3.2775 25.4859 3.59822C26.1713 3.91893 26.7783 4.38635 27.264 4.96756C27.8096 5.59256 28.2616 6.35819 28.6669 7.15506C29.0566 7.90506 29.4464 8.71757 29.8516 9.45194L30.0075 9.76444C33.8111 17.2176 37.4899 24.8269 40.9193 32.2801L40.9661 32.3269C41.3714 33.1394 41.7143 34.0457 42.104 34.8269C42.3534 35.4363 42.6028 35.9207 42.7587 36.4363C43.0549 37.8426 43.2108 39.0926 43.0549 40.3426ZM64.7537 37.6863C63.5791 37.7035 62.4156 37.4555 61.3497 36.9605C60.2838 36.4655 59.3427 35.7363 58.5963 34.8269C56.9191 32.8894 56.029 30.3911 56.1022 27.8269C56.0766 25.207 56.9954 22.6658 58.6899 20.6707C59.4737 19.7498 60.4493 19.0123 61.5481 18.5102C62.647 18.0081 63.8423 17.7535 65.0499 17.7644C66.1861 17.7333 67.3117 17.9923 68.3206 18.517C69.3296 19.0418 70.1888 19.8152 70.8175 20.7644L70.9734 18.3113H75.5252V37.1863H70.9578L70.8019 34.4363C70.1537 35.4498 69.2578 36.2805 68.1992 36.8493C67.1407 37.4181 65.9546 37.7062 64.7537 37.6863ZM65.9384 33.1863C66.8425 33.1863 67.6375 32.9363 68.3858 32.4832C69.0716 31.9832 69.6328 31.3269 70.0693 30.5301C70.459 29.7332 70.6616 28.7801 70.6616 27.7176C70.7224 26.7947 70.5432 25.8719 70.1415 25.0393C69.7399 24.2067 69.1295 23.4929 68.3702 22.9676C67.6405 22.5119 66.7981 22.2703 65.9384 22.2703C65.0787 22.2703 64.2363 22.5119 63.5066 22.9676C62.8208 23.4676 62.2596 24.1238 61.8231 24.9207C61.4109 25.7995 61.2081 26.7623 61.2308 27.7332C61.17 28.656 61.3492 29.5788 61.7509 30.4114C62.1525 31.244 62.7629 31.9579 63.5222 32.4832C64.2549 32.9363 65.0499 33.1863 65.9384 33.1863ZM83.3193 13.2176C83.3193 13.7644 83.2258 14.2644 82.9763 14.6707C82.7269 15.0613 82.384 15.4207 81.9319 15.6707C81.4799 15.9207 80.9966 16.0144 80.4978 16.0144C79.999 16.0144 79.5002 15.9207 79.0481 15.6707C78.6206 15.4321 78.261 15.0879 78.0037 14.6707C77.7623 14.2256 77.6439 13.7239 77.6608 13.2176C77.6608 12.6551 77.7699 12.1551 78.0037 11.7644C78.2531 11.2957 78.6116 11.0144 79.0481 10.7644C79.5002 10.5144 79.9834 10.4051 80.4978 10.4051C80.994 10.3936 81.4847 10.5114 81.9218 10.7469C82.359 10.9825 82.7277 11.3277 82.9919 11.7488C83.2188 12.2044 83.3312 12.7086 83.3193 13.2176ZM78.0193 37.1238V18.2801H82.9763V37.1551H78.0037L78.0193 37.1238ZM96.2263 23.2176V23.2801C95.9925 23.1707 95.6808 23.1238 95.4469 23.0769C95.1352 23.0144 94.8858 23.0144 94.5896 23.0144C93.2022 23.0144 92.1578 23.4207 91.4719 24.2644C90.7237 25.1238 90.3808 26.3269 90.3808 27.8738V37.1394H85.4081V18.2644H89.9755L90.1313 21.1238C90.6302 20.1238 91.2225 19.3738 92.0643 18.8113C92.9016 18.2648 93.8873 17.9918 94.8858 18.0301C95.2443 18.0301 95.5872 18.0613 95.8834 18.1238C96.0393 18.1707 96.1328 18.1707 96.2263 18.2176V23.2176ZM98.2216 37.1238V10.5301H103.179V20.6863C103.88 19.7801 104.675 19.0769 105.673 18.5301C107.252 17.7539 109.046 17.5337 110.766 17.9051C112.486 18.2764 114.03 19.2177 115.15 20.5769C116.831 22.5185 117.722 25.023 117.645 27.5926C117.67 30.2125 116.751 32.7537 115.057 34.7488C114.273 35.6697 113.297 36.4072 112.199 36.9093C111.1 37.4114 109.905 37.666 108.697 37.6551C107.561 37.6862 106.435 37.4273 105.426 36.9025C104.417 36.3777 103.558 35.6043 102.929 34.6551L102.773 37.1082L98.2216 37.1551V37.1238ZM107.808 33.1863C108.697 33.1863 109.492 32.9363 110.24 32.4832C110.926 31.9832 111.487 31.3269 111.924 30.5301C112.329 29.7332 112.516 28.7801 112.516 27.7176C112.516 26.6707 112.329 25.7176 111.924 24.9207C111.514 24.1523 110.939 23.4851 110.24 22.9676C109.511 22.5119 108.668 22.2703 107.808 22.2703C106.949 22.2703 106.106 22.5119 105.377 22.9676C104.675 23.4676 104.13 24.1238 103.678 24.9207C103.265 25.7995 103.063 26.7623 103.085 27.7332C103.024 28.656 103.204 29.5788 103.605 30.4114C104.007 31.244 104.617 31.9579 105.377 32.4832C106.109 32.9363 106.904 33.1863 107.808 33.1863ZM119.515 37.1394V18.2644H124.083L124.238 20.7176C124.812 19.7772 125.627 19.0077 126.597 18.4885C127.567 17.9693 128.658 17.7193 129.757 17.7644C131.013 17.7427 132.248 18.0927 133.307 18.7709C134.367 19.449 135.203 20.425 135.711 21.5769C136.257 22.7644 136.553 24.2332 136.553 25.8738V37.1863H131.58V26.5301C131.58 25.2176 131.284 24.1863 130.692 23.4207C130.1 22.6707 129.289 22.2644 128.26 22.2644C127.512 22.2644 126.857 22.4207 126.28 22.7644C125.735 23.1238 125.283 23.5769 124.94 24.2176C124.593 24.8651 124.421 25.5923 124.441 26.3269V37.1394H119.515ZM139.032 37.1394V10.5144H144.004V20.6707C144.678 19.7594 145.554 19.018 146.563 18.5054C147.573 17.9928 148.687 17.723 149.819 17.7176C150.993 17.7003 152.157 17.9484 153.223 18.4434C154.289 18.9384 155.23 19.6676 155.976 20.5769C157.645 22.5184 158.529 25.0153 158.455 27.5769C158.482 30.1972 157.563 32.7388 155.867 34.7332C155.083 35.6541 154.107 36.3916 153.009 36.8937C151.91 37.3958 150.715 37.6504 149.507 37.6394C148.371 37.6706 147.245 37.4116 146.236 36.8868C145.227 36.362 144.368 35.5887 143.739 34.6394L143.599 37.0926L139.032 37.1394ZM148.665 33.1863C149.569 33.1863 150.364 32.9363 151.097 32.4832C151.798 31.9832 152.344 31.3269 152.796 30.5301C153.186 29.7332 153.388 28.7801 153.388 27.7176C153.449 26.7947 153.27 25.8719 152.868 25.0393C152.467 24.2067 151.856 23.4929 151.097 22.9676C150.367 22.5119 149.525 22.2703 148.665 22.2703C147.805 22.2703 146.963 22.5119 146.233 22.9676C145.548 23.4676 144.986 24.1238 144.55 24.9207C144.115 25.7917 143.911 26.7603 143.958 27.7332C143.897 28.656 144.076 29.5788 144.478 30.4114C144.879 31.244 145.49 31.9579 146.249 32.4832C146.982 32.9363 147.73 33.1863 148.665 33.1863Z" fill="#FF385C"/>
</g>
<defs>
<clipPath id="clip0_1:4194">
<rect width="159" height="50" fill="white"/>
</clipPath>
</defs>
</svg>
