<svg width="213" height="44" viewBox="0 0 213 44" fill="none" xmlns="http://www.w3.org/2000/svg">
<path d="M75.1848 25.3428L73.9153 28.8218H73.8095C73.5979 28.0374 73.21 26.8436 72.5752 25.411L65.7691 8.86836H59.104V35.2343H63.5121V18.9645C63.5121 17.9412 63.5121 16.7815 63.4768 15.349C63.4416 14.6327 63.3711 14.087 63.3358 13.6777H63.4416C63.6532 14.7009 63.9 15.4513 64.0764 15.9288L72.2578 35.166H75.3611L83.472 15.7583C83.6484 15.3149 83.8247 14.428 84.001 13.6777H84.1068C84.001 15.6218 83.9305 17.3614 83.8952 18.4187V35.1319H88.5855V8.80014H82.1672L75.1848 25.3428ZM93.0288 16.2358H97.6133V35.1319H93.0288V16.2358ZM95.3563 8.25441C94.5805 8.25441 93.9457 8.52727 93.4168 9.00479C92.8878 9.48231 92.6057 10.0963 92.6057 10.8467C92.6057 11.5629 92.8878 12.1769 93.4168 12.6544C93.9457 13.1319 94.5805 13.3707 95.3563 13.3707C96.1321 13.3707 96.8022 13.0978 97.2959 12.6544C97.8249 12.1769 98.107 11.5629 98.107 10.8467C98.107 10.1304 97.8249 9.51642 97.2959 9.00479C96.8374 8.52727 96.1674 8.25441 95.3563 8.25441ZM113.87 16.0653C113.024 15.8947 112.142 15.7924 111.296 15.7924C109.215 15.7924 107.311 16.2358 105.724 17.1226C104.137 18.0094 102.868 19.2374 102.057 20.7722C101.21 22.3412 100.787 24.149 100.787 26.2296C100.787 28.0374 101.21 29.6405 102.021 31.1071C102.832 32.5397 103.961 33.6994 105.477 34.4839C106.923 35.2684 108.616 35.6777 110.52 35.6777C112.707 35.6777 114.576 35.2343 116.057 34.4156L116.092 34.3815V30.2885L115.916 30.4249C115.246 30.9025 114.47 31.3118 113.694 31.5505C112.883 31.8234 112.142 31.9598 111.508 31.9598C109.674 31.9598 108.228 31.4482 107.205 30.3226C106.147 29.2312 105.618 27.7304 105.618 25.8544C105.618 23.9102 106.147 22.3753 107.241 21.2498C108.334 20.1242 109.78 19.5443 111.543 19.5443C113.024 19.5443 114.54 20.0218 115.916 20.9769L116.092 21.1133V16.7815L116.057 16.7474C115.457 16.5087 114.787 16.2358 113.87 16.0653ZM128.999 15.9288C127.871 15.9288 126.813 16.2699 125.896 16.9862C125.12 17.6001 124.591 18.487 124.132 19.5443H124.097V16.2358H119.513V35.1319H124.097V25.4792C124.097 23.842 124.45 22.4777 125.226 21.4885C126.002 20.4653 126.989 19.9536 128.188 19.9536C128.611 19.9536 129.034 20.056 129.563 20.1242C130.057 20.2606 130.41 20.397 130.656 20.5676L130.833 20.704V16.2699L130.727 16.2358C130.41 16.0311 129.775 15.9288 128.999 15.9288ZM141.483 15.8265C138.274 15.8265 135.699 16.7474 133.901 18.5552C132.067 20.3629 131.185 22.8529 131.185 25.9908C131.185 28.9242 132.102 31.3118 133.866 33.0513C135.629 34.7567 138.027 35.6436 141.024 35.6436C144.163 35.6436 146.667 34.7226 148.465 32.8808C150.299 31.0389 151.181 28.5831 151.181 25.5474C151.181 22.5459 150.334 20.1583 148.606 18.4187C146.949 16.6792 144.516 15.8265 141.483 15.8265ZM145.15 30.3567C144.304 31.4141 142.964 31.9257 141.306 31.9257C139.649 31.9257 138.309 31.4141 137.357 30.2885C136.405 29.2312 135.946 27.6963 135.946 25.7521C135.946 23.7397 136.44 22.2048 137.357 21.1133C138.309 20.0218 139.614 19.4761 141.271 19.4761C142.893 19.4761 144.163 19.9877 145.08 21.0451C145.997 22.1025 146.49 23.6374 146.49 25.6498C146.42 27.6963 146.032 29.2994 145.15 30.3567ZM161.407 24.0808C159.962 23.5009 159.045 23.0575 158.622 22.6823C158.269 22.3412 158.093 21.8637 158.093 21.2498C158.093 20.7381 158.304 20.2265 158.833 19.8854C159.362 19.5443 159.962 19.3738 160.843 19.3738C161.619 19.3738 162.43 19.5102 163.206 19.7149C163.982 19.9195 164.687 20.2265 165.251 20.6358L165.428 20.7722V16.611L165.322 16.5769C164.793 16.3722 164.088 16.1676 163.241 15.997C162.395 15.8606 161.619 15.7924 160.984 15.7924C158.798 15.7924 156.999 16.304 155.589 17.4296C154.178 18.487 153.508 19.9195 153.508 21.5908C153.508 22.4777 153.649 23.2622 153.967 23.9102C154.284 24.5583 154.742 25.1722 155.377 25.6839C156.012 26.1614 156.929 26.7071 158.198 27.2187C159.256 27.6622 160.067 28.0032 160.561 28.2761C161.055 28.549 161.372 28.856 161.619 29.0947C161.795 29.3676 161.901 29.7087 161.901 30.1521C161.901 31.4141 160.914 32.028 158.904 32.028C158.128 32.028 157.317 31.8916 156.365 31.5846C155.412 31.2777 154.531 30.8343 153.79 30.3226L153.614 30.1862V34.518L153.72 34.5521C154.39 34.8591 155.201 35.0637 156.188 35.3025C157.176 35.473 158.057 35.6094 158.833 35.6094C161.196 35.6094 163.135 35.0978 164.511 33.9722C165.921 32.8808 166.662 31.4823 166.662 29.6746C166.662 28.4125 166.309 27.287 165.533 26.4343C164.511 25.6156 163.241 24.7629 161.407 24.0808ZM178.758 15.8265C175.549 15.8265 172.974 16.7474 171.176 18.5552C169.377 20.3629 168.46 22.8529 168.46 25.9908C168.46 28.9242 169.377 31.3118 171.141 33.0513C172.904 34.7567 175.302 35.6436 178.299 35.6436C181.438 35.6436 183.942 34.7226 185.74 32.8808C187.574 31.0389 188.456 28.5831 188.456 25.5474C188.456 22.5459 187.609 20.1583 185.881 18.4187C184.224 16.6792 181.791 15.8265 178.758 15.8265ZM182.39 30.3567C181.544 31.4141 180.204 31.9257 178.546 31.9257C176.854 31.9257 175.549 31.4141 174.597 30.2885C173.644 29.2312 173.186 27.6963 173.186 25.7521C173.186 23.7397 173.68 22.2048 174.597 21.1133C175.549 20.0218 176.854 19.4761 178.511 19.4761C180.098 19.4761 181.403 19.9877 182.32 21.0451C183.236 22.1025 183.73 23.6374 183.73 25.6498C183.73 27.6963 183.272 29.2994 182.39 30.3567ZM212.965 19.8854V16.2358H208.345V10.642L208.204 10.6761L203.831 11.9381L203.725 11.9722V16.2358H196.813V13.8482C196.813 12.7567 197.096 11.904 197.589 11.3583C198.083 10.8125 198.824 10.5397 199.74 10.5397C200.375 10.5397 201.045 10.6761 201.786 10.9831L201.962 11.0854V7.23115L201.856 7.19704C201.222 6.99239 200.375 6.85596 199.282 6.85596C197.907 6.85596 196.708 7.16293 195.614 7.67456C194.521 8.25441 193.71 9.0389 193.111 10.0963C192.511 11.1195 192.194 12.2792 192.194 13.6094V16.2358H188.985V19.8513H192.194V35.1319H196.813V19.8854H203.725V29.6063C203.725 33.597 205.665 35.6094 209.544 35.6094C210.179 35.6094 210.849 35.5071 211.484 35.4048C212.154 35.2684 212.647 35.0978 212.93 34.9614L212.965 34.9273V31.2777L212.788 31.4141C212.506 31.5846 212.259 31.7211 211.836 31.8234C211.484 31.9257 211.166 31.9598 210.919 31.9598C210.003 31.9598 209.368 31.7552 208.909 31.2436C208.486 30.766 208.275 29.9815 208.275 28.8218V19.8854H212.965Z" fill="#737373"/>
<path d="M0 0H21.6174V20.9085H0V0Z" fill="#F25022"/>
<path d="M23.8741 0H45.4915V20.9085H23.8741V0Z" fill="#7FBA00"/>
<path d="M0 23.0913H21.6174V43.9998H0V23.0913Z" fill="#00A4EF"/>
<path d="M23.8741 23.0913H45.4915V43.9998H23.8741V23.0913Z" fill="#FFB900"/>
</svg>
