<svg width="316" height="296" viewBox="0 0 316 296" fill="none" xmlns="http://www.w3.org/2000/svg">
<path d="M59.0073 263.392C117.774 306.321 213.092 306.321 271.859 263.392C330.626 220.463 330.626 150.87 271.859 107.949C213.092 65.0288 117.774 65.0199 59.0073 107.949C0.240096 150.879 0.218597 220.472 59.0073 263.392Z" fill="#FAFAFA"/>
<path d="M288.815 104.803C289.138 99.8212 292.241 91.3293 296.835 85.3017C301.429 79.274 308.782 76.3311 313.318 78.7687C317.547 81.0468 316.615 88.0496 311.039 92.1891C305.464 96.3287 297.165 101.417 294.319 109.262L288.815 118.675V104.803Z" fill="#02897A"/>
<path opacity="0.2" d="M288.815 104.803C289.138 99.8212 292.241 91.3293 296.835 85.3017C301.429 79.274 308.782 76.3311 313.318 78.7687C317.547 81.0468 316.615 88.0496 311.039 92.1891C305.464 96.3287 297.165 101.417 294.319 109.262L288.815 118.675V104.803Z" fill="black"/>
<path d="M311.563 81.0736C306.296 82.3146 290.858 94.6093 288.837 113.171" stroke="white" stroke-miterlimit="10" stroke-linecap="round"/>
<path d="M289.44 127.168C290.249 124.508 293.775 119.571 298.849 117.151C303.924 114.731 307.751 112.568 309.6 108.668C311.449 104.768 308.231 100.938 303.107 101.213C297.982 101.488 289.447 108.127 288.845 118.676L289.44 127.168Z" fill="#02897A"/>
<path d="M305.715 104.368C301.286 104.909 290.521 112.984 289.074 122.026" stroke="white" stroke-miterlimit="10" stroke-linecap="round"/>
<path d="M24.7221 152.484C24.5031 145.441 23.2373 138.509 20.9882 132.034C17.2113 120.962 9.57161 115.103 5.50091 114.305C1.4302 113.508 -2.77667 119.624 2.40488 126.893C7.58643 134.161 17.5195 143.894 20.3719 158.618L25.0374 168.67L24.7221 152.484Z" fill="#02897A"/>
<path opacity="0.2" d="M24.7221 152.484C24.5031 145.441 23.2373 138.509 20.9882 132.034C17.2113 120.962 9.57161 115.103 5.50091 114.305C1.4302 113.508 -2.77667 119.624 2.40488 126.893C7.58643 134.161 17.5195 143.894 20.3719 158.618L25.0374 168.67L24.7221 152.484Z" fill="black"/>
<path d="M5.50146 117.682C13.8579 123.834 23.5401 139.976 24.8946 161.427" stroke="white" stroke-linecap="round" stroke-linejoin="round"/>
<path d="M24.0844 178.978C22.9305 173.261 19.9133 167.685 13.8861 162.083C7.85889 156.481 -0.196518 151.668 0.462821 145.95C1.12216 140.233 7.22822 140.632 11.7003 143.158C16.1723 145.684 23.9267 156.082 25.0375 168.652L24.0844 178.978Z" fill="#02897A"/>
<path d="M4.69141 144.16C10.4965 145.933 22.9522 160.027 24.7583 172.029" stroke="white" stroke-linecap="round" stroke-linejoin="round"/>
<path d="M25.7328 182.506C25.2513 182.118 24.8509 181.595 24.5644 180.978C24.2779 180.362 24.1134 179.671 24.0845 178.961V51.0058C24.1146 50.2961 24.2795 49.6052 24.5659 48.9892C24.8523 48.3731 25.2521 47.8493 25.7328 47.4601L62.6916 21.0713C63.1695 20.7024 63.7196 20.5013 64.2828 20.4896C64.8461 20.4779 65.4013 20.6561 65.8889 21.005C66.3765 21.3539 66.7781 21.8604 67.0507 22.4702C67.3232 23.08 67.4564 23.77 67.436 24.4663V33.0114C67.436 34.3145 68.1527 34.8463 69.0915 34.1904L115.338 1.17119C115.816 0.80272 116.365 0.601717 116.928 0.589685C117.49 0.577654 118.045 0.755047 118.532 1.10288C119.02 1.45072 119.421 1.95591 119.695 2.5644C119.968 3.17288 120.102 3.86176 120.083 4.55732V201.236L85.9978 225.56L25.7328 182.506Z" fill="#263238"/>
<path d="M118.535 1.10931C118.035 0.808147 117.485 0.657564 116.93 0.66989C116.374 0.682215 115.829 0.857101 115.338 1.18022L69.0914 34.1994C68.174 34.8553 67.4358 34.3235 67.4358 33.0205V24.4754C67.4562 23.7791 67.323 23.089 67.0505 22.4792C66.7779 21.8695 66.3763 21.363 65.8887 21.014C65.4011 20.6651 64.8459 20.4869 64.2826 20.4986C63.7194 20.5103 63.1693 20.7114 62.6915 21.0804L25.7326 47.4691C25.2469 47.8495 24.8454 48.3734 24.5645 48.9938L45.7636 64.1338L120.083 11.0461V4.56635C120.062 3.88022 119.912 3.20966 119.643 2.60904C119.374 2.00841 118.994 1.49462 118.535 1.10931V1.10931Z" fill="#455A64"/>
<path d="M118.435 3.38713L69.0922 38.6224C68.1748 39.2783 67.4367 38.7465 67.4367 37.4434V24.4751C67.4367 23.172 66.72 22.6402 65.7883 23.2961L28.8295 49.6849C28.3484 50.0735 27.9483 50.5973 27.6618 51.2134C27.3754 51.8296 27.2107 52.5207 27.1812 53.2306V176.806C27.2103 177.517 27.3757 178.21 27.6635 178.826C27.9513 179.442 28.3534 179.966 28.8367 180.352L89.116 223.397L120.083 201.289V4.56607C120.083 3.26303 119.345 2.74005 118.435 3.38713Z" fill="#37474F"/>
<path d="M27.668 178.775C27.9446 179.399 28.347 179.924 28.8361 180.299L89.1155 223.344L120.083 201.237V112.781L27.668 178.775Z" fill="#263238"/>
<path d="M35.1499 206.945L34.6984 206.626C34.3134 206.316 33.9928 205.899 33.7625 205.408C33.5321 204.916 33.3985 204.365 33.3726 203.798V83.7322C33.3968 83.1648 33.5297 82.6125 33.7602 82.1209C33.9907 81.6293 34.3122 81.2125 34.6984 80.9046L134.244 9.81361C134.654 9.55594 135.107 9.42163 135.567 9.42163C136.026 9.42163 136.479 9.55594 136.889 9.81361L137.34 10.1416C137.726 10.4495 138.048 10.8664 138.279 11.358C138.509 11.8495 138.642 12.4018 138.666 12.9693V133.008C138.64 133.575 138.507 134.127 138.276 134.618C138.046 135.109 137.725 135.527 137.34 135.836L37.7944 206.945C37.3848 207.202 36.9317 207.337 36.4722 207.337C36.0126 207.337 35.5595 207.202 35.1499 206.945V206.945Z" fill="#F5F5F5"/>
<path d="M39.5646 86.241L33.7596 82.0925C33.5229 82.5814 33.3897 83.1363 33.3726 83.7058V203.772C33.3985 204.339 33.5321 204.89 33.7625 205.381C33.9928 205.872 34.3134 206.29 34.6984 206.599L35.1499 206.918C35.5595 207.176 36.0126 207.31 36.4722 207.31C36.9317 207.31 37.3848 207.176 37.7944 206.918L39.5646 205.651V86.241Z" fill="#E0E0E0"/>
<path d="M36.4766 205.979V85.9131C36.5012 85.3467 36.6334 84.7955 36.8625 84.3042C37.0917 83.8129 37.4112 83.3954 37.7952 83.0854L137.341 11.9945C138.058 11.4803 138.667 11.897 138.667 12.9429V133.009C138.641 133.576 138.507 134.127 138.277 134.618C138.047 135.11 137.726 135.527 137.341 135.836L37.7952 206.945C37.0642 207.441 36.4766 207.025 36.4766 205.979Z" fill="#EBEBEB"/>
<path d="M44.3163 87.2783L130.819 25.5125C131.729 24.8565 132.467 25.3884 132.467 26.6914V119.269C132.438 119.979 132.274 120.671 131.987 121.287C131.701 121.903 131.3 122.427 130.819 122.815L44.3163 184.572C43.4061 185.228 42.668 184.696 42.668 183.393V90.824C42.6981 90.1143 42.863 89.4234 43.1494 88.8074C43.4358 88.1913 43.8356 87.6675 44.3163 87.2783Z" fill="white"/>
<path d="M58.6138 82.6601C64.0032 78.813 68.3677 81.9332 68.3677 89.6273C68.3677 97.3215 64.0032 106.673 58.6138 110.52C53.2244 114.367 48.8599 111.256 48.8599 103.562C48.8599 95.8677 53.2244 86.5071 58.6138 82.6601Z" fill="#FFB900"/>
<path d="M67.6512 110.564C67.982 109.802 68.4541 109.147 69.0287 108.653C69.6034 108.159 70.2644 107.84 70.9577 107.722C71.651 107.605 72.357 107.692 73.0179 107.976C73.6788 108.261 74.276 108.734 74.7606 109.359L85.998 123.834L107.355 59.0277C107.668 58.0775 108.191 57.255 108.863 56.6538C109.536 56.0526 110.331 55.6967 111.159 55.6265C111.987 55.5563 112.814 55.7747 113.546 56.2569C114.279 56.739 114.887 57.4656 115.303 58.3541L132.453 95.0873V119.269C132.424 119.979 132.259 120.67 131.973 121.287C131.686 121.903 131.286 122.426 130.804 122.815L44.3163 184.572C43.4061 185.227 42.668 184.696 42.668 183.393V168.058L67.6512 110.564Z" fill="#FFB900"/>
<path d="M53.7476 220.242L53.2889 219.914C52.9049 219.604 52.5853 219.186 52.3562 218.695C52.1271 218.203 51.9948 217.652 51.9702 217.086V96.9759C51.9948 96.4095 52.1271 95.8583 52.3562 95.367C52.5853 94.8757 52.9049 94.4581 53.2889 94.1482L152.842 23.0661C153.249 22.805 153.702 22.6687 154.161 22.6687C154.62 22.6687 155.072 22.805 155.479 23.0661L155.938 23.3852C156.322 23.6952 156.642 24.1127 156.871 24.604C157.1 25.0953 157.232 25.6465 157.257 26.2129V146.279C157.236 146.846 157.106 147.399 156.876 147.891C156.647 148.383 156.325 148.8 155.938 149.106L56.3706 220.242C55.9649 220.5 55.5153 220.634 55.0591 220.634C54.6029 220.634 54.1532 220.5 53.7476 220.242V220.242Z" fill="#F5F5F5"/>
<path d="M58.1476 99.5198L52.3426 95.3713C52.1067 95.8575 51.9736 96.4093 51.9556 96.9758V217.041C51.9802 217.608 52.1124 218.159 52.3415 218.65C52.5707 219.142 52.8902 219.559 53.2742 219.869L53.7329 220.197C54.1404 220.458 54.5927 220.595 55.0516 220.595C55.5105 220.595 55.9628 220.458 56.3703 220.197L58.1476 218.93V99.5198Z" fill="#E0E0E0"/>
<path d="M55.0518 219.258V99.1919C55.0769 98.6257 55.2094 98.0747 55.4385 97.5835C55.6676 97.0923 55.9868 96.6746 56.3704 96.3642L155.923 25.2732C156.64 24.7502 157.242 25.1757 157.242 26.2128V146.279C157.222 146.846 157.091 147.399 156.862 147.891C156.632 148.383 156.31 148.8 155.923 149.106L56.3704 220.241C55.6466 220.72 55.0518 220.295 55.0518 219.258Z" fill="#EBEBEB"/>
<path d="M62.8992 100.575L149.402 38.8001C150.312 38.153 151.05 38.6849 151.05 39.979V132.539C151.02 133.249 150.856 133.94 150.569 134.556C150.283 135.172 149.883 135.696 149.402 136.085L62.8992 197.859C61.9818 198.507 61.2437 197.984 61.2437 196.681V104.12C61.2734 103.41 61.439 102.718 61.7267 102.101C62.0145 101.485 62.4163 100.962 62.8992 100.575V100.575Z" fill="white"/>
<path d="M77.1968 95.9383C82.579 92.0912 86.9507 95.2114 86.9507 102.906C86.9507 110.6 82.579 119.951 77.1968 123.798C71.8146 127.646 67.4429 124.525 67.4429 116.831C67.4429 109.137 71.8074 99.7853 77.1968 95.9383Z" fill="#11B5E4"/>
<path d="M86.2342 123.843C86.5642 123.081 87.0355 122.426 87.6095 121.932C88.1836 121.438 88.844 121.119 89.5368 121.001C90.2296 120.884 90.9351 120.971 91.5955 121.255C92.2559 121.54 92.8525 122.013 93.3364 122.638L104.631 137.113L125.981 72.3069C126.293 71.3544 126.816 70.5297 127.489 69.9267C128.162 69.3238 128.959 68.9668 129.788 68.8966C130.617 68.8264 131.446 69.0457 132.179 69.5295C132.913 70.0134 133.521 70.7423 133.936 71.6332L151.079 108.366V132.539C151.049 133.249 150.885 133.94 150.598 134.556C150.312 135.172 149.912 135.696 149.43 136.085L62.928 197.86C62.0106 198.507 61.2725 197.984 61.2725 196.681V181.346L86.2342 123.843Z" fill="#11B5E4"/>
<path d="M72.3088 233.457L71.8573 233.138C71.4732 232.828 71.1537 232.411 70.9246 231.919C70.6954 231.428 70.5632 230.877 70.5386 230.311V110.245C70.5629 109.677 70.6957 109.125 70.9262 108.634C71.1567 108.142 71.4783 107.725 71.8644 107.417L171.41 36.3262C171.82 36.0685 172.273 35.9342 172.733 35.9342C173.192 35.9342 173.645 36.0685 174.055 36.3262L174.506 36.6542C174.892 36.9621 175.214 37.3789 175.445 37.8705C175.675 38.3621 175.808 38.9144 175.832 39.4818V159.548C175.806 160.115 175.673 160.666 175.442 161.157C175.212 161.648 174.891 162.066 174.506 162.375L74.9605 233.457C74.5499 233.716 74.0955 233.852 73.6346 233.852C73.1737 233.852 72.7193 233.716 72.3088 233.457V233.457Z" fill="#F5F5F5"/>
<path d="M76.7311 112.781L70.9475 108.632C70.7108 109.121 70.5777 109.676 70.5605 110.246V230.311C70.5852 230.878 70.7174 231.429 70.9465 231.92C71.1756 232.411 71.4952 232.829 71.8792 233.139L72.3307 233.458C72.7404 233.716 73.1934 233.85 73.653 233.85C74.1125 233.85 74.5656 233.716 74.9752 233.458L76.7526 232.191L76.7311 112.781Z" fill="#E0E0E0"/>
<path d="M73.6353 232.518V112.453C73.6599 111.886 73.7921 111.335 74.0212 110.844C74.2504 110.352 74.5699 109.935 74.9539 109.625L174.5 38.5251C175.216 38.011 175.826 38.4276 175.826 39.4736V159.548C175.8 160.115 175.666 160.667 175.436 161.158C175.205 161.649 174.885 162.066 174.5 162.376L74.9539 233.458C74.2229 233.981 73.6353 233.538 73.6353 232.518Z" fill="#EBEBEB"/>
<path d="M81.476 113.809L167.978 52.0431C168.889 51.3872 169.627 51.919 169.627 53.2221V145.782C169.597 146.492 169.433 147.183 169.146 147.799C168.86 148.415 168.46 148.939 167.978 149.328L81.476 211.111C80.5658 211.767 79.8276 211.235 79.8276 209.932V117.346C79.8588 116.638 80.0243 115.949 80.3106 115.334C80.597 114.72 80.9962 114.197 81.476 113.809V113.809Z" fill="white"/>
<path d="M95.774 109.199C101.163 105.352 105.528 108.472 105.528 116.167C105.528 123.861 101.163 133.212 95.774 137.059C90.3846 140.907 85.9985 137.804 85.9985 130.101C85.9985 122.398 90.3846 113.046 95.774 109.199Z" fill="#F03E3D"/>
<path d="M104.811 137.104C105.142 136.341 105.614 135.686 106.188 135.192C106.763 134.698 107.424 134.379 108.117 134.262C108.811 134.144 109.517 134.231 110.178 134.516C110.838 134.8 111.436 135.274 111.92 135.898L123.179 150.373L144.536 85.5672C144.85 84.6169 145.372 83.7945 146.045 83.1932C146.717 82.592 147.512 82.2361 148.34 82.1659C149.168 82.0958 149.995 82.3141 150.728 82.7963C151.46 83.2784 152.069 84.005 152.484 84.8935L169.634 121.627V145.782C169.602 146.492 169.435 147.183 169.148 147.799C168.86 148.414 168.46 148.938 167.978 149.327L81.476 211.111C80.5658 211.767 79.8276 211.235 79.8276 209.932V194.597L104.811 137.104Z" fill="#F03E3D"/>
<path d="M89.1152 223.343L98.4033 216.713V229.983L89.1152 223.343Z" fill="#263238"/>
<path d="M98.4041 130.616V227.625C98.4041 228.928 97.6875 229.451 96.7558 228.804L89.1161 223.344L85.9985 225.56L99.8303 235.435C100.342 235.758 100.908 235.927 101.482 235.927C102.057 235.927 102.623 235.758 103.134 235.435L198.946 167.056C199.428 166.668 199.829 166.145 200.117 165.529C200.405 164.912 200.571 164.221 200.602 163.511V62.0686C200.621 61.372 200.486 60.6823 200.213 60.073C199.939 59.4636 199.537 58.9576 199.049 58.609C198.561 58.2604 198.006 58.0823 197.442 58.0937C196.879 58.105 196.329 58.3055 195.85 58.6736L100.06 127.079C99.5777 127.465 99.1765 127.987 98.8888 128.601C98.6011 129.216 98.435 129.906 98.4041 130.616Z" fill="#263238"/>
<path d="M104.632 132.681L200.666 64.1339V62.0686C200.685 61.372 200.55 60.6823 200.277 60.073C200.003 59.4636 199.601 58.9576 199.113 58.609C198.625 58.2604 198.07 58.0823 197.506 58.0937C196.943 58.105 196.393 58.3055 195.914 58.6736L100.059 127.079C99.5702 127.454 99.1678 127.979 98.8911 128.603L104.632 132.681Z" fill="#455A64"/>
<path d="M198.946 60.8889L103.155 129.294C102.673 129.682 102.272 130.206 101.984 130.822C101.696 131.438 101.53 132.129 101.5 132.84V234.255C101.5 235.558 102.216 236.09 103.155 235.434L198.946 167.056C199.428 166.667 199.829 166.144 200.116 165.528C200.404 164.912 200.57 164.22 200.601 163.51V62.0679C200.601 60.7648 199.856 60.233 198.946 60.8889Z" fill="#37474F"/>
<path d="M127.006 192.115C126.823 192.118 126.642 192.06 126.483 191.947C126.292 191.791 126.139 191.575 126.039 191.321C125.939 191.066 125.897 190.784 125.917 190.502V141.199C125.942 140.556 126.091 139.929 126.352 139.371C126.612 138.812 126.977 138.339 127.415 137.99L174.328 104.493C174.509 104.315 174.73 104.21 174.96 104.189C175.191 104.169 175.421 104.235 175.621 104.378C175.821 104.521 175.982 104.735 176.082 104.993C176.183 105.25 176.218 105.539 176.184 105.822V155.125C176.159 155.769 176.01 156.395 175.749 156.954C175.489 157.512 175.124 157.985 174.686 158.334L127.773 191.876C127.538 192.036 127.274 192.119 127.006 192.115V192.115ZM175.095 105.095C174.949 105.103 174.807 105.162 174.686 105.264L127.773 138.753C127.444 139.025 127.17 139.387 126.973 139.812C126.775 140.236 126.659 140.711 126.633 141.199V190.502C126.62 190.627 126.633 190.754 126.669 190.871C126.705 190.989 126.764 191.093 126.841 191.176C126.937 191.219 127.04 191.231 127.14 191.21C127.24 191.19 127.335 191.139 127.415 191.06L174.328 157.563C174.657 157.293 174.931 156.932 175.129 156.509C175.327 156.086 175.443 155.612 175.468 155.125V105.822C175.481 105.697 175.469 105.57 175.433 105.453C175.397 105.335 175.337 105.23 175.26 105.148C175.21 105.112 175.153 105.094 175.095 105.095V105.095Z" fill="#FAFAFA"/>
<path d="M134.566 149.655C134.157 149.661 133.754 149.532 133.398 149.283C132.956 148.907 132.602 148.392 132.376 147.79C132.149 147.188 132.056 146.522 132.108 145.861C132.185 144.159 132.584 142.502 133.274 141.026C133.964 139.549 134.924 138.293 136.079 137.361C136.498 136.939 137.011 136.686 137.549 136.634C138.088 136.581 138.626 136.734 139.093 137.069C139.56 137.405 139.933 137.909 140.163 138.514C140.392 139.119 140.468 139.795 140.379 140.454C140.304 142.158 139.905 143.815 139.215 145.292C138.525 146.769 137.564 148.024 136.408 148.955C135.853 149.379 135.219 149.62 134.566 149.655V149.655ZM137.949 137.547C137.413 137.576 136.892 137.778 136.437 138.132C135.391 138.982 134.522 140.125 133.9 141.468C133.277 142.811 132.919 144.316 132.854 145.861C132.759 146.369 132.798 146.9 132.966 147.377C133.134 147.855 133.421 148.253 133.785 148.513C134.15 148.773 134.572 148.881 134.99 148.822C135.408 148.763 135.8 148.539 136.107 148.184C137.153 147.333 138.021 146.19 138.644 144.847C139.266 143.505 139.625 142 139.691 140.454C139.74 139.949 139.68 139.436 139.516 138.969C139.352 138.501 139.091 138.096 138.759 137.795C138.513 137.621 138.232 137.535 137.949 137.547V137.547Z" fill="#FAFAFA"/>
<path d="M126.275 188.41C126.223 188.396 126.174 188.369 126.132 188.33C126.09 188.304 126.053 188.268 126.022 188.223C125.992 188.179 125.969 188.128 125.955 188.073C125.941 188.017 125.936 187.959 125.941 187.901C125.945 187.843 125.959 187.787 125.981 187.736L139.87 154.008C140.079 153.498 140.382 153.055 140.755 152.716C141.127 152.377 141.559 152.151 142.015 152.056C142.471 151.962 142.938 152.001 143.38 152.17C143.822 152.34 144.225 152.635 144.557 153.033L158.289 169.379C158.322 169.419 158.349 169.467 158.367 169.521C158.385 169.574 158.394 169.631 158.394 169.689C158.394 169.747 158.385 169.804 158.367 169.857C158.349 169.91 158.322 169.959 158.289 169.999C158.255 170.041 158.216 170.074 158.172 170.096C158.128 170.119 158.082 170.13 158.034 170.13C157.987 170.13 157.94 170.119 157.897 170.096C157.853 170.074 157.813 170.041 157.78 169.999L144.048 153.698C143.796 153.399 143.491 153.177 143.157 153.05C142.823 152.922 142.47 152.893 142.125 152.965C141.781 153.036 141.455 153.206 141.173 153.461C140.89 153.716 140.661 154.049 140.501 154.433L126.612 188.171C126.58 188.246 126.531 188.308 126.471 188.35C126.412 188.393 126.344 188.413 126.275 188.41V188.41Z" fill="#FAFAFA"/>
<path d="M151.05 161.87C151.003 161.883 150.954 161.883 150.907 161.87C150.821 161.824 150.753 161.737 150.719 161.629C150.684 161.522 150.684 161.401 150.72 161.294L161.471 130.553C161.663 129.995 161.967 129.506 162.356 129.135C162.744 128.764 163.203 128.522 163.689 128.433C164.174 128.344 164.67 128.411 165.129 128.627C165.587 128.843 165.993 129.201 166.308 129.667L176.084 144.284C176.114 144.328 176.138 144.379 176.152 144.434C176.167 144.489 176.172 144.547 176.168 144.605C176.164 144.663 176.151 144.719 176.129 144.771C176.107 144.822 176.077 144.867 176.041 144.904C175.975 144.968 175.893 145.002 175.81 145C175.726 144.998 175.646 144.961 175.582 144.895L165.806 130.278C165.572 129.927 165.269 129.655 164.925 129.49C164.582 129.326 164.21 129.273 163.845 129.337C163.48 129.401 163.135 129.58 162.842 129.856C162.549 130.133 162.319 130.498 162.173 130.917L151.423 161.649C151.387 161.729 151.332 161.793 151.265 161.833C151.198 161.872 151.123 161.886 151.05 161.87V161.87Z" fill="#FAFAFA"/>
<path d="M186.232 83.3774C184.018 83.3774 182.534 81.7375 182.534 79.2999L182.728 63.9293C182.728 59.7366 182.728 53.3721 186.512 50.633C187.294 50.0189 188.195 49.6763 189.12 49.6413C190.046 49.6063 190.963 49.8801 191.773 50.4341C192.584 50.988 193.259 51.8017 193.728 52.7897C194.197 53.7776 194.442 54.9035 194.438 56.0491C194.438 57.2812 194.402 58.7881 194.345 60.5344C194.341 60.7098 194.309 60.8825 194.251 61.0423C194.192 61.2021 194.108 61.3458 194.004 61.4648C193.9 61.5838 193.777 61.6758 193.644 61.7352C193.51 61.7946 193.369 61.8203 193.227 61.8108C193.086 61.8028 192.947 61.7605 192.819 61.6862C192.691 61.6119 192.576 61.5072 192.481 61.3779C192.386 61.2486 192.312 61.0974 192.264 60.9329C192.217 60.7684 192.195 60.5938 192.202 60.4191C192.252 58.7438 192.288 57.228 192.288 56.0491C192.293 55.3698 192.147 54.7018 191.867 54.1176C191.587 53.5334 191.182 53.0551 190.698 52.7347C190.214 52.4142 189.668 52.2637 189.12 52.2995C188.571 52.3353 188.041 52.556 187.587 52.9377C185.086 54.7106 184.878 59.1427 184.878 63.9116L184.684 79.2999C184.684 80.4522 185.523 80.7004 186.232 80.7004C187.402 80.666 188.514 80.0706 189.336 79.0402C190.157 78.0097 190.622 76.6248 190.633 75.178L190.554 69.106C190.554 68.7534 190.667 68.4152 190.869 68.1659C191.07 67.9165 191.344 67.7764 191.629 67.7764C191.914 67.7764 192.187 67.9165 192.389 68.1659C192.59 68.4152 192.704 68.7534 192.704 69.106L192.783 75.1869C192.788 77.346 192.102 79.42 190.875 80.955C189.647 82.49 187.978 83.361 186.232 83.3774Z" fill="#BA68C8"/>
<path d="M202.371 177.853L127.6 231.251C127.215 231.56 126.895 231.977 126.664 232.469C126.434 232.96 126.3 233.511 126.274 234.078V234.725C126.3 235.294 126.433 235.847 126.663 236.34C126.894 236.832 127.215 237.251 127.6 237.562L189.987 282.113C190.396 282.371 190.849 282.506 191.309 282.506C191.768 282.506 192.222 282.371 192.631 282.113L267.402 228.716C267.787 228.406 268.107 227.989 268.338 227.498C268.568 227.006 268.702 226.455 268.728 225.888V225.232C268.702 224.665 268.568 224.113 268.338 223.622C268.107 223.131 267.787 222.714 267.402 222.404L205.015 177.853C204.606 177.595 204.153 177.461 203.693 177.461C203.233 177.461 202.78 177.595 202.371 177.853V177.853Z" fill="#455A64"/>
<path d="M126.274 234.078V234.725C126.3 235.293 126.433 235.846 126.663 236.339C126.894 236.832 127.215 237.25 127.6 237.561L189.987 282.113C190.393 282.378 190.846 282.512 191.305 282.503V274.206L129.37 229.991L127.6 231.259C127.216 231.568 126.896 231.983 126.666 232.473C126.436 232.963 126.301 233.512 126.274 234.078V234.078Z" fill="#263238"/>
<path d="M127.602 231.25L202.372 177.852C202.782 177.594 203.235 177.46 203.694 177.46C204.154 177.46 204.607 177.594 205.017 177.852L267.403 222.403C267.564 222.468 267.704 222.595 267.804 222.764C267.904 222.934 267.957 223.138 267.957 223.347C267.957 223.557 267.904 223.761 267.804 223.931C267.704 224.1 267.564 224.227 267.403 224.292L192.633 277.69C192.223 277.947 191.77 278.081 191.31 278.081C190.851 278.081 190.398 277.947 189.988 277.69L127.602 233.138C127.44 233.073 127.3 232.947 127.201 232.777C127.101 232.608 127.047 232.404 127.047 232.194C127.047 231.984 127.101 231.78 127.201 231.611C127.3 231.441 127.44 231.315 127.602 231.25Z" fill="#37474F"/>
<path d="M136.881 233.138L185.336 267.708C185.743 267.969 186.195 268.106 186.654 268.106C187.113 268.106 187.565 267.969 187.973 267.708L253.463 220.95C253.624 220.885 253.764 220.759 253.864 220.589C253.963 220.419 254.017 220.215 254.017 220.006C254.017 219.796 253.963 219.592 253.864 219.422C253.764 219.253 253.624 219.126 253.463 219.062L205.008 184.491C204.598 184.238 204.145 184.106 203.686 184.106C203.227 184.106 202.774 184.238 202.364 184.491L136.881 231.25C136.72 231.315 136.58 231.441 136.48 231.611C136.381 231.78 136.327 231.984 136.327 232.194C136.327 232.403 136.381 232.608 136.48 232.777C136.58 232.947 136.72 233.073 136.881 233.138V233.138Z" fill="white"/>
<path d="M151.825 225.825C155.243 223.387 160.79 223.387 164.209 225.825C167.627 228.263 167.634 232.225 164.209 234.689C160.783 237.153 155.243 237.127 151.825 234.689C148.406 232.251 148.406 228.271 151.825 225.825Z" fill="#02897A"/>
<path d="M253.47 219.088L239.308 208.974L196.308 204.019C195.785 203.959 195.258 204.066 194.778 204.33C194.298 204.594 193.881 205.006 193.567 205.526C193.252 206.047 193.051 206.658 192.983 207.302C192.915 207.946 192.981 208.601 193.176 209.205L200.601 232.19L176.95 230.523C176.489 230.489 176.028 230.585 175.601 230.803C175.174 231.021 174.792 231.355 174.485 231.782C174.177 232.208 173.951 232.715 173.825 233.265C173.698 233.815 173.674 234.392 173.754 234.955L177.395 262.071L185.364 267.762C185.772 268.023 186.224 268.159 186.683 268.159C187.142 268.159 187.594 268.023 188.001 267.762L253.491 221.003C253.66 220.943 253.808 220.815 253.913 220.64C254.018 220.466 254.073 220.253 254.071 220.036C254.068 219.818 254.008 219.607 253.899 219.436C253.791 219.265 253.64 219.143 253.47 219.088V219.088Z" fill="#02897A"/>
<path d="M253.24 154.797V119.411L290.399 92.8805V128.258L253.24 154.797Z" fill="#EBEBEB"/>
<path d="M253.24 119.411L206.785 86.2411V121.627L253.24 154.797V119.411Z" fill="#E6E6E6"/>
<path d="M253.24 119.411L291.503 92.0823L243.944 58.1146L205.688 85.4518L253.24 119.411Z" fill="#F0F0F0"/>
<path d="M253.24 119.411V128.257L291.503 100.938V92.0823L253.24 119.411Z" fill="#EBEBEB"/>
<path d="M253.24 128.257L290.399 101.727V103.668L253.24 130.207V128.257Z" fill="#E6E6E6"/>
<path d="M205.688 85.4521L253.24 119.411V128.257L205.688 94.2986V85.4521Z" fill="#EBEBEB"/>
<g style="mix-blend-mode:multiply" opacity="0.5">
<path d="M253.24 128.258L206.785 95.0878V97.0379L253.24 130.208V128.258Z" fill="#E0E0E0"/>
</g>
<path d="M265.474 124.791L278.166 115.723C278.711 115.333 279.155 115.652 279.155 116.432V125.713C279.137 126.139 279.038 126.554 278.866 126.923C278.694 127.293 278.455 127.607 278.166 127.841L265.474 136.918C264.922 137.308 264.485 136.997 264.485 136.217V126.91C264.501 126.485 264.599 126.07 264.771 125.702C264.943 125.333 265.184 125.021 265.474 124.791V124.791Z" fill="#E0E0E0"/>
<path d="M266.284 125.846L277.349 117.939C277.715 117.682 278.016 117.895 278.016 118.409V125.394C278.005 125.679 277.939 125.957 277.823 126.204C277.707 126.451 277.545 126.66 277.349 126.812L266.284 134.719C265.918 134.976 265.625 134.719 265.625 134.241V127.256C265.635 126.973 265.701 126.697 265.816 126.452C265.93 126.206 266.091 125.999 266.284 125.846V125.846Z" fill="white"/>
<path d="M253.24 114.97V79.5839L290.399 53.0444V88.4304L253.24 114.97Z" fill="#EBEBEB"/>
<path d="M253.24 79.5844L206.785 46.4146V81.8005L253.24 114.97V79.5844Z" fill="#E6E6E6"/>
<path d="M253.24 79.5838L291.503 52.2466L243.945 18.2878L205.689 45.6162L253.24 79.5838Z" fill="#F5F5F5"/>
<path d="M253.24 79.5843V88.4308L291.503 61.1113V52.2471L253.24 79.5843Z" fill="#EBEBEB"/>
<path d="M253.24 88.4307L290.399 61.8912V63.8414L253.24 90.3719V88.4307Z" fill="#E6E6E6"/>
<path d="M205.688 45.6162L253.24 79.5839V88.4303L205.688 54.4716V45.6162Z" fill="#EBEBEB"/>
<g style="mix-blend-mode:multiply" opacity="0.5">
<path d="M253.24 88.4301L206.785 55.2603V57.2015L253.24 90.3714V88.4301Z" fill="#E0E0E0"/>
</g>
<path d="M265.474 84.9646L278.166 75.8966C278.711 75.5065 279.155 75.8257 279.155 76.6057V85.8865C279.135 86.3118 279.036 86.7256 278.864 87.0949C278.692 87.4642 278.453 87.7789 278.166 88.0139L265.474 97.0732C264.922 97.4632 264.485 97.1441 264.485 96.364V87.0832C264.501 86.6579 264.599 86.2436 264.771 85.8749C264.943 85.5062 265.184 85.1941 265.474 84.9646Z" fill="#E0E0E0"/>
<path d="M266.284 86.0104L277.349 78.1124C277.715 77.8553 278.016 78.0592 278.016 78.5822V85.5051C278.002 85.7895 277.934 86.0658 277.819 86.3121C277.703 86.5583 277.542 86.7677 277.349 86.9234L266.284 94.8214C265.918 95.0873 265.625 94.8746 265.625 94.3516V87.3932C265.639 87.1148 265.706 86.8445 265.82 86.6042C265.935 86.3639 266.094 86.1605 266.284 86.0104V86.0104Z" fill="white"/>
<path d="M288.392 89.8578L253.24 114.97L208.791 83.2096L207.702 84.0074L253.24 116.415L289.489 90.6378L288.392 89.8578Z" fill="#E0E0E0"/>
</svg>
