<svg width="330" height="296" viewBox="0 0 330 296" fill="none" xmlns="http://www.w3.org/2000/svg">
<path d="M48.2329 267.653C112.543 305.406 216.818 305.406 281.129 267.653C345.439 229.9 345.439 168.688 281.129 130.927C216.818 93.1652 112.573 93.1734 48.2329 130.927C-16.107 168.68 -16.0482 229.9 48.2329 267.653Z" fill="#F5F5F5"/>
<path d="M30.3058 205.739L9.40088 192.18V141.792L30.3058 155.36V205.739Z" fill="#E0E0E0"/>
<path d="M30.3057 155.36L60.1741 135.984V186.363L30.3057 205.739V155.36Z" fill="#EBEBEB"/>
<path d="M60.1743 135.984L30.3058 155.36L9.40088 141.793L39.2693 122.416L60.1743 135.984Z" fill="#F5F5F5"/>
<path d="M33.2979 157.294L57.1882 141.793L57.7397 142.148V160.814L33.842 176.315L33.2905 175.96L33.2979 157.294Z" fill="#E0E0E0"/>
<path d="M33.8428 157.657L57.7405 142.147V160.813L33.8428 176.315V157.657Z" fill="#F5F5F5"/>
<path d="M43.2108 154.74L47.2771 152.105C47.7991 151.757 48.2256 151.914 48.2256 152.452C48.1877 152.781 48.0823 153.095 47.9177 153.37C47.7531 153.646 47.5338 153.874 47.2771 154.038L43.2108 156.674C42.6814 157.021 42.2549 156.864 42.2549 156.327C42.293 155.997 42.3993 155.682 42.5653 155.406C42.7313 155.131 42.9523 154.903 43.2108 154.74V154.74Z" fill="#E0E0E0"/>
<path d="M32.7471 180.909L56.6374 165.408V184.074L57.1889 184.429L33.2912 199.93L32.7471 199.575V180.909Z" fill="#E0E0E0"/>
<path d="M33.2905 181.265L57.1882 165.763V184.429L33.2905 199.931V181.265Z" fill="#F5F5F5"/>
<path d="M42.6594 178.356L46.7624 175.728C47.2919 175.381 47.7183 175.538 47.7183 176.075C47.6802 176.405 47.5739 176.721 47.4079 176.996C47.2419 177.272 47.0209 177.5 46.7624 177.662L42.6961 180.298C42.1667 180.645 41.7402 180.488 41.7402 179.951C41.7733 179.623 41.8735 179.309 42.033 179.032C42.1924 178.755 42.4069 178.524 42.6594 178.356Z" fill="#E0E0E0"/>
<path d="M30.3058 152.451L9.40088 138.884V88.5049L30.3058 102.064V152.451Z" fill="#E0E0E0"/>
<path d="M30.3057 102.065L60.1741 82.6882V133.075L30.3057 152.452V102.065Z" fill="#EBEBEB"/>
<path d="M60.1748 82.6881L30.3063 102.065L9.40137 88.5052L39.2698 69.1287L60.1748 82.6881Z" fill="#F5F5F5"/>
<path d="M33.2905 104.006L57.1882 88.5046L57.7397 88.8599V107.526L33.842 123.027L33.2905 122.663V104.006Z" fill="#E0E0E0"/>
<path d="M43.2108 101.445L47.2697 98.8089C47.7991 98.4701 48.2256 98.6271 48.2256 99.1642C48.1864 99.4937 48.0796 99.8085 47.9138 100.084C47.7479 100.359 47.5274 100.587 47.2697 100.751L43.2108 103.387C42.6814 103.725 42.2549 103.577 42.2549 103.04C42.2936 102.709 42.4001 102.393 42.5659 102.116C42.7318 101.839 42.9525 101.609 43.2108 101.445V101.445Z" fill="#E0E0E0"/>
<path d="M32.7471 127.622L56.6374 112.121V130.778L57.1889 131.134L33.2912 146.635L32.7471 146.279V127.622Z" fill="#E0E0E0"/>
<path d="M33.2905 127.977L57.1882 112.476V131.133L33.2905 146.634V127.977Z" fill="#F5F5F5"/>
<path d="M42.659 125.06L46.7621 122.424C47.2842 122.086 47.718 122.243 47.718 122.78C47.6766 123.108 47.569 123.422 47.4033 123.697C47.2377 123.972 47.0184 124.201 46.7621 124.366L42.659 126.977C42.1296 127.316 41.7031 127.159 41.7031 126.63C41.745 126.304 41.853 125.993 42.0187 125.72C42.1844 125.448 42.4035 125.222 42.659 125.06V125.06Z" fill="#E0E0E0"/>
<path d="M33.2905 104.006L57.1882 88.5046V107.162L33.2905 122.663V104.006Z" fill="#E0E0E0"/>
<path d="M69.1374 97.7265L56.0562 89.2405V105.684L69.1374 114.161V97.7265Z" fill="#E0E0E0"/>
<path d="M42.2549 125.325V102.065L47.38 98.7266L48.2256 100.131L63.1598 90.439V111.757L42.2549 125.325Z" fill="#EBEBEB"/>
<path d="M42.2549 125.325L43.7476 104.973L64.6525 91.4136L63.1598 111.757L42.2549 125.325Z" fill="#F5F5F5"/>
<path d="M45.2401 113.228L33.8428 105.832V122.275L45.2401 129.662V113.228Z" fill="#EBEBEB"/>
<path d="M45.2393 111.757L69.1369 96.2554V114.913L45.2393 130.414V111.757Z" fill="#F5F5F5"/>
<path d="M54.6078 108.84L58.6667 106.204C59.1961 105.865 59.6226 106.022 59.6226 106.559C59.5828 106.889 59.4758 107.203 59.31 107.479C59.1442 107.754 58.924 107.982 58.6667 108.146L54.6078 110.782C54.0783 111.121 53.6519 110.964 53.6519 110.435C53.6906 110.104 53.797 109.788 53.9629 109.511C54.1288 109.234 54.3495 109.005 54.6078 108.84Z" fill="#E0E0E0"/>
<path d="M45.2404 111.757L44.4463 111.244V129.902L45.2404 130.414V111.757Z" fill="#E0E0E0"/>
<path d="M44.4463 111.244L68.3366 95.7349L69.1381 96.2554L45.2404 111.757L44.4463 111.244Z" fill="#EBEBEB"/>
<path d="M277.282 175.216L256.37 161.648V111.269L277.282 124.828V175.216Z" fill="#E0E0E0"/>
<path d="M277.283 124.829L307.152 105.452V155.839L277.283 175.216V124.829Z" fill="#EBEBEB"/>
<path d="M307.151 105.452L277.282 124.828L256.37 111.269L286.246 91.8843L307.151 105.452Z" fill="#F5F5F5"/>
<path d="M280.269 126.77L304.166 111.269L304.718 111.624L304.71 130.282L280.82 145.783L280.269 145.428V126.77Z" fill="#E0E0E0"/>
<path d="M280.82 127.126L304.718 111.625L304.71 130.283L280.82 145.784V127.126Z" fill="#F5F5F5"/>
<path d="M290.188 124.209L294.247 121.573C294.776 121.235 295.203 121.392 295.203 121.92C295.164 122.251 295.058 122.567 294.892 122.844C294.726 123.121 294.505 123.351 294.247 123.515L290.188 126.151C289.658 126.49 289.232 126.333 289.232 125.804C289.271 125.473 289.377 125.157 289.543 124.88C289.709 124.604 289.93 124.374 290.188 124.209V124.209Z" fill="#E0E0E0"/>
<path d="M279.716 150.386L303.614 134.876V153.542L304.165 153.898L280.268 169.399L279.716 169.044V150.386Z" fill="#E0E0E0"/>
<path d="M280.269 150.741L304.166 135.24V153.897L280.269 169.398V150.741Z" fill="#F5F5F5"/>
<path d="M289.636 147.824L293.702 145.188C294.224 144.849 294.651 145.006 294.651 145.535C294.612 145.865 294.506 146.18 294.342 146.457C294.177 146.733 293.959 146.963 293.702 147.13L289.636 149.766C289.107 150.105 288.68 149.948 288.68 149.411C288.72 149.081 288.827 148.767 288.993 148.491C289.159 148.216 289.379 147.988 289.636 147.824Z" fill="#E0E0E0"/>
<path d="M78.381 227.876C78.381 227.876 78.4619 214.771 71.1088 204.946C64.6013 196.246 61.1379 190.726 63.1895 188.181C65.241 185.636 69.6529 185.025 75.6016 192.065C81.5502 199.105 82.0135 218.605 81.1899 223.017L78.381 227.876Z" fill="#02897A"/>
<path opacity="0.2" d="M78.381 227.876C78.381 227.876 78.4619 214.771 71.1088 204.946C64.6013 196.246 61.1379 190.726 63.1895 188.181C65.241 185.636 69.6529 185.025 75.6016 192.065C81.5502 199.105 82.0135 218.605 81.1899 223.017L78.381 227.876Z" fill="black"/>
<path d="M79.6159 213.787C79.5322 213.787 79.4508 213.756 79.3853 213.697C79.3198 213.639 79.274 213.557 79.2556 213.465C76.682 199.938 70.0789 192.461 66.3656 189.205C66.2887 189.138 66.2386 189.039 66.2261 188.931C66.2137 188.823 66.2401 188.713 66.2994 188.627C66.3603 188.54 66.4492 188.483 66.5469 188.469C66.6445 188.455 66.7432 188.485 66.8214 188.552C70.6083 191.857 77.3511 199.509 79.9762 213.291C79.987 213.344 79.9883 213.399 79.98 213.452C79.9717 213.505 79.954 213.556 79.928 213.601C79.9019 213.647 79.8681 213.686 79.8284 213.716C79.7887 213.747 79.7439 213.768 79.6968 213.779L79.6159 213.787Z" fill="white"/>
<path d="M78.1013 232.742L75.1086 234.684C74.7894 233.704 74.251 232.833 73.5453 232.154C72.8395 231.475 71.9902 231.012 71.0791 230.809C67.8069 229.983 64.4098 230.123 62.1156 226.934C59.8214 223.744 62.6156 220.274 62.1156 217.927C61.6156 215.58 61.2921 214.903 57.189 212.556C53.086 210.209 51.4683 206.318 54.5566 203.682C57.6449 201.046 62.645 202.979 65.6745 205.334C68.3658 207.4 70.9247 207.945 73.9321 208.367C76.9395 208.788 81.8367 210.664 81.0867 218.514C80.5956 223.373 79.5935 228.149 78.1013 232.742V232.742Z" fill="#02897A"/>
<path d="M66.6156 222.431C66.5372 222.43 66.4611 222.401 66.3978 222.35C66.3345 222.298 66.2872 222.225 66.2626 222.141C66.2348 222.036 66.2446 221.923 66.2899 221.826C66.3352 221.728 66.4125 221.655 66.5053 221.621C66.77 221.53 73.1231 219.266 75.8217 221.695C75.8887 221.766 75.9295 221.863 75.9361 221.966C75.9426 222.069 75.9145 222.172 75.8572 222.253C75.7998 222.334 75.7175 222.388 75.6266 222.404C75.5356 222.42 75.4425 222.397 75.3658 222.34C72.9834 220.191 66.7921 222.389 66.7259 222.414L66.6156 222.431Z" fill="white"/>
<path d="M78.4327 232.114C78.3432 232.115 78.2567 232.078 78.1901 232.011C78.1235 231.943 78.0815 231.851 78.0724 231.751C76.4326 214.349 57.7777 206.094 57.5939 206.012C57.5483 205.993 57.5066 205.963 57.4711 205.926C57.4357 205.888 57.4072 205.843 57.3874 205.793C57.3675 205.743 57.3567 205.689 57.3556 205.635C57.3544 205.58 57.363 205.526 57.3807 205.475C57.4168 205.375 57.4858 205.294 57.5734 205.249C57.661 205.205 57.7604 205.2 57.8513 205.235C58.0498 205.326 77.1165 213.754 78.8004 231.676C78.8107 231.785 78.7825 231.893 78.7219 231.978C78.6613 232.064 78.5732 232.118 78.4768 232.131L78.4327 232.114Z" fill="white"/>
<path d="M261.327 221.315C261.408 221.026 264.562 202.781 261.327 189.842C258.386 177.976 254.547 173.597 249.077 172.63C243.606 171.663 241.231 176.092 244.135 182.091C247.04 188.09 254.033 196.047 255.746 209.45C256.481 214.969 257.04 219.762 257.04 219.762L261.327 221.315Z" fill="#02897A"/>
<path opacity="0.2" d="M261.327 221.315C261.408 221.026 264.562 202.781 261.327 189.842C258.386 177.976 254.547 173.597 249.077 172.63C243.606 171.663 241.231 176.092 244.135 182.091C247.04 188.09 254.033 196.047 255.746 209.45C256.481 214.969 257.04 219.762 257.04 219.762L261.327 221.315Z" fill="black"/>
<path d="M259.481 210.838C259.433 210.835 259.386 210.821 259.342 210.797C259.299 210.773 259.26 210.74 259.228 210.699C259.195 210.659 259.171 210.611 259.155 210.56C259.139 210.508 259.133 210.454 259.136 210.4C259.871 195.626 255.577 182.438 247.878 175.968C247.8 175.903 247.748 175.805 247.735 175.696C247.721 175.588 247.746 175.478 247.804 175.39C247.864 175.304 247.951 175.247 248.047 175.232C248.143 175.217 248.241 175.244 248.319 175.307C256.209 181.918 260.636 195.403 259.864 210.449C259.858 210.557 259.815 210.659 259.743 210.731C259.672 210.804 259.578 210.842 259.481 210.838Z" fill="white"/>
<path d="M269.79 230.817C269.371 227.421 271.106 222.331 275.231 221.125C279.356 219.919 281.194 217.258 279.709 214.349C278.224 211.441 278.569 208.772 282.312 207.565C286.055 206.359 289.334 204.26 287.18 199.815C285.614 196.601 285.268 194.518 289.106 188.189C292.29 182.934 289.687 179.852 285.702 180.43C281.717 181.009 279.253 186.346 276.761 187.239C274.268 188.131 273.694 183.372 270.407 185.504C267.121 187.635 267.319 193.097 267.216 196.906C267.113 200.716 266.893 201.575 263.922 201.112C260.951 200.649 258.039 201.195 258.106 209.268C258.157 216.192 261.444 224.769 261.444 224.769L269.79 230.817Z" fill="#02897A"/>
<path d="M264.577 225.653H264.54C264.442 225.641 264.352 225.585 264.29 225.498C264.228 225.412 264.199 225.301 264.209 225.19C266.283 204.376 282.18 186.818 286.327 183.256C286.405 183.189 286.504 183.16 286.601 183.175C286.698 183.19 286.786 183.247 286.846 183.335C286.905 183.422 286.931 183.533 286.918 183.642C286.905 183.752 286.854 183.85 286.776 183.917C282.68 187.429 266.989 204.756 264.944 225.281C264.934 225.383 264.891 225.477 264.823 225.545C264.755 225.613 264.668 225.652 264.577 225.653V225.653Z" fill="white"/>
<path d="M271.827 203.401C271.753 203.401 271.68 203.375 271.619 203.328C271.557 203.281 271.509 203.215 271.482 203.137C271.45 203.033 271.456 202.919 271.497 202.819C271.538 202.719 271.611 202.641 271.702 202.6C277.629 200.121 284.35 201.294 284.636 201.344C284.732 201.362 284.817 201.422 284.873 201.51C284.93 201.598 284.953 201.708 284.938 201.815C284.92 201.922 284.867 202.017 284.789 202.081C284.711 202.145 284.615 202.174 284.519 202.162C284.453 202.162 277.702 200.972 271.96 203.377C271.917 203.393 271.872 203.401 271.827 203.401V203.401Z" fill="white"/>
<path d="M266.548 215.911C266.496 215.91 266.445 215.897 266.398 215.873C266.352 215.849 266.31 215.814 266.276 215.77C263.811 212.545 262.14 208.651 261.43 204.475C261.423 204.421 261.425 204.366 261.436 204.314C261.448 204.261 261.469 204.211 261.497 204.167C261.526 204.124 261.562 204.087 261.604 204.059C261.645 204.031 261.691 204.012 261.739 204.004C261.787 203.996 261.835 203.998 261.882 204.011C261.929 204.024 261.974 204.048 262.012 204.08C262.051 204.112 262.084 204.153 262.109 204.199C262.134 204.246 262.151 204.297 262.158 204.351C262.861 208.362 264.469 212.104 266.827 215.217C266.873 215.278 266.903 215.352 266.913 215.431C266.923 215.51 266.912 215.59 266.883 215.663C266.854 215.736 266.807 215.798 266.747 215.842C266.688 215.885 266.619 215.909 266.548 215.911V215.911Z" fill="white"/>
<path d="M78.1021 104.857V232.75L194.59 157.178L194.583 40.9104L107.97 97.1064L104.978 87.414L78.1021 104.857Z" fill="#22343D"/>
<path d="M78.1021 232.75L84.0728 116.483L200.561 40.9104L194.59 157.178L78.1021 232.75Z" fill="#E0E0E0"/>
<path d="M78.1016 232.75L87.0577 118.425L203.546 42.844L194.59 157.178L78.1016 232.75Z" fill="#22343D"/>
<path d="M96.021 116.483V244.385L212.509 168.804V52.5369L125.889 108.733L122.904 99.0404L96.021 116.483Z" fill="#F03E3D"/>
<path d="M96.021 244.385L101.992 128.109L218.48 52.5369L212.509 168.804L96.021 244.385Z" fill="#E0E0E0"/>
<path d="M96.021 244.385L104.977 130.051L221.465 54.4705L212.509 168.804L96.021 244.385Z" fill="#F03E3D"/>
<path d="M194.56 285.079C173.648 271.512 154.25 256.762 145.397 239.46L172.309 222L194.56 285.079Z" fill="#E0E0E0"/>
<path d="M116.925 130.051V257.944L233.414 182.372V66.1045L146.794 122.3L143.808 112.608L116.925 130.051Z" fill="#02897A"/>
<path opacity="0.2" d="M116.925 130.051V257.944L233.414 182.372V66.1045L146.794 122.3L143.808 112.608L116.925 130.051Z" fill="black"/>
<path d="M150.485 167.862C150.191 167.862 150.146 167.481 150.146 167.258V58.1881C150.17 57.765 150.281 57.3538 150.469 56.9868C150.658 56.6198 150.92 56.307 151.235 56.0728L235.311 1.53773C235.426 1.45703 235.557 1.41145 235.693 1.40552C235.987 1.40552 236.031 1.78561 236.031 2.00871V111.079C236.008 111.503 235.898 111.916 235.709 112.284C235.52 112.653 235.258 112.967 234.943 113.203L150.867 167.738C150.751 167.814 150.619 167.857 150.485 167.862Z" fill="white"/>
<path d="M235.649 1.78593C235.655 1.84634 235.655 1.90731 235.649 1.96772V111.038C235.625 111.39 235.531 111.731 235.375 112.037C235.218 112.343 235.003 112.606 234.745 112.806L150.669 167.341L150.522 167.416C150.512 167.356 150.512 167.294 150.522 167.234V58.1637C150.547 57.8133 150.641 57.4737 150.798 57.1693C150.954 56.8649 151.169 56.6034 151.426 56.4037L235.502 1.86856C235.548 1.83211 235.601 1.8068 235.657 1.7942L235.649 1.78593ZM235.701 0.967905C235.5 0.974604 235.305 1.04013 235.134 1.15795L151.059 55.6931C150.689 55.9659 150.382 56.3322 150.161 56.7627C149.94 57.1932 149.812 57.6758 149.787 58.1719V167.242C149.787 167.887 150.073 168.259 150.522 168.259C150.722 168.253 150.918 168.187 151.088 168.068L235.164 113.533C235.535 113.262 235.844 112.897 236.065 112.466C236.286 112.035 236.413 111.551 236.436 111.054V1.98424C236.436 1.33974 236.149 0.959643 235.701 0.967905V0.967905Z" fill="#02897A"/>
<path opacity="0.7" d="M235.649 1.78593C235.655 1.84634 235.655 1.90731 235.649 1.96772V111.038C235.625 111.39 235.531 111.731 235.375 112.037C235.218 112.343 235.003 112.606 234.745 112.806L150.669 167.341L150.522 167.416C150.512 167.356 150.512 167.294 150.522 167.234V58.1637C150.547 57.8133 150.641 57.4737 150.798 57.1693C150.954 56.8649 151.169 56.6034 151.426 56.4037L235.502 1.86856C235.548 1.83211 235.601 1.8068 235.657 1.7942L235.649 1.78593ZM235.701 0.967905C235.5 0.974604 235.305 1.04013 235.134 1.15795L151.059 55.6931C150.689 55.9659 150.382 56.3322 150.161 56.7627C149.94 57.1932 149.812 57.6758 149.787 58.1719V167.242C149.787 167.887 150.073 168.259 150.522 168.259C150.722 168.253 150.918 168.187 151.088 168.068L235.164 113.533C235.535 113.262 235.844 112.897 236.065 112.466C236.286 112.035 236.413 111.551 236.436 111.054V1.98424C236.436 1.33974 236.149 0.959643 235.701 0.967905V0.967905Z" fill="white"/>
<path d="M158.742 62.3281L188.611 42.9517V81.7046L158.742 101.081V62.3281Z" fill="#02897A"/>
<path opacity="0.8" d="M158.742 62.3281L188.611 42.9517V81.7046L158.742 101.081V62.3281Z" fill="#11B5E4"/>
<path d="M184.133 52.6113V64.262L183.192 64.8487V61.2874C183.192 59.3208 181.773 58.6515 180.008 59.7918L167.353 68.0134C165.596 69.1536 164.169 71.6738 164.169 73.6404V77.2017L163.235 77.8297V66.2038L184.133 52.6113Z" fill="white"/>
<path d="M178.382 82.2749C176.853 83.2664 175.61 82.2253 175.61 79.9365V61.2871L171.764 63.6338V82.4319C171.764 84.7124 170.522 87.3896 168.992 88.3564L166.213 90.1577V91.3971L181.147 81.7047V80.4736L178.382 82.2749Z" fill="white"/>
<path d="M194.56 41.0432C194.56 42.1173 195.42 42.4231 196.471 41.7455L225.531 22.8648C226.047 22.5364 226.487 22.0783 226.819 21.5264C227.151 20.9744 227.364 20.3437 227.443 19.6836C227.443 18.6177 226.582 18.3037 225.531 18.9895L196.493 37.8289C195.969 38.1567 195.521 38.6184 195.185 39.1768C194.849 39.7352 194.635 40.3745 194.56 41.0432V41.0432Z" fill="#455A64"/>
<path d="M194.56 52.6112C194.56 53.6854 195.42 53.9994 196.471 53.3136L225.509 34.4742C226.025 34.1458 226.465 33.6877 226.797 33.1357C227.129 32.5838 227.342 31.9531 227.421 31.293C227.421 30.227 226.56 29.9131 225.509 30.5989L196.471 49.4383C195.957 49.7659 195.516 50.2227 195.185 50.7731C194.853 51.3235 194.639 51.9526 194.56 52.6112Z" fill="#455A64"/>
<path d="M194.56 64.2615C194.56 65.3357 195.42 65.6497 196.471 64.9638L225.509 46.1244C226.024 45.7969 226.464 45.34 226.796 44.7896C227.127 44.2392 227.341 43.6101 227.421 42.9515C227.421 41.8773 226.56 41.5633 225.509 42.2491L196.471 61.0885C195.957 61.4161 195.516 61.8729 195.185 62.4233C194.853 62.9737 194.639 63.6028 194.56 64.2615V64.2615Z" fill="#455A64"/>
<path d="M194.56 75.8882C194.56 76.9624 195.42 77.2764 196.471 76.5905L225.509 57.7511C226.024 57.4236 226.464 56.9667 226.796 56.4163C227.127 55.8659 227.341 55.2369 227.421 54.5782C227.421 53.504 226.56 53.19 225.509 53.8758L196.471 72.7152C195.957 73.0428 195.516 73.4996 195.185 74.05C194.853 74.6004 194.639 75.2295 194.56 75.8882V75.8882Z" fill="#455A64"/>
<path d="M158.742 110.774C158.742 111.848 159.595 112.162 160.654 111.476L225.531 69.3351C226.046 69.0085 226.487 68.552 226.819 68.0014C227.151 67.4508 227.364 66.8212 227.443 66.1622C227.443 65.088 226.582 64.7823 225.531 65.4598L160.654 107.601C160.138 107.927 159.697 108.383 159.365 108.934C159.033 109.484 158.82 110.114 158.742 110.774V110.774Z" fill="#455A64"/>
<path d="M158.742 122.399C158.742 123.474 159.595 123.788 160.654 123.102L225.531 81.0106C226.046 80.6821 226.487 80.224 226.819 79.6721C227.151 79.1202 227.364 78.4895 227.443 77.8293C227.443 76.7634 226.582 76.4494 225.531 77.1353L160.654 119.226C160.138 119.553 159.697 120.009 159.365 120.56C159.033 121.11 158.82 121.74 158.742 122.399V122.399Z" fill="#455A64"/>
<path d="M158.742 134.033C158.742 135.099 159.595 135.413 160.654 134.727L225.531 92.6363C226.046 92.3079 226.487 91.8498 226.819 91.2979C227.151 90.7459 227.364 90.1152 227.443 89.4551C227.443 88.3892 226.582 88.0752 225.531 88.761L160.654 130.852C160.137 131.179 159.696 131.637 159.364 132.189C159.032 132.741 158.819 133.373 158.742 134.033V134.033Z" fill="#455A64"/>
<path d="M116.925 257.944L137.83 155.244L254.319 79.6636L233.414 182.371L116.925 257.944Z" fill="#02897A"/>
<path d="M145.426 163.284V239.46L172.309 222.017V145.849L145.426 163.284Z" fill="#02897A"/>
<path opacity="0.2" d="M145.426 163.284V239.46L172.309 222.017V145.849L145.426 163.284Z" fill="black"/>
<path d="M194.611 284.584C192.325 282.667 170.28 263.737 159.074 236.659C147.147 207.871 147.162 174.291 147.162 161.657V161.26L227.075 109.419C227.075 122.168 227.076 155.798 239.054 184.685C250.003 211.127 271.202 229.817 274.562 232.676L194.611 284.584Z" fill="white"/>
<path d="M226.708 110.162C226.708 123.449 226.936 156.434 238.723 184.892C249.304 210.424 269.422 228.784 273.9 232.66L194.633 284.088C191.538 281.468 170.324 262.852 159.412 236.518C147.5 207.813 147.5 174.299 147.5 161.681V161.524L226.678 110.154L226.708 110.162ZM227.414 108.724L146.764 161.053C146.764 172.944 146.544 207.491 158.713 236.865C170.692 265.695 194.56 285.079 194.56 285.079L275.231 232.742C275.231 232.742 251.333 213.357 239.392 184.528C227.215 155.154 227.443 120.606 227.443 108.716L227.414 108.724Z" fill="#02897A"/>
<path opacity="0.7" d="M226.708 110.162C226.708 123.449 226.936 156.434 238.723 184.892C249.304 210.424 269.422 228.784 273.9 232.66L194.633 284.088C191.538 281.468 170.324 262.852 159.412 236.518C147.5 207.813 147.5 174.299 147.5 161.681V161.524L226.678 110.154L226.708 110.162ZM227.414 108.724L146.764 161.053C146.764 172.944 146.544 207.491 158.713 236.865C170.692 265.695 194.56 285.079 194.56 285.079L275.231 232.742C275.231 232.742 251.333 213.357 239.392 184.528C227.215 155.154 227.443 120.606 227.443 108.716L227.414 108.724Z" fill="white"/>
<path d="M218.318 126.274L192.817 142.8C192.306 143.116 191.871 143.566 191.549 144.111C191.226 144.656 191.025 145.281 190.964 145.932C191.001 146.981 191.89 147.279 192.942 146.593L218.45 130.067C218.954 129.754 219.385 129.311 219.706 128.773C220.027 128.236 220.229 127.62 220.296 126.977C220.251 125.886 219.376 125.589 218.318 126.274Z" fill="#455A64"/>
<path d="M218.862 137.553L193.361 154.079C192.857 154.384 192.43 154.827 192.118 155.368C191.807 155.908 191.623 156.528 191.582 157.17C191.663 158.186 192.589 158.459 193.641 157.773L219.149 141.247C219.651 140.943 220.076 140.501 220.383 139.962C220.691 139.423 220.871 138.804 220.906 138.165C220.833 137.14 219.921 136.892 218.862 137.553Z" fill="#455A64"/>
<path d="M219.884 148.519L194.375 165.045C193.324 165.731 192.559 167.094 192.684 168.077C192.809 169.06 193.773 169.317 194.831 168.631L220.339 152.105C221.391 151.419 222.141 150.064 222.009 149.081C221.876 148.097 220.935 147.833 219.884 148.519Z" fill="#455A64"/>
<path d="M221.414 159.153L195.906 175.679C194.854 176.364 194.126 177.703 194.303 178.662C194.479 179.62 195.479 179.835 196.509 179.149L222.009 162.623C223.068 161.937 223.774 160.607 223.598 159.649C223.421 158.69 222.502 158.467 221.414 159.153Z" fill="#455A64"/>
<path d="M223.487 169.432L197.979 185.958C196.927 186.644 196.244 187.949 196.508 188.866C196.773 189.784 197.78 189.99 198.832 189.304L224.34 172.779C225.399 172.093 226.061 170.795 225.811 169.87C225.561 168.945 224.538 168.746 223.487 169.432Z" fill="#455A64"/>
<path d="M226.178 179.339L164.015 219.671C162.964 220.356 162.324 221.629 162.611 222.513C162.897 223.397 163.993 223.562 165.044 222.877L227.208 182.545C228.267 181.86 228.877 180.595 228.59 179.703C228.304 178.811 227.193 178.654 226.178 179.339Z" fill="#455A64"/>
<path d="M229.45 188.8L167.294 229.131C166.235 229.817 165.654 231.057 166.007 231.9C166.36 232.742 167.478 232.875 168.551 232.189L230.715 191.858C231.774 191.172 232.34 189.932 231.987 189.09C231.634 188.247 230.509 188.123 229.45 188.8Z" fill="#455A64"/>
<path d="M233.532 197.815L171.368 238.146C170.309 238.832 169.787 240.039 170.206 240.84C170.625 241.642 171.824 241.724 172.883 241.038L235.002 200.707C236.054 200.03 236.561 198.831 236.142 198.03C235.723 197.228 234.561 197.129 233.532 197.815Z" fill="#455A64"/>
<path d="M238.288 206.342L176.132 246.665C175.074 247.351 174.603 248.533 175.081 249.285C175.559 250.036 176.816 250.111 177.875 249.417L240.031 209.086C241.09 208.4 241.546 207.235 241.068 206.474C240.59 205.714 239.347 205.656 238.288 206.342Z" fill="#455A64"/>
<path d="M243.715 214.448L181.552 254.771C180.501 255.457 180.081 256.605 180.611 257.324C181.14 258.043 182.442 258.076 183.501 257.39L245.664 217.043C246.716 216.357 247.135 215.225 246.591 214.506C246.046 213.787 244.774 213.737 243.715 214.448Z" fill="#455A64"/>
<path d="M249.708 222.166L187.567 262.489C186.508 263.174 186.096 264.298 186.714 264.967C187.331 265.637 188.64 265.653 189.692 264.967L251.855 224.636C252.914 223.95 253.282 222.843 252.693 222.157C252.105 221.471 250.781 221.488 249.708 222.166Z" fill="#455A64"/>
<path d="M256.326 229.545L194.162 269.868C193.111 270.553 192.765 271.652 193.427 272.305C194.089 272.958 195.442 272.933 196.501 272.247L258.613 231.916C259.664 231.23 259.995 230.156 259.348 229.495C258.701 228.834 257.355 228.859 256.326 229.545Z" fill="#455A64"/>
<path d="M183.574 148.824L154.25 167.829C154.573 179.769 155.786 196.989 160.228 214.332L189.559 195.328C185.111 177.984 183.897 160.756 183.574 148.824Z" fill="#02897A"/>
<path opacity="0.8" d="M183.574 148.824L154.25 167.829C154.573 179.769 155.786 196.989 160.228 214.332L189.559 195.328C185.111 177.984 183.897 160.756 183.574 148.824Z" fill="#11B5E4"/>
<path d="M166.206 165.201C166.245 164.431 166.139 163.659 165.893 162.938C165.647 162.218 165.267 161.564 164.779 161.02L154.25 167.845C154.338 171.002 154.485 174.53 154.742 178.331C156.112 178.508 157.497 178.22 158.72 177.505C162.86 175.373 166.206 169.845 166.206 165.201Z" fill="#02897A"/>
<path opacity="0.6" d="M166.206 165.201C166.245 164.431 166.139 163.659 165.893 162.938C165.647 162.218 165.267 161.564 164.779 161.02L154.25 167.845C154.338 171.002 154.485 174.53 154.742 178.331C156.112 178.508 157.497 178.22 158.72 177.505C162.86 175.373 166.206 169.845 166.206 165.201Z" fill="white"/>
<path d="M187.067 183.925C185.111 181.157 181.133 172.605 179.435 168.878C179.368 168.731 179.263 168.609 179.135 168.53C179.006 168.45 178.859 168.415 178.712 168.43C178.566 168.445 178.427 168.509 178.313 168.614C178.199 168.719 178.116 168.86 178.074 169.019C176.237 176.077 175.17 183.361 174.898 190.709C172.449 188.524 170.344 185.893 168.67 182.925C168.598 182.81 168.499 182.72 168.384 182.667C168.269 182.613 168.142 182.597 168.019 182.621C167.897 182.646 167.782 182.709 167.691 182.804C167.599 182.899 167.533 183.021 167.501 183.156C164.295 197.03 165.905 210.68 165.905 210.68L189.56 195.328C188.575 191.494 187.758 187.676 187.067 183.925Z" fill="#02897A"/>
<path opacity="0.6" d="M187.067 183.925C185.111 181.157 181.133 172.605 179.435 168.878C179.368 168.731 179.263 168.609 179.135 168.53C179.006 168.45 178.859 168.415 178.712 168.43C178.566 168.445 178.427 168.509 178.313 168.614C178.199 168.719 178.116 168.86 178.074 169.019C176.237 176.077 175.17 183.361 174.898 190.709C172.449 188.524 170.344 185.893 168.67 182.925C168.598 182.81 168.499 182.72 168.384 182.667C168.269 182.613 168.142 182.597 168.019 182.621C167.897 182.646 167.782 182.709 167.691 182.804C167.599 182.899 167.533 183.021 167.501 183.156C164.295 197.03 165.905 210.68 165.905 210.68L189.56 195.328C188.575 191.494 187.758 187.676 187.067 183.925Z" fill="white"/>
</svg>
