<svg width="315" height="296" viewBox="0 0 315 296" fill="none" xmlns="http://www.w3.org/2000/svg">
<path d="M70.8127 271.453C125.04 302.939 212.962 302.939 267.189 271.453C321.417 239.967 321.424 188.903 267.189 157.417C212.954 125.931 125.04 125.923 70.8127 157.417C16.5852 188.911 16.5852 239.959 70.8127 271.453Z" fill="#EBEBEB"/>
<path d="M283.139 193.331L275.229 188.328C275.229 188.328 273.29 169.892 274.578 155.616C276.394 135.546 288.305 111.423 302.508 117.076C316.71 122.73 295.985 143.217 291.386 160.227C286.787 177.238 283.139 193.331 283.139 193.331Z" fill="#02897A"/>
<path opacity="0.1" d="M283.139 193.331L275.229 188.328C275.229 188.328 273.29 169.892 274.578 155.616C276.394 135.546 288.305 111.423 302.508 117.076C316.71 122.73 295.985 143.217 291.386 160.227C286.787 177.238 283.139 193.331 283.139 193.331Z" fill="black"/>
<path d="M279.023 191.071C278.949 191.072 278.877 191.044 278.821 190.992C278.765 190.94 278.728 190.867 278.716 190.788C276.026 168.274 283.392 134.245 298.261 121.337C298.292 121.31 298.327 121.29 298.365 121.278C298.403 121.266 298.443 121.262 298.482 121.267C298.521 121.271 298.559 121.284 298.593 121.305C298.628 121.326 298.658 121.354 298.683 121.387C298.733 121.456 298.757 121.544 298.748 121.631C298.74 121.718 298.7 121.799 298.637 121.854C283.928 134.629 276.655 168.391 279.322 190.696C279.333 190.783 279.312 190.872 279.263 190.942C279.214 191.013 279.142 191.059 279.061 191.071H279.023Z" fill="white"/>
<path d="M287.362 196.892L281.736 193.348C281.736 193.348 280.778 180.699 286.481 165.331C291.44 151.989 303.757 140.849 309.95 143.184C316.143 145.519 315.99 150.297 312.97 155.308C309.95 160.319 291.578 172.268 287.362 196.892Z" fill="#02897A"/>
<path d="M283.875 197.217C283.835 197.215 283.796 197.204 283.76 197.185C283.724 197.166 283.691 197.139 283.665 197.107C283.639 197.074 283.618 197.036 283.606 196.995C283.593 196.953 283.588 196.91 283.591 196.866C285.446 165.381 300.086 149.896 308.885 147.536C308.964 147.516 309.047 147.53 309.117 147.575C309.187 147.62 309.239 147.693 309.26 147.778C309.279 147.863 309.266 147.953 309.224 148.028C309.183 148.103 309.116 148.157 309.038 148.178C299.771 150.68 285.944 167.44 284.212 196.908C284.209 196.953 284.198 196.996 284.179 197.036C284.161 197.076 284.135 197.111 284.104 197.14C284.072 197.169 284.036 197.191 283.996 197.204C283.957 197.217 283.916 197.221 283.875 197.217Z" fill="white"/>
<path d="M55.3144 195.782C55.3144 195.782 56.3645 177.296 46.4924 164.622C36.6203 151.947 23.7667 151.997 19.5128 154.357C15.2589 156.717 12.4 163.463 19.7197 168.291C27.0395 173.119 42.6064 182.783 45.1971 191.405L55.3144 195.782Z" fill="#02897A"/>
<path opacity="0.1" d="M55.3144 195.782C55.3144 195.782 56.3645 177.296 46.4924 164.622C36.6203 151.947 23.7667 151.997 19.5128 154.357C15.2589 156.717 12.4 163.463 19.7197 168.291C27.0395 173.119 42.6064 182.783 45.1971 191.405L55.3144 195.782Z" fill="black"/>
<path d="M50.6696 191.155C50.5748 191.154 50.4836 191.115 50.4131 191.046C50.3426 190.977 50.2975 190.882 50.2864 190.78C48.2553 170.326 29.4615 158.994 21.9731 157.71C21.9228 157.701 21.8744 157.682 21.8308 157.654C21.7872 157.625 21.7492 157.588 21.719 157.543C21.6887 157.499 21.6668 157.448 21.6545 157.394C21.6422 157.341 21.6398 157.285 21.6474 157.23C21.6549 157.175 21.6723 157.123 21.6985 157.075C21.7248 157.028 21.7593 156.987 21.8003 156.954C21.8412 156.921 21.8877 156.897 21.937 156.884C21.9864 156.87 22.0377 156.868 22.0881 156.876C29.7527 158.185 48.9681 169.775 51.0529 190.688C51.0582 190.743 51.0534 190.798 51.0389 190.851C51.0244 190.904 51.0004 190.953 50.9683 190.996C50.9363 191.038 50.8967 191.074 50.852 191.1C50.8073 191.125 50.7584 191.141 50.7079 191.147L50.6696 191.155Z" fill="white"/>
<path d="M47.0137 186.46C44.538 180.323 41.7404 177.571 33.6925 179.039C25.6446 180.506 26.7943 180.281 16.9452 177.538C12.791 176.387 8.12318 176.204 4.13756 178.155C0.772769 179.823 -1.74124 183.158 1.51624 186.71C5.17995 190.679 10.6449 192.038 14.6918 195.532C15.6099 196.238 16.3397 197.196 16.8073 198.309C17.8726 201.261 15.7419 204.588 16.3627 207.681C16.9835 210.775 19.9728 212.426 22.778 212.626C25.5833 212.826 28.3502 211.909 31.1478 211.559C33.9455 211.208 37.088 211.559 39.0195 213.818C41.0889 216.212 41.1426 220.039 43.0664 222.582C45.9483 226.393 53.0305 227.452 56.8628 225.084L66.8959 218.788C73.5258 209.065 63.0635 201.361 57.5833 193.815C54.9236 190.137 48.5007 190.154 47.0137 186.46Z" fill="#02897A"/>
<path d="M60.6801 212.918C60.6148 212.92 60.5503 212.902 60.4936 212.867C60.4369 212.831 60.3901 212.78 60.3582 212.718C48.9148 192.547 17.7579 182.341 6.73615 181.507C6.63581 181.499 6.54259 181.448 6.47662 181.365C6.41065 181.282 6.37723 181.175 6.38358 181.065C6.39143 180.956 6.43817 180.853 6.51394 180.78C6.58972 180.707 6.68861 180.669 6.7898 180.673C17.9572 181.507 49.413 191.864 61.0097 212.301C61.061 212.397 61.0761 212.51 61.0518 212.618C61.0275 212.725 60.9656 212.818 60.8794 212.876C60.8167 212.907 60.7486 212.921 60.6801 212.918V212.918Z" fill="white"/>
<path d="M24.4335 203.412C24.3738 203.414 24.3147 203.399 24.2613 203.37C24.2079 203.341 24.1618 203.298 24.1269 203.245C24.066 203.157 24.0398 203.046 24.0541 202.936C24.0685 202.827 24.1223 202.728 24.2036 202.662C24.6022 202.337 34.1063 194.749 43.3653 194.598C43.4152 194.597 43.4649 194.607 43.5113 194.627C43.5578 194.647 43.6001 194.677 43.6358 194.715C43.6715 194.753 43.6998 194.799 43.7192 194.849C43.7385 194.899 43.7485 194.953 43.7485 195.007C43.7495 195.062 43.7406 195.116 43.7223 195.167C43.7039 195.218 43.6766 195.265 43.6417 195.304C43.6068 195.344 43.5651 195.375 43.519 195.397C43.4729 195.419 43.4233 195.431 43.3729 195.432C34.3823 195.574 24.7784 203.254 24.6788 203.329C24.6096 203.389 24.522 203.419 24.4335 203.412V203.412Z" fill="white"/>
<path d="M59.9668 220.006C60.0487 221.218 60.3918 222.393 60.9684 223.434C61.5449 224.476 62.3387 225.355 63.2856 226.001L156.281 284.412C157.31 284.979 158.447 285.275 159.6 285.275C160.753 285.275 161.89 284.979 162.919 284.412L290.152 204.488C291.155 203.912 291.994 203.049 292.58 201.993C293.165 200.936 293.475 199.726 293.475 198.492C293.475 197.259 293.165 196.049 292.58 194.992C291.994 193.936 291.155 193.073 290.152 192.497L197.164 134.128C196.136 133.56 194.999 133.265 193.846 133.265C192.692 133.265 191.555 133.56 190.527 134.128L63.2856 214.027C62.3407 214.671 61.5481 215.548 60.9717 216.586C60.3952 217.625 60.051 218.796 59.9668 220.006V220.006Z" fill="#37474F"/>
<path d="M98.3362 191.997L63.2856 214.027C62.2828 214.603 61.4434 215.465 60.8578 216.522C60.2723 217.578 59.9629 218.789 59.9629 220.022C59.9629 221.256 60.2723 222.466 60.8578 223.523C61.4434 224.579 62.2828 225.442 63.2856 226.018L156.281 284.428C157.304 285.009 158.446 285.296 159.6 285.262V191.997H98.3362Z" fill="#263238"/>
<path d="M56.8472 214.144C55.9235 213.459 55.1606 212.547 54.6201 211.483C54.0796 210.418 53.7765 209.23 53.7354 208.015V87.283C53.7971 86.03 54.1298 84.8105 54.7065 83.7238C55.2832 82.6371 56.0876 81.7138 57.0541 81.0292L184.288 1.10539C185.248 0.450029 186.354 0.0917409 187.488 0.069023C188.621 0.046305 189.739 0.360013 190.721 0.976445C191.703 1.59288 192.512 2.48874 193.061 3.56775C193.61 4.64677 193.879 5.86817 193.838 7.10071V127.841C193.775 129.094 193.442 130.313 192.865 131.399C192.288 132.486 191.485 133.409 190.519 134.095L63.2855 214.027C62.2961 214.595 61.1977 214.901 60.0792 214.921C58.9607 214.942 57.8535 214.675 56.8472 214.144V214.144Z" fill="#455A64"/>
<path d="M69.3099 92.8947L54.7087 83.7224C54.1272 84.8046 53.8081 86.0298 53.7812 87.2829V208.015C53.8224 209.23 54.1255 210.418 54.666 211.483C55.2065 212.547 55.9694 213.459 56.8931 214.144C57.8996 214.671 59.006 214.934 60.1231 214.911C61.2401 214.888 62.3365 214.579 63.3238 214.01L77.8406 204.896L69.3099 92.8947Z" fill="#263238"/>
<path d="M59.9668 91.2017V211.925C59.9668 214.227 61.4537 215.161 63.2856 214.01L190.519 134.095C191.485 133.409 192.289 132.485 192.865 131.399C193.442 130.312 193.775 129.093 193.838 127.841V7.10876C193.838 4.80735 192.351 3.87345 190.519 5.02415L63.2856 84.9479C62.319 85.6326 61.5146 86.5559 60.9379 87.6426C60.3612 88.7293 60.0285 89.9487 59.9668 91.2017V91.2017Z" fill="#37474F"/>
<path d="M63.2854 218.196L156.281 276.565C157.309 277.132 158.446 277.428 159.6 277.428C160.753 277.428 161.89 277.132 162.918 276.565L290.152 196.641C291.991 195.49 291.991 193.622 290.152 192.472L197.164 134.103C196.136 133.535 194.999 133.239 193.845 133.239C192.692 133.239 191.555 133.535 190.527 134.103L63.2854 214.027C61.4459 215.161 61.4459 217.028 63.2854 218.196Z" fill="#455A64"/>
<path d="M65.0714 91.6439L188.741 13.9715C189.837 13.2794 190.734 13.8381 190.734 15.2222V119.728C190.695 120.479 190.495 121.21 190.148 121.862C189.802 122.514 189.32 123.068 188.741 123.48L65.0714 201.152C63.9677 201.844 63.0786 201.286 63.0786 199.902V95.3962C63.1154 94.6441 63.3152 93.9122 63.6615 93.2601C64.0078 92.608 64.4909 92.0542 65.0714 91.6439V91.6439Z" fill="white"/>
<path d="M74.0777 215.052L192.183 140.84C192.697 140.557 193.265 140.409 193.842 140.409C194.419 140.409 194.987 140.557 195.501 140.84L201.549 144.634C201.749 144.708 201.923 144.849 202.046 145.036C202.169 145.223 202.235 145.447 202.235 145.677C202.235 145.907 202.169 146.131 202.046 146.318C201.923 146.505 201.749 146.645 201.549 146.719L83.421 220.923C82.9066 221.206 82.3382 221.354 81.7616 221.354C81.185 221.354 80.6165 221.206 80.1022 220.923L74.0777 217.137C73.8775 217.063 73.7037 216.923 73.5805 216.736C73.4573 216.549 73.3911 216.325 73.3911 216.095C73.3911 215.865 73.4573 215.64 73.5805 215.454C73.7037 215.267 73.8775 215.126 74.0777 215.052V215.052Z" fill="#263238"/>
<path d="M89.6522 224.866L207.749 150.654C208.265 150.371 208.835 150.223 209.413 150.223C209.99 150.223 210.56 150.371 211.076 150.654L248.227 174.002C248.427 174.076 248.601 174.216 248.724 174.403C248.847 174.59 248.913 174.814 248.913 175.044C248.913 175.274 248.847 175.499 248.724 175.686C248.601 175.873 248.427 176.013 248.227 176.087L130.26 250.149C129.744 250.432 129.174 250.58 128.596 250.58C128.019 250.58 127.449 250.432 126.933 250.149L89.6522 226.909C89.4616 226.831 89.2975 226.691 89.1817 226.509C89.0659 226.326 89.0039 226.11 89.0039 225.888C89.0039 225.666 89.0659 225.45 89.1817 225.267C89.2975 225.085 89.4616 224.945 89.6522 224.866V224.866Z" fill="#263238"/>
<path d="M195.517 184.008L199.219 181.682C199.372 181.582 199.364 181.423 199.219 181.315L194.942 178.63C194.851 178.579 194.749 178.552 194.647 178.552C194.544 178.552 194.443 178.579 194.352 178.63L190.657 180.957C190.496 181.057 190.504 181.215 190.657 181.323L194.934 184.008C195.024 184.058 195.124 184.084 195.225 184.084C195.327 184.084 195.426 184.058 195.517 184.008ZM188.22 174.836L184.526 177.163C184.365 177.254 184.372 177.421 184.526 177.529L188.802 180.214C188.894 180.266 188.995 180.292 189.098 180.292C189.2 180.292 189.301 180.266 189.393 180.214L193.095 177.888C193.248 177.788 193.24 177.621 193.095 177.521L188.81 174.836C188.719 174.785 188.618 174.758 188.515 174.758C188.412 174.758 188.311 174.785 188.22 174.836ZM176.278 182.341L170.016 186.268C169.863 186.368 169.871 186.535 170.016 186.643L174.293 189.328C174.384 189.38 174.486 189.406 174.588 189.406C174.691 189.406 174.792 189.38 174.883 189.328L181.138 185.401C181.299 185.301 181.283 185.134 181.138 185.034L176.861 182.341C176.771 182.29 176.671 182.263 176.57 182.263C176.468 182.263 176.368 182.29 176.278 182.341ZM182.816 178.23L179.122 180.556C178.961 180.656 178.969 180.823 179.122 180.923L183.399 183.608C183.49 183.659 183.591 183.686 183.694 183.686C183.797 183.686 183.898 183.659 183.989 183.608L187.691 181.282C187.844 181.182 187.837 181.023 187.691 180.915L183.407 178.172C183.315 178.12 183.214 178.094 183.111 178.094C183.009 178.094 182.908 178.12 182.816 178.172V178.23ZM168.307 187.344L164.613 189.662C164.452 189.762 164.467 189.929 164.613 190.037L168.89 192.722C168.98 192.771 169.08 192.797 169.181 192.797C169.282 192.797 169.382 192.771 169.472 192.722L173.174 190.396C173.327 190.296 173.32 190.129 173.174 190.029L168.897 187.344C168.806 187.293 168.705 187.266 168.602 187.266C168.5 187.266 168.398 187.293 168.307 187.344V187.344ZM162.942 190.738L159.247 193.064C159.087 193.156 159.102 193.322 159.247 193.431L163.524 196.116C163.616 196.167 163.717 196.194 163.819 196.194C163.922 196.194 164.023 196.167 164.115 196.116L167.817 193.789C167.97 193.689 167.962 193.523 167.817 193.422L163.494 190.679C163.402 190.628 163.301 190.601 163.199 190.601C163.096 190.601 162.995 190.628 162.904 190.679L162.942 190.738ZM179.766 201.661L183.46 199.334C183.621 199.234 183.606 199.076 183.46 198.968L179.183 196.283C179.093 196.231 178.993 196.205 178.892 196.205C178.791 196.205 178.691 196.231 178.601 196.283L174.899 198.609C174.745 198.709 174.753 198.867 174.899 198.976L179.176 201.661C179.265 201.699 179.36 201.715 179.456 201.708C179.551 201.701 179.644 201.67 179.727 201.619L179.766 201.661ZM174.355 205.055L178.057 202.728C178.21 202.636 178.202 202.47 178.057 202.361L173.78 199.676C173.688 199.625 173.587 199.598 173.485 199.598C173.382 199.598 173.281 199.625 173.19 199.676L169.495 202.003C169.334 202.103 169.35 202.27 169.495 202.37L173.772 205.055C173.86 205.093 173.954 205.109 174.048 205.101C174.143 205.094 174.234 205.064 174.316 205.013L174.355 205.055ZM168.951 208.448L172.653 206.13C172.806 206.03 172.799 205.863 172.653 205.755L168.376 203.07C168.284 203.021 168.183 202.995 168.081 202.995C167.979 202.995 167.878 203.021 167.786 203.07L164.092 205.396C163.931 205.497 163.946 205.663 164.092 205.763L168.361 208.448C168.45 208.486 168.546 208.502 168.641 208.495C168.736 208.488 168.829 208.458 168.913 208.407L168.951 208.448ZM163.586 211.842L167.288 209.524C167.441 209.424 167.433 209.257 167.288 209.149L163.011 206.464C162.92 206.413 162.818 206.386 162.716 206.386C162.613 206.386 162.512 206.413 162.421 206.464L158.726 208.782C158.565 208.882 158.573 209.049 158.726 209.157L163.003 211.842C163.17 211.901 163.352 211.886 163.509 211.8L163.586 211.842ZM190.19 187.461L193.892 185.134C194.045 185.042 194.037 184.876 193.892 184.767L189.615 182.082C189.523 182.033 189.422 182.007 189.32 182.007C189.217 182.007 189.116 182.033 189.025 182.082L185.33 184.409C185.169 184.509 185.177 184.675 185.33 184.776L189.607 187.461C189.69 187.491 189.777 187.503 189.864 187.496C189.951 187.489 190.036 187.463 190.113 187.419L190.19 187.461ZM185.208 198.3L193.455 193.114C193.608 193.022 193.601 192.855 193.455 192.747L183.069 186.226C182.978 186.175 182.877 186.149 182.774 186.149C182.672 186.149 182.57 186.175 182.479 186.226L178.218 188.911C178.057 189.003 178.072 189.17 178.218 189.278L183.721 192.73C183.889 192.839 183.897 193.006 183.721 193.106L180.249 195.157C180.095 195.249 180.103 195.415 180.249 195.524L184.541 198.184C184.629 198.241 184.729 198.275 184.831 198.283C184.934 198.29 185.037 198.27 185.131 198.225L185.208 198.3ZM157.577 194.131L153.882 196.458C153.721 196.558 153.729 196.716 153.882 196.825L158.159 199.51C158.25 199.561 158.352 199.587 158.454 199.587C158.557 199.587 158.658 199.561 158.749 199.51L162.451 197.183C162.605 197.083 162.597 196.925 162.451 196.816L158.174 194.131C158.077 194.057 157.962 194.014 157.843 194.006C157.724 193.999 157.605 194.028 157.5 194.09L157.577 194.131ZM152.211 197.525L148.394 199.851C148.241 199.951 148.249 200.118 148.394 200.218L152.671 202.903C152.762 202.954 152.864 202.981 152.966 202.981C153.069 202.981 153.17 202.954 153.261 202.903L156.963 200.577C157.117 200.485 157.109 200.318 156.963 200.21L152.656 197.5C152.57 197.452 152.475 197.425 152.378 197.422C152.281 197.419 152.185 197.44 152.096 197.483L152.211 197.525ZM125.063 235.548C125.154 235.599 125.255 235.626 125.358 235.626C125.461 235.626 125.562 235.599 125.653 235.548L129.355 233.222C129.509 233.13 129.501 232.963 129.355 232.855L125.063 230.187C124.972 230.135 124.871 230.109 124.768 230.109C124.665 230.109 124.564 230.135 124.473 230.187L120.779 232.513C120.618 232.613 120.625 232.78 120.779 232.88L125.063 235.548ZM108.837 224.642L105.135 226.968C104.982 227.068 104.989 227.226 105.135 227.335L109.412 230.02C109.503 230.071 109.604 230.098 109.707 230.098C109.81 230.098 109.911 230.071 110.002 230.02L113.704 227.693C113.857 227.593 113.85 227.435 113.704 227.327L109.427 224.642C109.339 224.594 109.242 224.57 109.144 224.57C109.045 224.57 108.948 224.594 108.86 224.642H108.837ZM117.536 232.605C117.628 232.656 117.729 232.683 117.831 232.683C117.934 232.683 118.035 232.656 118.127 232.605L121.821 230.278C121.982 230.187 121.967 230.02 121.821 229.911L117.552 227.226C117.46 227.175 117.359 227.149 117.257 227.149C117.154 227.149 117.053 227.175 116.961 227.226L113.259 229.553C113.106 229.653 113.114 229.82 113.259 229.92L117.536 232.605ZM134.606 237.608L138.308 235.281C138.461 235.181 138.453 235.023 138.308 234.914L134.031 232.229C133.939 232.178 133.838 232.152 133.736 232.152C133.633 232.152 133.532 232.178 133.441 232.229L129.746 234.556C129.585 234.648 129.601 234.814 129.746 234.923L134.015 237.608C134.109 237.665 134.214 237.695 134.321 237.696C134.428 237.698 134.534 237.67 134.629 237.616L134.606 237.608ZM128.612 240.943C128.703 240.994 128.804 241.021 128.907 241.021C129.01 241.021 129.111 240.994 129.202 240.943L132.904 238.617C133.057 238.525 133.05 238.358 132.904 238.25L128.627 235.565C128.536 235.514 128.435 235.487 128.332 235.487C128.229 235.487 128.128 235.514 128.037 235.565L124.343 237.891C124.182 237.991 124.189 238.158 124.343 238.258L128.612 240.943ZM114.241 221.198L110.546 223.524C110.385 223.616 110.393 223.783 110.546 223.891L114.823 226.576C114.914 226.627 115.015 226.654 115.118 226.654C115.221 226.654 115.322 226.627 115.413 226.576L119.115 224.25C119.269 224.15 119.261 223.983 119.115 223.883L114.838 221.198C114.746 221.157 114.645 221.14 114.546 221.149C114.446 221.158 114.349 221.191 114.264 221.248L114.241 221.198ZM141.266 204.229L137.564 206.547C137.411 206.647 137.418 206.814 137.564 206.914L141.841 209.607C141.933 209.657 142.034 209.682 142.136 209.682C142.238 209.682 142.339 209.657 142.431 209.607L146.126 207.289C146.287 207.189 146.279 207.022 146.126 206.914L141.849 204.229C141.758 204.191 141.661 204.176 141.564 204.184C141.467 204.193 141.373 204.225 141.289 204.279L141.266 204.229ZM119.698 217.854L116.003 220.172C115.842 220.272 115.85 220.439 116.003 220.547L120.28 223.232C120.372 223.282 120.473 223.307 120.575 223.307C120.678 223.307 120.779 223.282 120.87 223.232L124.573 220.906C124.726 220.806 124.718 220.639 124.573 220.539L120.296 217.846C120.202 217.796 120.1 217.771 119.996 217.773C119.892 217.774 119.79 217.802 119.698 217.854V217.854ZM146.723 200.877L142.991 203.187C142.837 203.287 142.845 203.454 142.991 203.554L147.268 206.239C147.359 206.29 147.46 206.317 147.563 206.317C147.665 206.317 147.767 206.29 147.858 206.239L151.552 203.921C151.713 203.821 151.705 203.654 151.552 203.545L147.291 200.894C147.199 200.84 147.097 200.811 146.993 200.808C146.89 200.805 146.787 200.829 146.693 200.877H146.723ZM135.916 207.673L132.214 209.991C132.061 210.091 132.069 210.258 132.214 210.366L136.491 213.051C136.583 213.1 136.684 213.126 136.786 213.126C136.889 213.126 136.989 213.1 137.081 213.051L140.776 210.733C140.937 210.633 140.921 210.466 140.776 210.358L136.506 207.673C136.411 207.618 136.304 207.589 136.196 207.589C136.088 207.589 135.981 207.618 135.886 207.673H135.916ZM130.505 211.067L126.811 213.385C126.65 213.485 126.665 213.651 126.811 213.76L131.087 216.445C131.179 216.494 131.28 216.52 131.383 216.52C131.485 216.52 131.586 216.494 131.678 216.445L135.372 214.127C135.525 214.027 135.518 213.86 135.372 213.752L131.095 211.067C130.999 211.012 130.893 210.983 130.785 210.983C130.677 210.983 130.57 211.012 130.474 211.067H130.505ZM125.063 214.46L121.369 216.778C121.208 216.878 121.223 217.045 121.369 217.154L125.638 219.839C125.729 219.89 125.83 219.916 125.933 219.916C126.036 219.916 126.137 219.89 126.228 219.839L129.93 217.521C130.083 217.42 130.076 217.254 129.93 217.145L125.653 214.46C125.561 214.411 125.46 214.385 125.358 214.385C125.256 214.385 125.155 214.411 125.063 214.46ZM152.694 218.63L156.389 216.311C156.55 216.211 156.542 216.045 156.389 215.936L152.104 213.193C152.012 213.144 151.911 213.118 151.809 213.118C151.707 213.118 151.606 213.144 151.514 213.193L147.812 215.511C147.658 215.611 147.666 215.778 147.812 215.886L152.089 218.571C152.182 218.629 152.286 218.661 152.393 218.664C152.5 218.667 152.606 218.641 152.702 218.588L152.694 218.63ZM200.177 167.332L196.475 169.658C196.321 169.758 196.329 169.916 196.475 170.025L200.752 172.71C200.843 172.761 200.944 172.788 201.047 172.788C201.149 172.788 201.251 172.761 201.342 172.71L205.036 170.383C205.197 170.283 205.189 170.125 205.036 170.017L200.759 167.332C200.669 167.282 200.569 167.256 200.468 167.256C200.367 167.256 200.267 167.282 200.177 167.332ZM193.631 171.442L189.937 173.769C189.776 173.861 189.791 174.027 189.937 174.136L194.206 176.821C194.298 176.87 194.399 176.896 194.501 176.896C194.603 176.896 194.704 176.87 194.796 176.821L198.498 174.494C198.652 174.394 198.644 174.227 198.498 174.127L194.221 171.442C194.132 171.383 194.031 171.349 193.927 171.341C193.823 171.334 193.719 171.354 193.624 171.401L193.631 171.442ZM205.58 163.938L201.886 166.264C201.725 166.356 201.733 166.523 201.886 166.631L206.163 169.316C206.254 169.367 206.355 169.394 206.458 169.394C206.561 169.394 206.662 169.367 206.753 169.316L210.455 166.99C210.608 166.89 210.601 166.723 210.455 166.623L206.178 163.938C206.085 163.871 205.977 163.833 205.865 163.825C205.754 163.818 205.642 163.842 205.542 163.896L205.58 163.938ZM177.604 195.324L181.306 192.997C181.46 192.897 181.452 192.73 181.306 192.63L177.029 189.945C176.938 189.894 176.837 189.867 176.734 189.867C176.632 189.867 176.531 189.894 176.439 189.945L172.745 192.272C172.584 192.364 172.592 192.53 172.745 192.639L177.022 195.324C177.114 195.366 177.214 195.384 177.314 195.377C177.414 195.369 177.51 195.337 177.597 195.282L177.604 195.324ZM211.574 160.561C211.483 160.51 211.382 160.483 211.279 160.483C211.176 160.483 211.075 160.51 210.984 160.561L207.29 162.887C207.129 162.979 207.136 163.146 207.29 163.254L211.566 165.939C211.658 165.988 211.759 166.014 211.862 166.014C211.964 166.014 212.065 165.988 212.157 165.939L215.859 163.613C216.012 163.513 216.004 163.346 215.859 163.246L211.574 160.561ZM158.105 215.194L161.807 212.876C161.961 212.776 161.953 212.609 161.807 212.501L157.508 209.858C157.416 209.806 157.315 209.78 157.213 209.78C157.11 209.78 157.009 209.806 156.917 209.858L153.223 212.176C153.062 212.276 153.07 212.442 153.223 212.551L157.5 215.236C157.597 215.281 157.702 215.301 157.807 215.294C157.913 215.287 158.015 215.253 158.105 215.194V215.194ZM224.382 173.569L228.084 171.242C228.237 171.151 228.229 170.984 228.084 170.875L223.784 168.165C223.693 168.114 223.592 168.088 223.489 168.088C223.386 168.088 223.285 168.114 223.194 168.165L219.499 170.492C219.338 170.592 219.346 170.759 219.499 170.859L223.776 173.544C223.868 173.602 223.971 173.634 224.076 173.639C224.182 173.643 224.287 173.619 224.382 173.569V173.569ZM212.885 173.127L216.587 170.8C216.74 170.7 216.732 170.542 216.587 170.433L212.31 167.748C212.219 167.697 212.118 167.671 212.015 167.671C211.912 167.671 211.811 167.697 211.72 167.748L208.025 170.075C207.864 170.175 207.872 170.333 208.025 170.442L212.302 173.127C212.388 173.18 212.483 173.212 212.581 173.219C212.68 173.227 212.778 173.209 212.869 173.168L212.885 173.127ZM217.691 164.355C217.599 164.304 217.498 164.277 217.395 164.277C217.293 164.277 217.192 164.304 217.1 164.355L213.406 166.681C213.245 166.773 213.253 166.94 213.406 167.048L217.683 169.733C217.774 169.784 217.875 169.811 217.978 169.811C218.081 169.811 218.182 169.784 218.273 169.733L221.975 167.407C222.128 167.307 222.121 167.14 221.975 167.04L217.691 164.355ZM218.833 163.638L229.211 170.158C229.302 170.209 229.403 170.236 229.506 170.236C229.608 170.236 229.709 170.209 229.801 170.158L233.503 167.832C233.656 167.732 233.648 167.573 233.503 167.465L223.117 160.944C223.026 160.893 222.925 160.866 222.822 160.866C222.719 160.866 222.618 160.893 222.527 160.944L218.833 163.271C218.633 163.362 218.649 163.529 218.817 163.638H218.833ZM206.293 171.142L202.591 173.469C202.438 173.569 202.446 173.735 202.591 173.836L206.868 176.52C206.959 176.572 207.06 176.598 207.163 176.598C207.266 176.598 207.367 176.572 207.458 176.52L211.153 174.194C211.314 174.102 211.306 173.936 211.153 173.827L206.876 171.142C206.789 171.093 206.692 171.065 206.594 171.062C206.496 171.059 206.398 171.081 206.309 171.126L206.293 171.142ZM165.617 196.691L161.899 199.018C161.746 199.118 161.754 199.284 161.899 199.384L166.176 202.069C166.268 202.121 166.369 202.147 166.471 202.147C166.574 202.147 166.675 202.121 166.767 202.069L170.461 199.743C170.622 199.651 170.614 199.485 170.461 199.376L166.184 196.691C166.095 196.639 165.996 196.61 165.895 196.607C165.793 196.604 165.693 196.627 165.601 196.674L165.617 196.691ZM218.403 176.962C218.495 177.014 218.596 177.04 218.698 177.04C218.801 177.04 218.902 177.014 218.994 176.962L222.696 174.636C222.849 174.544 222.841 174.378 222.696 174.269L218.419 171.584C218.327 171.535 218.226 171.509 218.124 171.509C218.021 171.509 217.92 171.535 217.829 171.584L214.134 173.911C213.973 174.011 213.981 174.177 214.134 174.277L218.403 176.962ZM171.02 193.297L167.326 195.624C167.165 195.724 167.173 195.882 167.326 195.991L171.603 198.676C171.694 198.727 171.795 198.754 171.898 198.754C172.001 198.754 172.102 198.727 172.193 198.676L175.895 196.349C176.048 196.249 176.041 196.091 175.895 195.982L171.618 193.297C171.525 193.239 171.421 193.207 171.314 193.205C171.207 193.202 171.1 193.228 171.005 193.281L171.02 193.297ZM130.505 232.171C130.596 232.222 130.697 232.249 130.8 232.249C130.903 232.249 131.004 232.222 131.095 232.171L134.797 229.845C134.95 229.745 134.943 229.586 134.797 229.478L130.52 226.793C130.429 226.742 130.328 226.715 130.225 226.715C130.123 226.715 130.021 226.742 129.93 226.793L126.236 229.119C126.075 229.219 126.09 229.378 126.236 229.486L130.505 232.171ZM122.38 223.833L118.678 226.159C118.525 226.259 118.533 226.418 118.678 226.526L122.955 229.211C123.047 229.262 123.148 229.289 123.25 229.289C123.353 229.289 123.454 229.262 123.545 229.211L127.24 226.885C127.401 226.785 127.393 226.626 127.24 226.518L122.963 223.833C122.871 223.78 122.768 223.753 122.664 223.753C122.56 223.753 122.457 223.78 122.365 223.833H122.38ZM136.506 228.777L140.201 226.451C140.354 226.351 140.346 226.184 140.201 226.084L135.924 223.399C135.833 223.348 135.731 223.321 135.629 223.321C135.526 223.321 135.425 223.348 135.334 223.399L131.601 225.701C131.448 225.792 131.455 225.959 131.601 226.067L135.878 228.752C135.97 228.812 136.075 228.845 136.182 228.849C136.289 228.854 136.395 228.829 136.491 228.777H136.506ZM141.91 225.384L145.604 223.057C145.765 222.957 145.75 222.79 145.604 222.69L141.335 220.005C141.244 219.954 141.143 219.927 141.04 219.927C140.937 219.927 140.836 219.954 140.745 220.005L137.043 222.323C136.89 222.424 136.897 222.59 137.043 222.699L141.32 225.384C141.414 225.436 141.517 225.463 141.623 225.463C141.728 225.463 141.832 225.436 141.925 225.384H141.91ZM147.275 221.982L150.97 219.664C151.131 219.563 151.123 219.397 150.97 219.297L146.693 216.603C146.601 216.554 146.5 216.528 146.398 216.528C146.295 216.528 146.194 216.554 146.103 216.603L142.401 218.921C142.247 219.021 142.255 219.188 142.401 219.297L146.677 221.982C146.772 222.037 146.877 222.066 146.984 222.066C147.091 222.066 147.196 222.037 147.291 221.982H147.275ZM127.746 220.439L124.044 222.765C123.89 222.857 123.898 223.024 124.044 223.132L128.321 225.817C128.412 225.868 128.513 225.895 128.616 225.895C128.718 225.895 128.819 225.868 128.911 225.817L132.613 223.491C132.766 223.391 132.758 223.224 132.613 223.124L128.336 220.439C128.248 220.392 128.151 220.367 128.052 220.367C127.954 220.367 127.857 220.392 127.769 220.439H127.746ZM133.149 217.045L129.455 219.363C129.294 219.463 129.302 219.63 129.455 219.739L133.732 222.424C133.824 222.473 133.925 222.498 134.027 222.498C134.129 222.498 134.23 222.473 134.322 222.424L138.093 220.114C138.246 220.014 138.239 219.847 138.093 219.747L133.816 217.062C133.72 216.998 133.609 216.963 133.496 216.96C133.383 216.957 133.271 216.986 133.172 217.045H133.149ZM154.771 203.47L151.123 205.788C150.97 205.888 150.977 206.055 151.123 206.164L155.4 208.849C155.492 208.898 155.593 208.923 155.695 208.923C155.797 208.923 155.898 208.898 155.99 208.849L159.684 206.53C159.845 206.43 159.83 206.264 159.684 206.155L155.415 203.47C155.32 203.413 155.213 203.384 155.105 203.384C154.996 203.384 154.889 203.413 154.794 203.47H154.771ZM149.36 206.864L145.666 209.182C145.512 209.282 145.52 209.449 145.666 209.557L149.943 212.242C150.034 212.292 150.135 212.317 150.238 212.317C150.34 212.317 150.441 212.292 150.533 212.242L154.227 209.924C154.388 209.824 154.373 209.657 154.227 209.549L149.95 206.864C149.862 206.819 149.765 206.795 149.667 206.795C149.569 206.795 149.472 206.819 149.383 206.864H149.36ZM160.175 200.068L156.488 202.395C156.335 202.495 156.343 202.661 156.488 202.762L160.765 205.455C160.857 205.504 160.958 205.53 161.06 205.53C161.163 205.53 161.263 205.504 161.355 205.455L165.05 203.128C165.211 203.037 165.203 202.87 165.05 202.762L160.773 200.077C160.684 200.029 160.586 200.003 160.486 200.002C160.387 200 160.288 200.023 160.198 200.068H160.175ZM138.553 213.651L134.859 215.97C134.698 216.07 134.705 216.236 134.859 216.345L139.135 219.03C139.227 219.079 139.328 219.105 139.43 219.105C139.533 219.105 139.634 219.079 139.726 219.03L143.428 216.703C143.581 216.603 143.573 216.437 143.428 216.336L139.151 213.643C139.06 213.598 138.962 213.575 138.862 213.576C138.763 213.578 138.665 213.604 138.576 213.651H138.553ZM143.956 210.258L140.262 212.576C140.101 212.676 140.116 212.843 140.262 212.951L144.539 215.636C144.629 215.687 144.729 215.714 144.83 215.714C144.932 215.714 145.032 215.687 145.121 215.636L148.824 213.318C148.977 213.218 148.969 213.051 148.824 212.943L144.547 210.258C144.458 210.212 144.361 210.189 144.263 210.189C144.165 210.189 144.068 210.212 143.979 210.258H143.956ZM140.017 234.222L143.711 231.896C143.864 231.796 143.857 231.629 143.711 231.529L139.434 228.844C139.343 228.793 139.242 228.766 139.139 228.766C139.037 228.766 138.935 228.793 138.844 228.844L135.15 231.171C134.989 231.262 135.004 231.429 135.15 231.537L139.427 234.222C139.521 234.278 139.626 234.307 139.733 234.307C139.84 234.307 139.946 234.278 140.04 234.222H140.017ZM108.323 230.704L104.047 228.019C103.955 227.967 103.854 227.941 103.751 227.941C103.649 227.941 103.548 227.967 103.456 228.019L99.7696 230.362C99.6164 230.462 99.624 230.62 99.7696 230.729L104.047 233.414C104.138 233.465 104.239 233.491 104.342 233.491C104.444 233.491 104.545 233.465 104.637 233.414L108.331 231.087C108.5 231.012 108.492 230.845 108.323 230.704ZM116.417 233.288L112.14 230.604C112.05 230.554 111.95 230.529 111.849 230.529C111.748 230.529 111.648 230.554 111.558 230.604L105.901 234.197C105.748 234.297 105.756 234.464 105.901 234.564L110.178 237.249C110.27 237.3 110.371 237.327 110.473 237.327C110.576 237.327 110.677 237.3 110.768 237.249L116.456 233.68C116.632 233.597 116.586 233.43 116.417 233.322V233.288ZM101.762 225.509L97.4702 222.857C97.379 222.806 97.2778 222.779 97.1752 222.779C97.0725 222.779 96.9713 222.806 96.8801 222.857L92.3426 225.701C92.1893 225.801 92.197 225.967 92.3426 226.076L96.6195 228.761C96.7107 228.812 96.8119 228.839 96.9146 228.839C97.0172 228.839 97.1184 228.812 97.2097 228.761L101.755 225.909C101.939 225.817 101.931 225.65 101.762 225.542V225.509ZM105.25 223.316C105.341 223.367 105.442 223.394 105.545 223.394C105.648 223.394 105.749 223.367 105.84 223.316L109.534 220.989C109.695 220.898 109.688 220.731 109.534 220.622L105.258 217.937C105.166 217.886 105.065 217.86 104.962 217.86C104.86 217.86 104.759 217.886 104.667 217.937L100.965 220.264C100.812 220.364 100.82 220.531 100.965 220.631L105.25 223.316ZM123.952 236.232L119.698 233.58C119.606 233.531 119.505 233.505 119.403 233.505C119.3 233.505 119.199 233.531 119.108 233.58L111.995 238.05C111.841 238.15 111.849 238.317 111.995 238.417L116.272 241.11C116.363 241.159 116.464 241.185 116.567 241.185C116.669 241.185 116.77 241.159 116.862 241.11L123.975 236.641C124.128 236.54 124.12 236.374 123.952 236.265V236.232ZM127.5 241.677L123.224 239.042C123.132 238.991 123.031 238.964 122.928 238.964C122.826 238.964 122.725 238.991 122.633 239.042L118.081 241.902C117.927 242.002 117.935 242.169 118.081 242.277L122.357 244.962C122.449 245.012 122.55 245.037 122.653 245.037C122.755 245.037 122.856 245.012 122.948 244.962L127.5 242.102C127.677 241.985 127.669 241.819 127.5 241.71V241.677ZM145.436 198.075C145.527 198.127 145.628 198.153 145.731 198.153C145.833 198.153 145.935 198.127 146.026 198.075L149.72 195.757C149.881 195.657 149.866 195.49 149.72 195.382L145.443 192.697C145.352 192.648 145.251 192.622 145.148 192.622C145.046 192.622 144.945 192.648 144.853 192.697L141.159 195.057C141.006 195.157 141.013 195.324 141.159 195.424L145.436 198.075ZM134.621 204.871C134.713 204.92 134.814 204.946 134.916 204.946C135.018 204.946 135.119 204.92 135.211 204.871L138.913 202.553C139.066 202.453 139.059 202.286 138.913 202.178L134.636 199.493C134.544 199.444 134.443 199.418 134.341 199.418C134.239 199.418 134.138 199.444 134.046 199.493L130.352 201.811C130.191 201.911 130.206 202.078 130.352 202.186L134.621 204.871ZM110.653 219.955C110.745 220.007 110.846 220.033 110.949 220.033C111.051 220.033 111.152 220.007 111.244 219.955L114.938 217.629C115.099 217.529 115.091 217.37 114.938 217.262L110.661 214.577C110.57 214.526 110.469 214.499 110.366 214.499C110.263 214.499 110.162 214.526 110.071 214.577L106.369 216.903C106.216 217.004 106.223 217.162 106.369 217.27L110.653 219.955ZM140.032 201.519C140.123 201.568 140.222 201.594 140.323 201.594C140.425 201.594 140.524 201.568 140.615 201.519L144.317 199.201C144.47 199.101 144.462 198.934 144.317 198.826L140.04 196.141C139.949 196.09 139.847 196.063 139.745 196.063C139.642 196.063 139.541 196.09 139.45 196.141L135.755 198.459C135.594 198.559 135.61 198.726 135.755 198.834L140.032 201.519ZM129.217 208.307C129.309 208.358 129.41 208.384 129.512 208.384C129.615 208.384 129.716 208.358 129.807 208.307L133.51 205.988C133.663 205.888 133.655 205.722 133.51 205.613L129.233 202.928C129.141 202.879 129.04 202.853 128.938 202.853C128.835 202.853 128.734 202.879 128.642 202.928L124.948 205.246C124.787 205.346 124.795 205.513 124.948 205.622L129.217 208.307ZM130.467 242.152C130.375 242.103 130.274 242.077 130.172 242.077C130.069 242.077 129.968 242.103 129.876 242.152L124.189 245.713C124.036 245.813 124.044 245.98 124.189 246.088L128.466 248.773C128.557 248.824 128.659 248.851 128.761 248.851C128.864 248.851 128.965 248.824 129.056 248.773L134.744 245.204C134.904 245.104 134.889 244.937 134.744 244.829L130.467 242.152ZM121.461 213.193C121.552 213.242 121.653 213.268 121.756 213.268C121.858 213.268 121.959 213.242 122.051 213.193L125.753 210.866C125.906 210.766 125.898 210.6 125.753 210.5L121.476 207.815C121.385 207.763 121.284 207.737 121.181 207.737C121.078 207.737 120.977 207.763 120.886 207.815L117.191 210.141C117.03 210.233 117.038 210.4 117.191 210.508L121.461 213.193ZM116.057 216.528C116.148 216.579 116.249 216.606 116.352 216.606C116.455 216.606 116.556 216.579 116.647 216.528L120.349 214.202C120.503 214.102 120.495 213.935 120.349 213.835L116.072 211.15C115.981 211.099 115.88 211.072 115.777 211.072C115.675 211.072 115.573 211.099 115.482 211.15L111.788 213.476C111.627 213.568 111.635 213.735 111.788 213.843L116.057 216.528ZM230.598 179.255C230.507 179.204 230.405 179.178 230.303 179.178C230.2 179.178 230.099 179.204 230.008 179.255L220.871 184.959C220.718 185.059 220.726 185.226 220.871 185.334L225.148 188.019C225.24 188.068 225.341 188.094 225.443 188.094C225.546 188.094 225.647 188.068 225.738 188.019L234.89 182.341C235.051 182.241 235.043 182.074 234.89 181.965L230.598 179.255ZM218.649 186.76C218.557 186.709 218.456 186.682 218.354 186.682C218.251 186.682 218.15 186.709 218.058 186.76L214.364 189.078C214.203 189.178 214.211 189.345 214.364 189.453L218.641 192.138C218.733 192.188 218.834 192.213 218.936 192.213C219.038 192.213 219.139 192.188 219.231 192.138L222.933 189.82C223.087 189.72 223.079 189.553 222.933 189.445L218.649 186.76ZM145.443 230.829L149.138 228.502C149.299 228.402 149.283 228.235 149.138 228.135L144.869 225.442C144.777 225.393 144.676 225.367 144.573 225.367C144.471 225.367 144.37 225.393 144.278 225.442L140.576 227.76C140.423 227.86 140.431 228.027 140.576 228.135L144.853 230.82C144.944 230.871 145.045 230.898 145.147 230.899C145.25 230.901 145.351 230.877 145.443 230.829V230.829ZM207.841 193.548C207.75 193.498 207.649 193.473 207.546 193.473C207.444 193.473 207.343 193.498 207.251 193.548L203.549 195.866C203.396 195.966 203.404 196.132 203.549 196.241L207.826 198.926C207.917 198.977 208.019 199.004 208.121 199.004C208.224 199.004 208.325 198.977 208.416 198.926L212.111 196.608C212.272 196.508 212.264 196.341 212.111 196.233L207.841 193.548ZM236.001 175.862C235.91 175.813 235.809 175.787 235.706 175.787C235.604 175.787 235.503 175.813 235.411 175.862L231.717 178.172C231.556 178.272 231.564 178.438 231.717 178.538L235.994 181.232C236.086 181.281 236.187 181.307 236.289 181.307C236.391 181.307 236.492 181.281 236.584 181.232L240.286 178.914C240.439 178.814 240.432 178.647 240.286 178.538L236.001 175.862ZM245.682 175.153L235.296 168.632C235.205 168.581 235.104 168.554 235.001 168.554C234.899 168.554 234.797 168.581 234.706 168.632L231.012 170.959C230.851 171.059 230.858 171.226 231.012 171.326L241.397 177.846C241.489 177.897 241.59 177.924 241.692 177.924C241.795 177.924 241.896 177.897 241.988 177.846L245.69 175.52C245.858 175.428 245.851 175.261 245.682 175.153ZM187.645 206.239C187.554 206.187 187.453 206.161 187.35 206.161C187.247 206.161 187.146 206.187 187.055 206.239L182.502 209.099C182.349 209.199 182.356 209.366 182.502 209.466L186.779 212.151C186.87 212.202 186.971 212.228 187.074 212.228C187.177 212.228 187.278 212.202 187.369 212.151L191.922 209.291C192.075 209.19 192.068 209.024 191.922 208.924L187.645 206.239ZM201.296 197.658C201.205 197.607 201.103 197.581 201.001 197.581C200.898 197.581 200.797 197.607 200.706 197.658L195.018 201.227C194.865 201.327 194.873 201.494 195.018 201.594L199.295 204.287C199.387 204.337 199.488 204.362 199.59 204.362C199.693 204.362 199.794 204.337 199.886 204.287L205.573 200.719C205.726 200.619 205.718 200.452 205.573 200.343L201.296 197.658ZM175.129 214.093C175.037 214.044 174.936 214.019 174.834 214.019C174.731 214.019 174.63 214.044 174.538 214.093L144.102 233.205C143.949 233.305 143.956 233.472 144.102 233.58L148.379 236.265C148.471 236.315 148.572 236.34 148.674 236.34C148.776 236.34 148.877 236.315 148.969 236.265L179.406 217.145C179.559 217.045 179.551 216.878 179.406 216.77L175.129 214.093ZM142.983 234.289C142.892 234.238 142.791 234.211 142.688 234.211C142.585 234.211 142.484 234.238 142.393 234.289L137.848 237.149C137.687 237.249 137.694 237.416 137.848 237.516L142.125 240.201C142.216 240.252 142.317 240.279 142.42 240.279C142.522 240.279 142.624 240.252 142.715 240.201L147.291 237.374C147.444 237.274 147.436 237.107 147.291 237.007L142.983 234.289ZM181.383 210.166C181.291 210.117 181.19 210.091 181.088 210.091C180.986 210.091 180.885 210.117 180.793 210.166L176.248 213.026C176.087 213.126 176.094 213.293 176.248 213.401L180.525 216.086C180.616 216.136 180.717 216.161 180.82 216.161C180.922 216.161 181.023 216.136 181.115 216.086L185.668 213.226C185.829 213.135 185.813 212.968 185.668 212.859L181.383 210.166ZM136.729 238.208C136.637 238.159 136.536 238.133 136.434 238.133C136.331 238.133 136.23 238.159 136.138 238.208L131.586 241.068C131.432 241.168 131.44 241.335 131.586 241.443L135.863 244.128C135.954 244.178 136.055 244.203 136.158 244.203C136.26 244.203 136.361 244.178 136.453 244.128L140.998 241.277C141.159 241.177 141.151 241.01 140.998 240.901L136.729 238.208ZM193.899 202.295C193.808 202.245 193.707 202.22 193.604 202.22C193.502 202.22 193.401 202.245 193.309 202.295L188.764 205.146C188.603 205.246 188.611 205.413 188.764 205.522L193.041 208.206C193.133 208.256 193.234 208.281 193.336 208.281C193.438 208.281 193.539 208.256 193.631 208.206L198.184 205.346C198.345 205.246 198.33 205.08 198.184 204.971L193.899 202.295ZM213.245 190.145C213.154 190.094 213.053 190.068 212.95 190.068C212.847 190.068 212.746 190.094 212.655 190.145L208.961 192.464C208.8 192.564 208.807 192.73 208.961 192.839L213.237 195.524C213.329 195.573 213.43 195.599 213.532 195.599C213.635 195.599 213.736 195.573 213.828 195.524L217.53 193.206C217.683 193.106 217.675 192.939 217.53 192.83L213.245 190.145ZM225.087 180.79L228.781 178.472C228.942 178.372 228.935 178.205 228.781 178.096L224.504 175.411C224.413 175.362 224.312 175.337 224.209 175.337C224.107 175.337 224.006 175.362 223.914 175.411L220.212 177.738C220.059 177.838 220.067 178.005 220.212 178.105L224.489 180.798C224.582 180.849 224.684 180.875 224.788 180.875C224.892 180.875 224.994 180.849 225.087 180.798V180.79ZM200.943 180.673L204.645 178.347C204.799 178.247 204.791 178.08 204.645 177.98L200.368 175.295C200.277 175.244 200.176 175.217 200.073 175.217C199.971 175.217 199.869 175.244 199.778 175.295L196.084 177.621C195.923 177.721 195.938 177.88 196.084 177.988L200.353 180.673C200.444 180.724 200.546 180.751 200.648 180.751C200.751 180.751 200.852 180.724 200.943 180.673ZM188.68 203.712L199.487 196.925C199.64 196.825 199.633 196.658 199.487 196.549L195.21 193.864C195.118 193.815 195.017 193.79 194.915 193.79C194.813 193.79 194.712 193.815 194.62 193.864L183.813 200.66C183.659 200.752 183.667 200.919 183.813 201.027L188.09 203.712C188.184 203.757 188.287 203.777 188.389 203.769C188.492 203.762 188.592 203.728 188.68 203.67V203.712ZM219.093 184.225C219.185 184.274 219.286 184.3 219.388 184.3C219.491 184.3 219.592 184.274 219.683 184.225L223.378 181.907C223.539 181.807 223.531 181.64 223.378 181.532L219.101 178.847C219.01 178.796 218.908 178.769 218.806 178.769C218.703 178.769 218.602 178.796 218.511 178.847L214.809 181.165C214.655 181.265 214.663 181.432 214.809 181.54L219.093 184.225ZM213.575 180.398L217.269 178.08C217.43 177.98 217.422 177.813 217.269 177.705L212.992 175.02C212.9 174.97 212.799 174.945 212.697 174.945C212.595 174.945 212.494 174.97 212.402 175.02L208.7 177.346C208.547 177.446 208.554 177.613 208.7 177.713L212.977 180.406C213.073 180.449 213.177 180.467 213.281 180.458C213.385 180.45 213.486 180.415 213.575 180.356V180.398ZM183.276 207.081L186.971 204.754C187.132 204.654 187.116 204.496 186.971 204.388L182.694 201.703C182.602 201.651 182.501 201.625 182.399 201.625C182.296 201.625 182.195 201.651 182.104 201.703L178.386 204.021C178.225 204.121 178.241 204.279 178.386 204.388L182.663 207.072C182.762 207.134 182.875 207.166 182.99 207.165C183.104 207.163 183.216 207.128 183.315 207.064L183.276 207.081ZM207.144 191.705C207.236 191.754 207.337 191.78 207.439 191.78C207.541 191.78 207.642 191.754 207.734 191.705L211.436 189.387C211.589 189.287 211.582 189.12 211.436 189.011L207.159 186.326C207.068 186.277 206.967 186.252 206.864 186.252C206.762 186.252 206.661 186.277 206.569 186.326L202.875 188.653C202.714 188.753 202.721 188.92 202.875 189.02L207.144 191.705ZM156.251 224.033L159.945 221.715C160.106 221.615 160.098 221.448 159.945 221.34L155.668 218.655C155.576 218.605 155.475 218.58 155.373 218.58C155.271 218.58 155.17 218.605 155.078 218.655L151.376 220.973C151.223 221.073 151.23 221.239 151.376 221.348L155.653 224.033C155.746 224.083 155.848 224.11 155.952 224.11C156.055 224.11 156.158 224.083 156.251 224.033V224.033ZM161.654 220.639L165.356 218.321C165.51 218.221 165.502 218.054 165.356 217.946L161.087 215.261C160.996 215.21 160.895 215.183 160.792 215.183C160.689 215.183 160.588 215.21 160.497 215.261L156.795 217.579C156.641 217.679 156.649 217.846 156.795 217.954L161.072 220.639C161.162 220.687 161.262 220.712 161.363 220.712C161.464 220.712 161.563 220.687 161.654 220.639ZM150.847 227.427L154.541 225.108C154.702 225.008 154.695 224.842 154.541 224.733L150.272 222.048C150.18 221.999 150.079 221.973 149.977 221.973C149.875 221.973 149.774 221.999 149.682 222.048L145.98 224.366C145.827 224.466 145.834 224.633 145.98 224.742L150.257 227.427C150.348 227.478 150.449 227.504 150.552 227.504C150.655 227.504 150.756 227.478 150.847 227.427V227.427ZM172.461 213.852L176.163 211.534C176.317 211.433 176.309 211.267 176.163 211.158L171.887 208.473C171.795 208.424 171.694 208.398 171.591 208.398C171.489 208.398 171.388 208.424 171.296 208.473L167.602 210.8C167.441 210.9 167.449 211.067 167.602 211.167L171.879 213.852C171.969 213.901 172.069 213.927 172.17 213.927C172.271 213.927 172.371 213.901 172.461 213.852V213.852ZM167.096 217.245L170.798 214.927C170.951 214.827 170.944 214.66 170.798 214.552L166.452 211.867C166.361 211.816 166.26 211.789 166.157 211.789C166.055 211.789 165.953 211.816 165.862 211.867L162.168 214.185C162.007 214.285 162.014 214.452 162.168 214.552L166.445 217.245C166.539 217.299 166.644 217.327 166.751 217.327C166.858 217.327 166.963 217.299 167.058 217.245H167.096ZM177.903 210.458L181.605 208.131C181.759 208.04 181.751 207.873 181.605 207.765L177.328 205.08C177.237 205.028 177.136 205.002 177.033 205.002C176.931 205.002 176.83 205.028 176.738 205.08L172.983 207.356C172.822 207.456 172.837 207.623 172.983 207.723L177.252 210.408C177.342 210.471 177.445 210.509 177.553 210.518C177.66 210.526 177.767 210.506 177.865 210.458H177.903ZM202.63 160.236C202.721 160.287 202.822 160.313 202.925 160.313C203.027 160.313 203.128 160.287 203.22 160.236L206.922 157.909C207.075 157.817 207.067 157.651 206.922 157.542L205.787 156.825C205.696 156.776 205.595 156.75 205.492 156.75C205.39 156.75 205.289 156.776 205.197 156.825L201.495 159.143C201.342 159.243 201.349 159.41 201.495 159.518L202.63 160.236ZM176.041 178.914C176.132 178.965 176.233 178.992 176.336 178.992C176.439 178.992 176.54 178.965 176.631 178.914L180.325 176.596C180.486 176.495 180.479 176.329 180.325 176.22L176.048 173.535C175.957 173.486 175.856 173.46 175.753 173.46C175.651 173.46 175.55 173.486 175.458 173.535L171.756 175.853C171.603 175.953 171.611 176.12 171.756 176.229L176.041 178.914ZM186.848 172.126C186.94 172.175 187.041 172.201 187.143 172.201C187.245 172.201 187.346 172.175 187.438 172.126L191.14 169.808C191.293 169.708 191.286 169.541 191.14 169.433L186.863 166.748C186.772 166.697 186.671 166.67 186.568 166.67C186.466 166.67 186.364 166.697 186.273 166.748L182.548 169.066C182.387 169.166 182.395 169.333 182.548 169.441L186.848 172.126ZM169.441 183.058C169.533 183.107 169.634 183.133 169.737 183.133C169.839 183.133 169.94 183.107 170.032 183.058L173.726 180.731C173.887 180.631 173.879 180.465 173.726 180.365L169.449 177.671C169.357 177.622 169.256 177.596 169.154 177.596C169.052 177.596 168.951 177.622 168.859 177.671L165.157 179.989C165.004 180.089 165.011 180.256 165.157 180.365L169.441 183.058ZM181.444 175.553C181.536 175.603 181.637 175.628 181.739 175.628C181.842 175.628 181.943 175.603 182.035 175.553L185.737 173.235C185.89 173.135 185.882 172.968 185.737 172.86L181.46 170.175C181.368 170.126 181.267 170.1 181.165 170.1C181.062 170.1 180.961 170.126 180.87 170.175L177.175 172.493C177.014 172.593 177.022 172.76 177.175 172.868L181.444 175.553ZM158.596 189.845C158.687 189.896 158.788 189.923 158.891 189.923C158.994 189.923 159.095 189.896 159.186 189.845L162.881 187.519C163.041 187.419 163.026 187.252 162.881 187.152L158.611 184.467C158.52 184.416 158.419 184.389 158.316 184.389C158.214 184.389 158.112 184.416 158.021 184.467L154.319 186.793C154.166 186.885 154.173 187.052 154.319 187.16L158.596 189.845ZM164 186.452C164.091 186.501 164.192 186.526 164.295 186.526C164.397 186.526 164.498 186.501 164.59 186.452L168.284 184.125C168.445 184.025 168.437 183.858 168.284 183.758L164.015 181.073C163.924 181.022 163.822 180.995 163.72 180.995C163.617 180.995 163.516 181.022 163.425 181.073L159.723 183.4C159.569 183.491 159.577 183.658 159.723 183.767L164 186.452ZM191.784 167.031C191.876 167.081 191.977 167.106 192.079 167.106C192.181 167.106 192.282 167.081 192.374 167.031L196.076 164.713C196.229 164.613 196.222 164.446 196.076 164.338L194.934 163.621C194.842 163.572 194.741 163.546 194.639 163.546C194.537 163.546 194.436 163.572 194.344 163.621L190.65 165.939C190.489 166.039 190.504 166.206 190.65 166.314L191.784 167.031ZM208.002 156.842C208.092 156.893 208.192 156.92 208.294 156.92C208.395 156.92 208.495 156.893 208.585 156.842L212.287 154.515C212.44 154.415 212.433 154.257 212.287 154.149L211.153 153.431C211.061 153.38 210.96 153.354 210.858 153.354C210.755 153.354 210.654 153.38 210.562 153.431L206.86 155.749C206.707 155.85 206.715 156.016 206.86 156.125L208.002 156.842ZM216.978 162.487C217.07 162.536 217.17 162.562 217.273 162.562C217.375 162.562 217.476 162.536 217.568 162.487L221.27 160.161C221.423 160.06 221.416 159.894 221.27 159.794L216.993 157.1C216.901 157.051 216.8 157.025 216.698 157.025C216.596 157.025 216.495 157.051 216.403 157.1L212.709 159.418C212.548 159.518 212.563 159.685 212.709 159.794L216.978 162.487ZM230.491 177.404L234.193 175.078C234.346 174.986 234.338 174.819 234.193 174.711L229.916 172.026C229.824 171.977 229.723 171.951 229.621 171.951C229.518 171.951 229.417 171.977 229.326 172.026L225.631 174.353C225.47 174.453 225.478 174.619 225.631 174.719L229.908 177.404C229.998 177.454 230.098 177.48 230.199 177.48C230.301 177.48 230.4 177.454 230.491 177.404V177.404ZM197.188 163.638C197.279 163.687 197.38 163.713 197.483 163.713C197.585 163.713 197.686 163.687 197.778 163.638L201.48 161.32C201.633 161.22 201.625 161.053 201.48 160.944L200.338 160.227C200.246 160.178 200.145 160.152 200.043 160.152C199.94 160.152 199.839 160.178 199.748 160.227L196.053 162.545C195.9 162.645 195.908 162.812 196.053 162.921L197.188 163.638ZM153.192 193.239C153.284 193.29 153.385 193.317 153.487 193.317C153.59 193.317 153.691 193.29 153.783 193.239L157.477 190.913C157.63 190.813 157.623 190.654 157.477 190.546L153.2 187.861C153.109 187.81 153.008 187.783 152.905 187.783C152.802 187.783 152.701 187.81 152.61 187.861L148.915 190.187C148.762 190.287 148.77 190.446 148.915 190.554L153.192 193.239Z" fill="#455A64"/>
<path d="M175.167 229.786L215.636 204.363L240.547 220.005L200.069 245.429L175.167 229.786Z" fill="#263238"/>
<path d="M85.2066 101.675L205.818 25.9206C208.171 24.4364 210.102 25.6538 210.102 28.614V130.234C210.064 130.986 209.863 131.717 209.517 132.369C209.171 133.021 208.689 133.575 208.11 133.987L84.4401 211.667C83.344 212.351 82.4473 211.792 82.4473 210.417V106.87C82.5023 105.83 82.7806 104.818 83.2598 103.916C83.7389 103.014 84.4057 102.247 85.2066 101.675Z" fill="#F5F5F5"/>
<path d="M210.141 31.0498V28.6149C210.141 25.6548 208.209 24.4457 205.856 25.9216L85.2066 101.676C84.4057 102.248 83.7389 103.015 83.2598 103.917C82.7806 104.819 82.5023 105.831 82.4473 106.871V111.232L210.141 31.0498Z" fill="#F03E3D"/>
<path d="M192.144 36.5937C191.713 36.8986 191.355 37.3097 191.098 37.7936C190.841 38.2775 190.692 38.8206 190.665 39.3787C190.665 40.4043 191.324 40.8213 192.144 40.3043C192.573 40.0003 192.93 39.5903 193.185 39.1078C193.441 38.6252 193.589 38.0838 193.615 37.5276C193.615 36.502 192.956 36.085 192.144 36.5937Z" fill="white"/>
<path d="M197.999 32.9162C197.57 33.222 197.213 33.6335 196.958 34.1174C196.702 34.6012 196.555 35.1439 196.528 35.7012C196.528 36.7268 197.187 37.1354 197.999 36.6268C198.43 36.3219 198.788 35.9108 199.045 35.4269C199.303 34.9429 199.451 34.3998 199.479 33.8417C199.479 32.8161 198.82 32.3992 197.999 32.9162Z" fill="white"/>
<path d="M203.863 29.2309C203.434 29.5372 203.076 29.9487 202.819 30.4323C202.563 30.9159 202.413 31.4583 202.384 32.0159C202.384 33.0416 203.051 33.4585 203.863 32.9415C204.293 32.6379 204.651 32.2282 204.908 31.7458C205.165 31.2633 205.314 30.7216 205.342 30.1648C205.342 29.1392 204.676 28.7222 203.863 29.2309Z" fill="white"/>
<path d="M112.231 160.984L107.538 158.036L96.0445 179.693L100.737 182.64L112.231 160.984Z" fill="#37474F"/>
<path d="M112.24 160.977L109.896 159.505L98.4034 181.162L100.747 182.634L112.24 160.977Z" fill="#263238"/>
<path d="M83.4436 221.982C81.3051 226.026 71.1801 219.605 73.3109 215.62L99.7157 170.817C99.7868 170.696 99.8982 170.609 100.027 170.575C100.155 170.541 100.291 170.562 100.405 170.634L105.709 173.969C105.824 174.039 105.908 174.155 105.945 174.292C105.983 174.429 105.969 174.576 105.909 174.703L83.4436 221.982Z" fill="#11B5E4"/>
<path opacity="0.1" d="M83.4438 221.982L105.901 174.703C105.962 174.576 105.975 174.429 105.938 174.292C105.901 174.155 105.816 174.04 105.702 173.969L103.288 172.452L77.542 222.24C79.8874 223.499 82.478 223.808 83.4438 221.982Z" fill="black"/>
<path d="M161.087 116.509C161.087 116.167 161.087 115.834 161.041 115.5C160.995 115.167 161.041 114.841 160.972 114.516C160.903 114.191 160.972 114.083 160.911 113.866C160.857 113.299 160.78 112.74 160.696 112.198C160.658 111.956 160.619 111.706 160.573 111.464C160.527 111.222 160.489 111.006 160.443 110.781C160.313 110.163 160.175 109.563 160.014 108.988C159.929 108.713 159.853 108.437 159.769 108.154C159.752 108.114 159.74 108.072 159.73 108.029C159.638 107.762 159.554 107.504 159.462 107.253C159.37 107.003 159.247 106.67 159.125 106.42C159.002 106.169 158.956 106.011 158.856 105.811C158.801 105.661 158.734 105.516 158.657 105.377C158.581 105.202 158.496 105.027 158.404 104.86C158.312 104.693 158.366 104.777 158.343 104.744C158.32 104.71 158.182 104.443 158.098 104.293C158.013 104.143 157.983 104.101 157.929 104.01C157.536 103.337 157.095 102.698 156.611 102.1L156.365 101.8L156.158 101.567C156.074 101.467 155.982 101.375 155.89 101.275C155.649 100.999 155.394 100.741 155.124 100.499C154.993 100.374 154.855 100.257 154.718 100.149L154.296 99.8155C154.077 99.6408 153.849 99.4794 153.614 99.3319L153.43 99.2068H153.392L142.531 92.386L142.469 92.3443C140.386 91.0801 138.033 90.4331 135.648 90.4681C132.091 90.4681 128.075 91.7356 123.821 94.4039C109.212 103.576 97.3628 125.906 97.3628 144.268C97.3628 153.44 100.306 159.86 105.066 162.879H105.112L115.98 169.691H116.026L116.157 169.767C116.36 169.898 116.57 170.017 116.785 170.125C117.046 170.267 117.314 170.392 117.552 170.509C117.789 170.625 118.034 170.717 118.28 170.8L118.671 170.926C118.807 170.983 118.948 171.027 119.092 171.059C119.233 171.106 119.377 171.145 119.521 171.176C119.624 171.209 119.729 171.234 119.836 171.251C120.02 171.292 120.219 171.334 120.41 171.359C120.454 171.367 120.498 171.367 120.541 171.359C120.771 171.404 121.001 171.437 121.231 171.459C125.17 171.91 129.754 170.7 134.659 167.624C149.276 158.451 161.125 136.113 161.125 117.76C161.087 117.376 161.087 116.943 161.087 116.509ZM143.358 103.526C143.933 105.808 144.214 108.165 144.194 110.53C144.194 126.724 133.302 147.219 120.433 155.341C118.552 156.558 116.521 157.476 114.401 158.068C113.831 155.782 113.55 153.423 113.566 151.055C113.566 134.862 124.457 114.366 137.326 106.244C139.201 105.032 141.224 104.117 143.335 103.526H143.358Z" fill="#11B5E4"/>
<path opacity="0.1" d="M115.536 169.458L104.981 162.838C100.222 159.811 97.2783 153.374 97.2783 144.235C97.2783 136.046 99.639 127.074 103.54 118.836L114.409 125.64C110.5 133.878 108.147 142.851 108.147 151.039C108.147 160.011 110.952 166.357 115.536 169.458Z" fill="black"/>
<path opacity="0.4" d="M161.087 116.509C161.087 116.167 161.087 115.834 161.041 115.5C160.995 115.167 161.041 114.841 160.972 114.516C160.903 114.191 160.972 114.083 160.911 113.866C160.857 113.299 160.78 112.74 160.696 112.198C160.658 111.956 160.62 111.706 160.574 111.464C160.528 111.223 160.489 111.006 160.443 110.781C160.313 110.164 160.175 109.563 160.014 108.988C159.93 108.713 159.853 108.438 159.769 108.154C159.753 108.114 159.74 108.072 159.73 108.029C159.638 107.762 159.554 107.504 159.462 107.254C159.37 107.003 159.248 106.67 159.125 106.42C159.002 106.17 158.956 106.011 158.857 105.811C158.801 105.661 158.734 105.516 158.657 105.377C158.581 105.202 158.496 105.027 158.404 104.86C158.312 104.694 158.366 104.777 158.343 104.744C158.32 104.71 158.182 104.443 158.098 104.293C158.014 104.143 157.983 104.102 157.929 104.01C157.536 103.337 157.096 102.698 156.611 102.1L156.366 101.8L156.159 101.567C156.074 101.467 155.982 101.375 155.89 101.275C155.65 101 155.394 100.741 155.124 100.499C154.994 100.374 154.856 100.258 154.718 100.149L154.296 99.8156C154.077 99.6409 153.849 99.4795 153.614 99.332C148.808 96.1551 142.117 96.5303 134.675 101.191C120.058 110.364 108.208 132.694 108.208 151.055C108.208 160.353 111.274 166.848 116.141 169.8C116.345 169.931 116.555 170.051 116.77 170.159C117.031 170.3 117.299 170.425 117.536 170.542C117.774 170.659 118.019 170.751 118.265 170.834L118.655 170.959C118.792 171.016 118.933 171.061 119.077 171.092C119.218 171.139 119.361 171.178 119.506 171.209C119.609 171.242 119.714 171.267 119.82 171.284C120.004 171.326 120.204 171.368 120.395 171.393C120.438 171.401 120.482 171.401 120.526 171.393C120.756 171.437 120.986 171.47 121.215 171.493C125.155 171.943 129.739 170.734 134.644 167.657C149.26 158.485 161.11 136.146 161.11 117.793C161.087 117.376 161.087 116.943 161.087 116.509ZM131.961 162.629C128.681 164.689 125.523 165.773 122.825 165.773C117.759 165.773 115.429 162.012 114.394 158.068C113.823 155.783 113.542 153.423 113.558 151.055C113.558 134.862 124.45 114.366 137.319 106.245C139.2 105.03 141.231 104.115 143.351 103.526C144.354 103.256 145.383 103.113 146.417 103.101C154.794 103.101 155.691 113.391 155.691 117.818C155.722 133.978 144.83 154.532 131.961 162.629Z" fill="white"/>
<path opacity="0.1" d="M155.721 117.818C155.721 134.011 144.838 154.507 131.961 162.629C128.68 164.688 125.523 165.772 122.825 165.772C117.758 165.772 115.428 162.012 114.394 158.068C116.513 157.476 118.544 156.558 120.426 155.341C133.318 147.244 144.186 126.724 144.186 110.53C144.206 108.165 143.925 105.808 143.351 103.526C144.354 103.256 145.383 103.113 146.417 103.101C154.817 103.126 155.721 113.39 155.721 117.818Z" fill="black"/>
<path opacity="0.7" d="M151.123 114.991C151.123 131.185 140.239 151.681 127.362 159.802C124.082 161.862 120.924 162.946 118.226 162.946C117.689 162.947 117.153 162.9 116.624 162.804C115.588 161.412 114.833 159.798 114.409 158.068C113.838 155.783 113.557 153.423 113.573 151.055C113.573 134.862 124.465 114.366 137.334 106.244C139.215 105.03 141.246 104.115 143.366 103.526C144.369 103.256 145.398 103.113 146.432 103.101C146.971 103.099 147.509 103.147 148.041 103.243C150.693 106.636 151.123 112.081 151.123 114.991Z" fill="white"/>
<path d="M169.648 98.1232V116.584C169.648 117.969 170.545 118.527 171.641 117.835L282.855 47.9843C283.434 47.5725 283.916 47.0183 284.263 46.3665C284.609 45.7147 284.809 44.9836 284.848 44.232V25.7457C284.848 24.3615 283.951 23.8028 282.855 24.4949L171.641 94.3459C171.059 94.7606 170.575 95.3189 170.229 95.9752C169.883 96.6315 169.684 97.3674 169.648 98.1232Z" fill="#E6E6E6"/>
<path d="M171.641 94.3457L191.446 81.9131V105.377L171.641 117.81C170.545 118.502 169.648 117.943 169.648 116.559V98.123C169.684 97.3672 169.883 96.6313 170.229 95.975C170.575 95.3186 171.059 94.7604 171.641 94.3457Z" fill="#BA68C8"/>
<path d="M184.893 92.1531C183.644 91.3693 182.065 91.4943 180.448 92.5116C178.911 93.5828 177.632 95.0389 176.719 96.758C175.806 98.4771 175.284 100.409 175.198 102.393C175.144 103.678 175.516 104.942 176.248 105.953L174.117 109.922C173.978 110.206 173.944 110.537 174.023 110.847C174.101 111.157 174.286 111.423 174.539 111.59C174.714 111.697 174.912 111.755 175.113 111.757C175.315 111.757 175.514 111.699 175.689 111.589C175.864 111.48 176.009 111.322 176.11 111.131L178.218 107.162C178.445 107.209 178.676 107.234 178.907 107.237C179.848 107.219 180.768 106.931 181.575 106.403C183.109 105.33 184.385 103.873 185.297 102.154C186.209 100.435 186.73 98.5046 186.817 96.5224C186.84 94.4962 186.15 92.9452 184.893 92.1531ZM180.448 104.244C180.179 104.559 179.819 104.765 179.428 104.829C179.037 104.893 178.638 104.811 178.295 104.596C177.952 104.381 177.687 104.047 177.542 103.646C177.397 103.246 177.381 102.804 177.497 102.393C177.586 100.85 178.003 99.3504 178.715 98.0122C179.426 96.674 180.413 95.5333 181.598 94.6796C182.057 94.3611 182.586 94.18 183.131 94.1543C183.355 94.1451 183.578 94.2027 183.774 94.3211C184.063 94.5894 184.284 94.9326 184.418 95.3189C184.552 95.7052 184.595 96.122 184.541 96.5307C184.452 98.0729 184.037 99.5718 183.327 100.91C182.617 102.248 181.631 103.389 180.448 104.244Z" fill="white"/>
</svg>
