<svg width="315" height="295" viewBox="0 0 315 295" fill="none" xmlns="http://www.w3.org/2000/svg">
<path d="M46.1299 270.66C107.64 303.113 207.36 303.113 268.87 270.66C330.38 238.206 330.373 185.591 268.87 153.137C207.367 120.683 107.64 120.683 46.1299 153.137C-15.3803 185.591 -15.3729 238.206 46.1299 270.66Z" fill="#F5F5F5"/>
<path d="M269.714 190.67C281.703 190.67 291.421 185.993 291.421 180.223C291.421 174.453 281.703 169.776 269.714 169.776C257.726 169.776 248.007 174.453 248.007 180.223C248.007 185.993 257.726 190.67 269.714 190.67Z" fill="#E6E6E6"/>
<path d="M45.7481 251.789C56.7393 251.789 65.6495 247.5 65.6495 242.21C65.6495 236.919 56.7393 232.63 45.7481 232.63C34.7568 232.63 25.8467 236.919 25.8467 242.21C25.8467 247.5 34.7568 251.789 45.7481 251.789Z" fill="#E6E6E6"/>
<path d="M193.507 270.207C204.944 270.207 214.216 265.742 214.216 260.234C214.216 254.727 204.944 250.262 193.507 250.262C182.07 250.262 172.798 254.727 172.798 260.234C172.798 265.742 182.07 270.207 193.507 270.207Z" fill="#E6E6E6"/>
<path d="M90.7192 222.486C102.156 222.486 111.428 218.021 111.428 212.514C111.428 207.006 102.156 202.541 90.7192 202.541C79.282 202.541 70.0103 207.006 70.0103 212.514C70.0103 218.021 79.282 222.486 90.7192 222.486Z" fill="#E6E6E6"/>
<path d="M212.587 155.837C213.093 149.69 227.041 126.63 231.306 123.056C235.571 119.483 243.103 110.451 239.859 105.321C236.614 100.19 227.078 102.473 218.122 118.467C211.177 130.871 209.019 158.306 209.019 158.306L212.587 155.837Z" fill="#02897A"/>
<path d="M210.678 155.258H210.619C210.572 155.251 210.526 155.234 210.485 155.209C210.444 155.184 210.409 155.15 210.381 155.111C210.353 155.072 210.333 155.027 210.322 154.98C210.311 154.932 210.31 154.883 210.318 154.836C214.261 129.092 222.637 113.032 235.924 105.736C236.01 105.689 236.11 105.678 236.204 105.706C236.25 105.719 236.293 105.742 236.331 105.773C236.369 105.803 236.4 105.841 236.423 105.884C236.446 105.927 236.461 105.974 236.466 106.022C236.471 106.071 236.467 106.12 236.453 106.167C236.439 106.214 236.417 106.257 236.386 106.295C236.356 106.333 236.319 106.365 236.276 106.388C223.202 113.566 214.951 129.455 211.038 154.954C211.023 155.039 210.978 155.116 210.912 155.172C210.847 155.227 210.764 155.258 210.678 155.258V155.258Z" fill="white"/>
<path d="M213.989 126.015C213.989 126.015 225.184 106.47 234.455 97.5203C239.594 92.5599 242.751 89.3642 242.472 85.6123C242.266 82.7651 239.924 81.2451 234.888 82.4982C224.853 84.9895 219.472 95.2588 216.007 106.759C213.548 114.856 213.989 126.015 213.989 126.015Z" fill="#37474F"/>
<path opacity="0.2" d="M213.989 126.015C213.989 126.015 225.184 106.47 234.455 97.5203C239.594 92.5599 242.751 89.3642 242.472 85.6123C242.266 82.7651 239.924 81.2451 234.888 82.4982C224.853 84.9895 219.472 95.2588 216.007 106.759C213.548 114.856 213.989 126.015 213.989 126.015Z" fill="#00FFE3"/>
<path d="M215.288 122.804H215.237C215.14 122.788 215.053 122.734 214.995 122.653C214.938 122.573 214.914 122.472 214.929 122.374C218.915 96.9716 234.067 87.4067 238.618 85.0785C238.705 85.0345 238.805 85.027 238.897 85.0576C238.989 85.0881 239.066 85.1543 239.11 85.2416C239.132 85.2848 239.146 85.3321 239.15 85.3807C239.154 85.4293 239.149 85.4783 239.134 85.5247C239.118 85.571 239.094 85.6138 239.062 85.6506C239.031 85.6873 238.992 85.7172 238.948 85.7384C234.478 88.0295 219.59 97.4313 215.655 122.493C215.641 122.581 215.596 122.66 215.529 122.717C215.462 122.775 215.376 122.805 215.288 122.804V122.804Z" fill="white"/>
<path d="M276.696 68.3211L274.273 63.724L276.219 58.0444V54.5669L270.258 58.0444V61.5218L272.82 66.0151C272.86 66.0854 272.922 66.1402 272.996 66.1708L276.696 68.3211Z" fill="#11B5E4"/>
<path opacity="0.1" d="M276.696 68.3211L274.273 63.724L276.219 58.0444V54.5669L270.258 58.0444V61.5218L272.82 66.0151C272.86 66.0854 272.922 66.1402 272.996 66.1708L276.696 68.3211Z" fill="black"/>
<path d="M262.865 46.7374L279.279 37.0983C279.834 36.8166 280.446 36.6699 281.067 36.6699C281.688 36.6699 282.3 36.8166 282.854 37.0983L284.323 37.951C284.845 38.2924 285.279 38.754 285.591 39.2979C285.902 39.8418 286.081 40.4526 286.114 41.08V54.5153C286.08 55.1423 285.9 55.7524 285.588 56.296C285.277 56.8397 284.844 57.3016 284.323 57.6443L267.894 67.2834C267.339 67.5651 266.727 67.7118 266.106 67.7118C265.485 67.7118 264.873 67.5651 264.318 67.2834L262.85 66.4307C262.33 66.088 261.897 65.6259 261.587 65.0822C261.277 64.5384 261.099 63.9283 261.066 63.3017V49.8515C261.104 49.2266 261.287 48.6193 261.599 48.0784C261.911 47.5376 262.345 47.0783 262.865 46.7374V46.7374Z" fill="#11B5E4"/>
<path opacity="0.3" d="M262.865 46.7374L279.279 37.0983C279.834 36.8166 280.446 36.6699 281.067 36.6699C281.688 36.6699 282.3 36.8166 282.854 37.0983L284.323 37.951C284.845 38.2924 285.279 38.754 285.591 39.2979C285.902 39.8418 286.081 40.4526 286.114 41.08V54.5153C286.08 55.1423 285.9 55.7524 285.588 56.296C285.277 56.8397 284.844 57.3016 284.323 57.6443L267.894 67.2834C267.339 67.5651 266.727 67.7118 266.106 67.7118C265.485 67.7118 264.873 67.5651 264.318 67.2834L262.85 66.4307C262.33 66.088 261.897 65.6259 261.587 65.0822C261.277 64.5384 261.099 63.9283 261.066 63.3017V49.8515C261.104 49.2266 261.287 48.6193 261.599 48.0784C261.911 47.5376 262.345 47.0783 262.865 46.7374V46.7374Z" fill="white"/>
<path d="M267.901 67.2684C266.91 67.8393 266.11 67.3796 266.11 66.2229V52.7876C266.144 52.1606 266.324 51.5505 266.635 51.0069C266.946 50.4632 267.38 50.0013 267.901 49.6586L284.33 40.0196C285.321 39.4412 286.121 39.9083 286.121 41.065V54.5004C286.087 55.1274 285.907 55.7374 285.596 56.2811C285.285 56.8247 284.851 57.2866 284.33 57.6293" fill="#11B5E4"/>
<path d="M261.082 63.287C261.114 63.9136 261.292 64.5237 261.602 65.0675C261.912 65.6112 262.345 66.0733 262.865 66.416L264.334 67.2687C264.837 67.5241 265.389 67.6687 265.952 67.693C266.515 67.7173 267.077 67.6207 267.6 67.4096C266.763 67.7358 266.132 67.2539 266.132 66.2232V52.7879C266.156 52.159 266.338 51.5466 266.661 51.0083L261.625 48.0425C261.305 48.5814 261.125 49.1938 261.104 49.822L261.082 63.287Z" fill="#11B5E4"/>
<path opacity="0.1" d="M261.082 63.287C261.114 63.9136 261.292 64.5237 261.602 65.0675C261.912 65.6112 262.345 66.0733 262.865 66.416L264.334 67.2687C264.837 67.5241 265.389 67.6687 265.952 67.693C266.515 67.7173 267.077 67.6207 267.6 67.4096C266.763 67.7358 266.132 67.2539 266.132 66.2232V52.7879C266.156 52.159 266.338 51.5466 266.661 51.0083L261.625 48.0425C261.305 48.5814 261.125 49.1938 261.104 49.822L261.082 63.287Z" fill="black"/>
<path d="M273.994 63.702L276.556 68.1879C276.594 68.251 276.649 68.3021 276.714 68.3353C276.78 68.3685 276.853 68.3824 276.926 68.3754C276.998 68.3684 277.068 68.3409 277.126 68.2959C277.184 68.2509 277.228 68.1904 277.254 68.1211L279.962 60.2245V56.7471L273.994 60.2245V63.702Z" fill="#11B5E4"/>
<path d="M276.123 59.1124L274.288 58.6231C272.54 58.1559 270.456 57.1401 270.456 54.8638C270.544 53.9364 270.847 53.043 271.34 52.2559C271.834 51.4688 272.504 50.8102 273.297 50.3335C273.556 50.1458 273.861 50.032 274.179 50.004C274.497 49.9759 274.817 50.0346 275.105 50.174C275.393 50.3134 275.639 50.5284 275.817 50.7964C275.994 51.0644 276.098 51.3757 276.115 51.6978C276.299 50.2149 277.488 47.8867 278.934 47.0414C280.505 46.1294 281.775 46.6707 281.775 48.2574C281.775 50.5263 279.698 53.9815 277.951 56.4876L276.123 59.1124Z" fill="white"/>
<path d="M33.4299 103.608L49.859 94.006C50.4126 93.7209 51.0251 93.5723 51.6465 93.5723C52.2679 93.5723 52.8805 93.7209 53.4341 94.006L54.9023 94.8513C55.4214 95.1953 55.8534 95.6577 56.1632 96.2012C56.4731 96.7447 56.6522 97.3541 56.6861 97.9803V111.416C56.6522 112.042 56.4731 112.651 56.1632 113.195C55.8534 113.738 55.4214 114.201 54.9023 114.545L38.4952 124.147C37.9403 124.432 37.3265 124.58 36.7039 124.58C36.0814 124.58 35.4676 124.432 34.9128 124.147L33.4446 123.301C32.917 122.957 32.4781 122.491 32.164 121.942C31.85 121.393 31.6699 120.776 31.6387 120.143V106.737C31.6711 106.11 31.8504 105.499 32.1617 104.955C32.4731 104.411 32.9077 103.949 33.4299 103.608V103.608Z" fill="#FF7800"/>
<path opacity="0.3" d="M33.4299 103.608L49.859 94.006C50.4126 93.7209 51.0251 93.5723 51.6465 93.5723C52.2679 93.5723 52.8805 93.7209 53.4341 94.006L54.9023 94.8513C55.4214 95.1953 55.8534 95.6577 56.1632 96.2012C56.4731 96.7447 56.6522 97.3541 56.6861 97.9803V111.416C56.6522 112.042 56.4731 112.651 56.1632 113.195C55.8534 113.738 55.4214 114.201 54.9023 114.545L38.4952 124.147C37.9403 124.432 37.3265 124.58 36.7039 124.58C36.0814 124.58 35.4676 124.432 34.9128 124.147L33.4446 123.301C32.917 122.957 32.4781 122.491 32.164 121.942C31.85 121.393 31.6699 120.776 31.6387 120.143V106.737C31.6711 106.11 31.8504 105.499 32.1617 104.955C32.4731 104.411 32.9077 103.949 33.4299 103.608V103.608Z" fill="white"/>
<path d="M47.253 125.207L44.8305 120.602L46.7832 114.923V111.445L40.8149 114.952V118.43L43.3843 122.879C43.4231 122.947 43.4821 123.002 43.5531 123.034V123.034L47.253 125.207Z" fill="#FF7800"/>
<path opacity="0.1" d="M47.253 125.207L44.8305 120.602L46.7832 114.923V111.445L40.8149 114.952V118.43L43.3843 122.879C43.4231 122.947 43.4821 123.002 43.5531 123.034V123.034L47.253 125.207Z" fill="black"/>
<path d="M38.4953 124.147C37.5043 124.725 36.7041 124.258 36.7041 123.101V109.666C36.7383 109.04 36.9183 108.431 37.2296 107.888C37.5408 107.346 37.9745 106.885 38.4953 106.544L54.9318 96.9051C55.9155 96.3342 56.7156 96.8013 56.7156 97.9506V111.386C56.6817 112.012 56.5026 112.622 56.1927 113.165C55.8829 113.709 55.451 114.171 54.9318 114.515" fill="#FF7800"/>
<path d="M31.6387 120.142C31.6729 120.769 31.8528 121.379 32.1641 121.923C32.4753 122.467 32.9089 122.928 33.4299 123.271L34.8981 124.116C35.4031 124.371 35.9555 124.516 36.5195 124.542C37.0835 124.567 37.6466 124.473 38.1721 124.265C37.3279 124.584 36.7039 124.102 36.7039 123.071V109.665C36.7255 109.037 36.9049 108.425 37.2252 107.886L32.1966 104.957C31.8737 105.495 31.6918 106.108 31.668 106.737L31.6387 120.142Z" fill="#FF7800"/>
<path opacity="0.1" d="M31.6387 120.142C31.6729 120.769 31.8528 121.379 32.1641 121.923C32.4753 122.467 32.9089 122.928 33.4299 123.271L34.8981 124.116C35.4031 124.371 35.9555 124.516 36.5195 124.542C37.0835 124.567 37.6466 124.473 38.1721 124.265C37.3279 124.584 36.7039 124.102 36.7039 123.071V109.665C36.7255 109.037 36.9049 108.425 37.2252 107.886L32.1966 104.957C31.8737 105.495 31.6918 106.108 31.668 106.737L31.6387 120.142Z" fill="black"/>
<path d="M44.5586 120.58L47.1206 125.029C47.1573 125.092 47.2113 125.144 47.2762 125.178C47.3411 125.211 47.4142 125.225 47.4868 125.218C47.5594 125.211 47.6284 125.183 47.6858 125.138C47.7432 125.093 47.7865 125.031 47.8107 124.962L50.5195 117.065V113.588L44.5586 117.065V120.58Z" fill="#FF7800"/>
<path d="M40.4775 112.557C39.9822 112.879 39.571 113.317 39.2784 113.833C38.9858 114.349 38.8205 114.929 38.7964 115.523C38.7964 116.606 39.5305 117.006 40.4775 116.502C40.9693 116.176 41.378 115.738 41.6702 115.222C41.9624 114.707 42.1297 114.129 42.1586 113.536C42.1659 112.453 41.4318 111.986 40.4775 112.557Z" fill="white"/>
<path d="M46.6801 108.932C46.1861 109.256 45.7753 109.693 45.4817 110.209C45.1882 110.725 45.0202 111.304 44.9917 111.898C44.9917 112.98 45.7258 113.418 46.6801 112.876C47.172 112.551 47.5807 112.113 47.8729 111.597C48.165 111.082 48.3324 110.504 48.3612 109.911C48.3612 108.828 47.6051 108.391 46.6801 108.932Z" fill="white"/>
<path d="M52.8764 105.313C52.3845 105.638 51.9758 106.077 51.6837 106.592C51.3915 107.108 51.2242 107.686 51.1953 108.279C51.1953 109.361 51.9294 109.762 52.8764 109.257C53.3716 108.936 53.7829 108.498 54.0755 107.982C54.3681 107.466 54.5334 106.886 54.5575 106.292C54.5575 105.202 53.8087 104.764 52.8764 105.313Z" fill="white"/>
<path d="M207.639 6.27548L136.27 47.8717C135.345 48.4814 134.575 49.3025 134.023 50.2687C133.471 51.2348 133.152 52.3187 133.091 53.4327V212.989C133.091 215.035 134.515 215.865 136.27 214.842L207.639 173.246C208.564 172.636 209.334 171.815 209.886 170.849C210.438 169.883 210.757 168.799 210.818 167.685V8.12914C210.818 6.0827 209.394 5.25226 207.639 6.27548Z" fill="#37474F"/>
<path d="M136.27 47.8717L207.639 6.2755C209.21 5.3635 210.51 5.93442 210.767 7.52857C210.622 6.5256 210.268 5.565 209.729 4.71003C209.19 3.85505 208.478 3.12508 207.639 2.56817L205.048 1.08524C204.063 0.580454 202.974 0.317383 201.869 0.317383C200.765 0.317383 199.676 0.580454 198.691 1.08524L127.322 42.6592C126.383 43.2507 125.609 44.0752 125.075 45.0541L134.024 50.2444C134.561 49.2736 135.334 48.457 136.27 47.8717V47.8717Z" fill="#455A64"/>
<path d="M124.143 207.769C124.202 208.883 124.52 209.967 125.073 210.934C125.625 211.9 126.395 212.721 127.321 213.33L129.913 214.813C130.808 215.269 131.79 215.528 132.792 215.573C133.794 215.617 134.795 215.447 135.727 215.072C134.258 215.643 133.091 214.79 133.091 212.959V53.4105C133.128 52.2919 133.449 51.2016 134.024 50.2445L125.075 45.0542C124.502 46.012 124.181 47.1019 124.143 48.2203V207.769Z" fill="#263238"/>
<path d="M137.98 67.7431L205.929 28.1415C206.978 27.5261 207.837 28.0228 207.837 29.2537V150.046C207.8 150.714 207.607 151.364 207.276 151.943C206.944 152.523 206.483 153.016 205.929 153.382L137.98 192.977C136.931 193.592 136.072 193.095 136.072 191.864V71.0797C136.107 70.411 136.298 69.7601 136.63 69.1803C136.962 68.6004 137.424 68.108 137.98 67.7431Z" fill="#FAFAFA"/>
<path d="M171.235 33.2649C170.91 33.4802 170.64 33.7695 170.446 34.1095C170.253 34.4495 170.14 34.8307 170.119 35.2224C170.119 35.9639 170.618 36.2382 171.235 35.8749C171.561 35.6604 171.831 35.3714 172.025 35.0312C172.219 34.691 172.331 34.3094 172.351 33.9174C172.351 33.1982 171.852 32.909 171.235 33.2649Z" fill="#263238"/>
<path d="M160.672 44.7426C160.027 45.1756 159.492 45.7554 159.109 46.4353C158.727 47.1153 158.507 47.8764 158.469 48.6575C158.469 50.0959 159.468 50.6817 160.672 49.9625C161.324 49.534 161.866 48.9561 162.255 48.2758C162.644 47.5955 162.869 46.8321 162.911 46.0475C162.911 44.6091 161.905 44.0233 160.672 44.7426Z" fill="#263238"/>
<path d="M166.141 44.2533C166.141 45.2172 166.875 45.5805 167.734 45.0689L182.416 36.4902C182.869 36.202 183.248 35.8103 183.524 35.3466C183.799 34.8829 183.963 34.3603 184.001 33.8209C184.001 32.8644 183.267 32.5011 182.416 33.0127L167.734 41.5915C167.28 41.8776 166.899 42.2677 166.622 42.7302C166.346 43.1926 166.181 43.7145 166.141 44.2533Z" fill="#263238"/>
<path d="M129.091 72.5179C129.613 72.8594 130.047 73.321 130.359 73.8649C130.67 74.4088 130.849 75.0195 130.882 75.6469C130.882 76.7962 130.082 77.2633 129.091 76.6924C128.571 76.3472 128.139 75.8836 127.829 75.3388C127.519 74.794 127.34 74.1834 127.307 73.556C127.321 72.4067 128.107 71.947 129.091 72.5179Z" fill="#37474F"/>
<path d="M129.09 86.435C129.611 86.7777 130.045 87.2396 130.356 87.7833C130.667 88.3269 130.847 88.937 130.882 89.564C130.882 90.7207 130.082 91.1878 129.09 90.6094C128.579 90.2675 128.153 89.8103 127.846 89.2737C127.539 88.7372 127.359 88.136 127.321 87.5175C127.321 86.3312 128.107 85.8641 129.09 86.435Z" fill="#37474F"/>
<path d="M128.54 72.7923C129.061 73.1351 129.494 73.597 129.806 74.1406C130.117 74.6842 130.297 75.2943 130.331 75.9213C130.331 77.078 129.531 77.5451 128.54 76.9668C128.02 76.6232 127.587 76.161 127.275 75.6176C126.964 75.0741 126.784 74.4645 126.749 73.8378C126.749 72.6885 127.556 72.2214 128.54 72.7923Z" fill="#455A64"/>
<path d="M128.54 86.7173C129.061 87.06 129.494 87.522 129.806 88.0656C130.117 88.6092 130.297 89.2193 130.331 89.8463C130.331 91.003 129.531 91.4701 128.54 90.8918C128.02 90.5481 127.587 90.086 127.275 89.5426C126.964 88.9991 126.784 88.3895 126.749 87.7628C126.749 86.6061 127.556 86.139 128.54 86.7173Z" fill="#455A64"/>
<path d="M171.954 178.51C170.671 179.357 169.604 180.496 168.838 181.838C168.073 183.179 167.632 184.683 167.55 186.229C167.55 189.076 169.525 190.225 171.954 188.809C173.238 187.961 174.305 186.82 175.07 185.478C175.836 184.135 176.277 182.63 176.359 181.083C176.366 178.236 174.392 177.087 171.954 178.51Z" fill="#263238"/>
<path d="M152.068 191.256C151.444 191.256 151.378 190.515 151.378 190.248V69.4632C151.416 68.8601 151.592 68.2741 151.891 67.7507C152.19 67.2273 152.605 66.7806 153.103 66.4455L221.051 26.8438C221.254 26.7213 221.483 26.6501 221.719 26.6362C222.343 26.6362 222.409 27.3332 222.409 27.6372V148.429C222.371 149.032 222.196 149.617 221.897 150.139C221.597 150.661 221.182 151.106 220.684 151.44L152.736 191.041C152.535 191.17 152.305 191.244 152.068 191.256V191.256Z" fill="white" stroke="#141414" stroke-miterlimit="10"/>
<path d="M221.719 27.0071C221.998 27.0071 222.042 27.4001 222.042 27.6373V148.429C222.005 148.967 221.847 149.489 221.579 149.955C221.312 150.422 220.943 150.821 220.5 151.121L152.552 190.723C152.406 190.816 152.24 190.872 152.067 190.886C151.788 190.886 151.744 190.485 151.744 190.248V69.4634C151.781 68.9258 151.939 68.4038 152.207 67.9373C152.474 67.4708 152.843 67.0722 153.286 66.7719L221.234 27.1702C221.379 27.074 221.546 27.0178 221.719 27.0071V27.0071ZM221.719 26.2656C221.417 26.2758 221.124 26.3653 220.867 26.5251L152.919 66.1268C152.363 66.4916 151.9 66.9841 151.569 67.5639C151.237 68.1438 151.046 68.7946 151.01 69.4634V190.248C151.01 191.123 151.443 191.627 152.067 191.627C152.369 191.614 152.663 191.522 152.919 191.36L220.867 151.766C221.423 151.401 221.885 150.908 222.217 150.328C222.548 149.749 222.74 149.098 222.776 148.429V27.6373C222.776 26.7698 222.343 26.2656 221.719 26.2656V26.2656Z" fill="#37474F" stroke="#141414" stroke-miterlimit="10"/>
<path d="M222.754 27.637C222.754 26.4061 221.903 25.9094 220.846 26.5248L152.897 66.1264C152.341 66.4913 151.879 66.9837 151.547 67.5636C151.215 68.1434 151.024 68.7943 150.989 69.463V79.3616L222.754 37.5355V27.637Z" fill="#37474F"/>
<path opacity="0.1" d="M222.754 27.637C222.754 26.4061 221.903 25.9094 220.846 26.5248L152.897 66.1264C152.341 66.4913 151.879 66.9837 151.547 67.5636C151.215 68.1434 151.024 68.7943 150.989 69.463V79.3616L222.754 37.5355V27.637Z" fill="black"/>
<path d="M158.499 68.4106C158.378 68.3645 158.248 68.3492 158.12 68.366C157.992 68.3828 157.87 68.4312 157.765 68.507C157.387 68.7601 157.073 69.0979 156.846 69.4941C156.619 69.8903 156.487 70.334 156.458 70.7907C156.44 70.9221 156.456 71.0561 156.507 71.1787C156.557 71.3013 156.639 71.408 156.744 71.4877C156.865 71.5377 156.996 71.5545 157.125 71.5362C157.254 71.518 157.376 71.4654 157.478 71.3839C157.853 71.1308 158.166 70.7938 158.391 70.399C158.617 70.0042 158.749 69.5623 158.778 69.1076C158.797 68.9769 158.781 68.8433 158.732 68.7208C158.683 68.5982 158.603 68.4911 158.499 68.4106Z" fill="white"/>
<path d="M160.048 65.8818L159.886 65.9781V65.6445C159.886 65.1774 159.563 64.9846 159.152 65.2218L156.069 67.0162C155.857 67.1548 155.68 67.3418 155.552 67.562C155.425 67.7822 155.35 68.0295 155.335 68.2841V68.6252L155.166 68.7215C154.884 68.9065 154.649 69.156 154.481 69.4497C154.313 69.7435 154.215 70.0732 154.197 70.4121V73.4298C154.197 74.0527 154.63 74.3122 155.166 74.0008L160.033 71.161C160.315 70.9749 160.55 70.7241 160.718 70.4291C160.887 70.1341 160.984 69.8031 161.002 69.463V66.4304C161.017 65.8224 160.583 65.5703 160.048 65.8818ZM157.757 71.8728C157.52 72.0191 157.249 72.1008 156.972 72.11C156.792 72.1118 156.615 72.0657 156.458 71.9766C156.268 71.8472 156.116 71.6691 156.016 71.4607C155.917 71.2522 155.874 71.0208 155.893 70.7902C155.918 70.2346 156.075 69.6934 156.351 69.212C156.627 68.7307 157.014 68.3235 157.478 68.0246C157.665 67.8888 157.884 67.8073 158.113 67.789C158.343 67.7707 158.572 67.8163 158.778 67.9208C158.968 68.0494 159.12 68.2275 159.218 68.4363C159.316 68.6452 159.357 68.8769 159.335 69.1071C159.31 69.6618 159.153 70.2021 158.878 70.6832C158.604 71.1643 158.219 71.5721 157.757 71.8728V71.8728ZM159.959 67.8466C159.71 67.9875 159.512 67.8466 159.512 67.5797C159.519 67.4222 159.564 67.2688 159.642 67.1321C159.719 66.9954 159.828 66.8795 159.959 66.7937C160.209 66.6455 160.415 66.7937 160.415 67.0533C160.409 67.2097 160.368 67.3627 160.294 67.5003C160.22 67.6379 160.116 67.7565 159.989 67.8466H159.959Z" fill="white"/>
<path d="M218.849 30.6845L214.099 33.4501C213.824 33.6313 213.595 33.8754 213.43 34.1626C213.266 34.4499 213.171 34.7722 213.152 35.1036V38.0695C213.152 38.6701 213.578 38.9222 214.099 38.6182L216.926 36.9721L218.034 38.0917C218.06 38.1161 218.093 38.1323 218.128 38.1385C218.163 38.1446 218.199 38.1403 218.231 38.1262C218.264 38.1121 218.292 38.0887 218.311 38.0589C218.331 38.0291 218.342 37.9941 218.342 37.9583V36.1417L218.849 35.8451C219.128 35.6664 219.362 35.4234 219.53 35.136C219.699 34.8486 219.797 34.5249 219.818 34.1916V31.2257C219.818 30.6252 219.37 30.3805 218.849 30.6845Z" fill="white"/>
<path d="M160.158 77.5972C162.639 76.1735 164.65 77.3302 164.65 80.1923C164.561 81.7576 164.108 83.2797 163.328 84.635C162.547 85.9903 161.461 87.1406 160.158 87.9925C157.669 89.4754 155.658 88.2817 155.658 85.3974C155.741 83.8298 156.193 82.3048 156.975 80.9485C157.758 79.5921 158.849 78.4433 160.158 77.5972V77.5972Z" fill="#37474F"/>
<path d="M169.099 74.1045L184.008 65.4146C184.889 64.903 185.601 65.2663 185.601 66.2228C185.563 66.7629 185.398 67.2862 185.121 67.7501C184.844 68.2139 184.463 68.6052 184.008 68.8921L169.099 77.582C168.225 78.0936 167.513 77.7303 167.513 76.7738C167.552 76.2345 167.715 75.7118 167.991 75.2482C168.266 74.7845 168.646 74.3927 169.099 74.1045Z" fill="#37474F"/>
<g opacity="0.7">
<path opacity="0.7" d="M169.099 74.1045L184.008 65.4146C184.889 64.903 185.601 65.2663 185.601 66.2228C185.563 66.7629 185.398 67.2862 185.121 67.7501C184.844 68.2139 184.463 68.6052 184.008 68.8921L169.099 77.582C168.225 78.0936 167.513 77.7303 167.513 76.7738C167.552 76.2345 167.715 75.7118 167.991 75.2482C168.266 74.7845 168.646 74.3927 169.099 74.1045Z" fill="white"/>
</g>
<path d="M168.6 80.2664L178.826 74.3347C179.428 73.9862 179.912 74.2309 179.912 74.8908C179.886 75.2607 179.774 75.6192 179.585 75.9373C179.396 76.2555 179.136 76.5243 178.826 76.7222L168.6 82.6539C167.998 83.0024 167.513 82.7503 167.513 82.0904C167.54 81.7216 167.652 81.3644 167.841 81.0475C168.03 80.7307 168.29 80.4631 168.6 80.2664Z" fill="#37474F"/>
<g opacity="0.7">
<path opacity="0.7" d="M168.6 80.2664L178.826 74.3347C179.428 73.9862 179.912 74.2309 179.912 74.8908C179.886 75.2607 179.774 75.6192 179.585 75.9373C179.396 76.2555 179.136 76.5243 178.826 76.7222L168.6 82.6539C167.998 83.0024 167.513 82.7503 167.513 82.0904C167.54 81.7216 167.652 81.3644 167.841 81.0475C168.03 80.7307 168.29 80.4631 168.6 80.2664Z" fill="white"/>
</g>
<path d="M160.158 155.554C162.639 154.131 164.65 155.295 164.65 158.149C164.561 159.715 164.108 161.237 163.328 162.592C162.547 163.947 161.461 165.098 160.158 165.95C157.669 167.433 155.658 166.239 155.658 163.355C155.743 161.787 156.195 160.263 156.978 158.907C157.76 157.551 158.85 156.402 160.158 155.554Z" fill="#37474F"/>
<path d="M169.099 152.07L184.008 143.373C184.889 142.861 185.601 143.224 185.601 144.181C185.563 144.721 185.398 145.244 185.121 145.708C184.844 146.172 184.463 146.563 184.008 146.85L169.099 155.547C168.225 156.059 167.513 155.696 167.513 154.732C167.553 154.194 167.717 153.673 167.992 153.21C168.268 152.748 168.647 152.357 169.099 152.07Z" fill="#37474F"/>
<g opacity="0.7">
<path opacity="0.7" d="M169.099 152.07L184.008 143.373C184.889 142.861 185.601 143.224 185.601 144.181C185.563 144.721 185.398 145.244 185.121 145.708C184.844 146.172 184.463 146.563 184.008 146.85L169.099 155.547C168.225 156.059 167.513 155.696 167.513 154.732C167.553 154.194 167.717 153.673 167.992 153.21C168.268 152.748 168.647 152.357 169.099 152.07Z" fill="white"/>
</g>
<path d="M168.6 158.224L178.826 152.293C179.428 151.944 179.912 152.189 179.912 152.849C179.886 153.219 179.774 153.577 179.585 153.895C179.396 154.213 179.136 154.482 178.826 154.68L168.6 160.612C167.998 160.96 167.513 160.708 167.513 160.056C167.539 159.686 167.651 159.327 167.839 159.009C168.028 158.691 168.289 158.422 168.6 158.224V158.224Z" fill="#37474F"/>
<g opacity="0.7">
<path opacity="0.7" d="M168.6 158.224L178.826 152.293C179.428 151.944 179.912 152.189 179.912 152.849C179.886 153.219 179.774 153.577 179.585 153.895C179.396 154.213 179.136 154.482 178.826 154.68L168.6 160.612C167.998 160.96 167.513 160.708 167.513 160.056C167.539 159.686 167.651 159.327 167.839 159.009C168.028 158.691 168.289 158.422 168.6 158.224V158.224Z" fill="white"/>
</g>
<path d="M158.762 92.3076L215.222 59.3865C216.103 58.8749 216.815 59.2901 216.815 60.3133V117.265C216.785 117.824 216.625 118.367 216.348 118.852C216.072 119.336 215.686 119.748 215.222 120.053L158.762 153.167C157.881 153.679 157.177 153.263 157.177 152.24V95.0881C157.205 94.5312 157.364 93.989 157.639 93.5057C157.915 93.0225 158.3 92.612 158.762 92.3076V92.3076Z" fill="#F5F5F5"/>
<path d="M179.486 105.35C179.342 105.137 179.143 104.967 178.911 104.86C178.678 104.753 178.421 104.712 178.167 104.741C177.913 104.771 177.671 104.871 177.469 105.029C177.267 105.187 177.112 105.398 177.02 105.639L157.199 143.661V152.24C157.199 153.263 157.933 153.679 158.785 153.167L215.244 120.224C215.708 119.918 216.094 119.506 216.371 119.022C216.648 118.538 216.807 117.994 216.837 117.436V98.4543L206.112 79.2133C205.518 78.1382 204.688 78.2049 204.255 79.3542L189.977 117.577L179.486 105.35Z" fill="#37474F"/>
<g opacity="0.3">
<path opacity="0.3" d="M179.486 105.35C179.342 105.137 179.143 104.967 178.911 104.86C178.678 104.753 178.421 104.712 178.167 104.741C177.913 104.771 177.671 104.871 177.469 105.029C177.267 105.187 177.112 105.398 177.02 105.639L157.199 143.661V152.24C157.199 153.263 157.933 153.679 158.785 153.167L215.244 120.224C215.708 119.918 216.094 119.506 216.371 119.022C216.648 118.538 216.807 117.994 216.837 117.436V98.4543L206.112 79.2133C205.518 78.1382 204.688 78.2049 204.255 79.3542L189.977 117.577L179.486 105.35Z" fill="#00564C"/>
</g>
<path d="M163.13 107.715C168.107 104.831 172.152 97.8021 172.152 92.0186C172.152 89.0528 171.095 87.0212 169.414 86.0869L158.762 92.293C158.3 92.5974 157.915 93.0079 157.639 93.4911C157.364 93.9744 157.205 94.5166 157.177 95.0735V108.524C158.762 109.243 160.84 109.02 163.13 107.715Z" fill="#37474F"/>
<g opacity="0.6">
<path opacity="0.6" d="M163.13 107.715C168.107 104.831 172.152 97.8021 172.152 92.0186C172.152 89.0528 171.095 87.0212 169.414 86.0869L158.762 92.293C158.3 92.5974 157.915 93.0079 157.639 93.4911C157.364 93.9744 157.205 94.5166 157.177 95.0735V108.524C158.762 109.243 160.84 109.02 163.13 107.715Z" fill="white"/>
</g>
<path d="M158.762 170.562L215.222 137.634C216.103 137.122 216.815 137.485 216.815 138.449C216.775 138.988 216.61 139.51 216.333 139.972C216.057 140.435 215.676 140.825 215.222 141.111L158.762 174.04C157.881 174.551 157.177 174.188 157.177 173.224C157.214 172.685 157.377 172.163 157.653 171.701C157.929 171.238 158.309 170.848 158.762 170.562V170.562Z" fill="#37474F"/>
<g opacity="0.6">
<path opacity="0.6" d="M158.762 170.562L215.222 137.634C216.103 137.122 216.815 137.485 216.815 138.449C216.775 138.988 216.61 139.51 216.333 139.972C216.057 140.435 215.676 140.825 215.222 141.111L158.762 174.04C157.881 174.551 157.177 174.188 157.177 173.224C157.214 172.685 157.377 172.163 157.653 171.701C157.929 171.238 158.309 170.848 158.762 170.562V170.562Z" fill="white"/>
</g>
<path d="M158.762 177.517L215.222 144.611C216.103 144.099 216.815 144.462 216.815 145.426C216.775 145.965 216.61 146.487 216.333 146.949C216.057 147.412 215.676 147.802 215.222 148.088L158.762 181.017C157.881 181.528 157.177 181.165 157.177 180.201C157.211 179.659 157.373 179.132 157.649 178.666C157.925 178.199 158.306 177.805 158.762 177.517V177.517Z" fill="#37474F"/>
<g opacity="0.6">
<path opacity="0.6" d="M158.762 177.517L215.222 144.611C216.103 144.099 216.815 144.462 216.815 145.426C216.775 145.965 216.61 146.487 216.333 146.949C216.057 147.412 215.676 147.802 215.222 148.088L158.762 181.017C157.881 181.528 157.177 181.165 157.177 180.201C157.211 179.659 157.373 179.132 157.649 178.666C157.925 178.199 158.306 177.805 158.762 177.517V177.517Z" fill="white"/>
</g>
<path d="M167.469 61.3068L207.749 37.8394C208.982 37.098 209.951 37.706 209.951 39.137C209.913 39.914 209.694 40.671 209.311 41.3462C208.928 42.0214 208.393 42.5957 207.749 43.0223L167.476 66.4229C166.243 67.1644 165.274 66.5712 165.274 65.1624C165.316 64.3911 165.536 63.6405 165.917 62.9709C166.299 62.3013 166.83 61.7313 167.469 61.3068V61.3068Z" fill="#FAFAFA"/>
<path d="M285.813 105.817L288.668 111.104L284.227 114.952L280.153 108.435L285.813 105.817Z" fill="#F28F8F"/>
<path d="M275.095 94.0356C277.929 94.0356 281.049 95.1034 282.121 97.35L286.525 106.574C286.525 106.574 284.022 110.281 280.05 110.014L275.095 94.0356Z" fill="#E0E0E0"/>
<path d="M285.592 111.927C286.422 110.37 286.627 110.296 287.119 109.955C287.611 109.614 290.636 109.161 291.891 109.05C293.359 108.924 293.895 109.198 293.484 110.481C292.353 113.716 290.969 116.855 289.344 119.868C288.947 120.395 288.874 120.884 287.207 121.055C285.658 121.203 283.713 121.292 283.14 121.321C282.568 121.351 281.775 121.507 282.282 119.801C282.937 117.875 283.697 115.986 284.557 114.144C285.196 112.728 285.592 111.927 285.592 111.927Z" fill="#37474F"/>
<path d="M252.514 164.386C251.78 164.015 251.362 164.92 250.723 165.646C250.174 166.181 249.746 166.828 249.468 167.544C249.313 168.397 250.084 169.769 250.936 170.51C251.787 171.252 252.771 171.793 253.079 173.424C253.159 174.173 253.446 174.883 253.909 175.474C254.371 176.064 254.99 176.51 255.693 176.761C257.528 177.562 259.987 177.302 260.831 176.761C261.815 176.116 260.912 175.404 259.532 173.402C257.726 170.792 256.317 168.953 256.317 166.484L252.514 164.386Z" fill="#263238"/>
<path d="M253.96 162.243L252.492 164.467C252.175 164.921 252.049 165.484 252.143 166.032C252.237 166.58 252.542 167.068 252.991 167.388L253.035 167.425C253.486 167.696 254.017 167.799 254.536 167.717C255.055 167.634 255.529 167.371 255.876 166.973L258.196 164.423L253.96 162.243Z" fill="#FFA8A7"/>
<path d="M281.225 119.357C281.32 122.16 280.535 133.482 278.619 138.487C276.703 143.492 275.594 146.606 274.992 147.651C274.39 148.697 257.021 165.765 257.021 165.765C257.021 165.765 254.085 165.55 253.608 162.666C253.608 162.666 260.721 150.447 262.263 147.94C263.805 145.434 269.266 141.593 269.266 141.593L268.767 119.676L281.225 119.357Z" fill="#37474F"/>
<path d="M255.495 116.628C255.495 116.146 256.963 110.607 257.697 108.049L263.078 109.918L261.815 113.951L257.08 118.897C256.578 118.796 256.134 118.504 255.839 118.082C255.544 117.66 255.421 117.139 255.495 116.628V116.628Z" fill="#FFA8A7"/>
<path d="M277.398 179.005L281.07 178.162L279.854 172.761L276.182 173.604L277.398 179.005Z" fill="#FFA8A7"/>
<path d="M281.224 119.357H263.606C263.221 121.955 263.001 124.575 262.945 127.201C262.806 134.913 269.912 148.919 269.912 148.919C269.571 152.035 269.725 155.186 270.367 158.254C271.923 164.393 276.167 174.796 276.167 174.796C276.167 174.796 278.831 175.174 280.145 173.624C280.145 173.624 277.796 152.515 277.165 147.11C276.482 141.252 274.72 130.568 274.72 130.568C275.883 129.397 276.937 128.121 277.87 126.756C279.504 124.559 280.646 122.029 281.217 119.342" fill="#37474F"/>
<path d="M269.281 94.1911C265.904 95.0142 261.301 96.0819 259.972 99.7744C258.644 103.467 256.728 110.014 256.728 110.014C257.462 111.312 261.536 112.387 262.953 111.638L263.613 109.413V119.334C266.256 122.241 275.462 123.59 281.232 119.334V100.798C281.232 97.8317 279.602 94.2727 275.102 94.0132L269.281 94.1911Z" fill="#11B5E4"/>
<path d="M263.614 109.435L265.31 104.045L263.614 111.845V109.435Z" fill="#E0E0E0"/>
<path d="M268.011 79.0428C267.708 79.0087 267.401 79.0444 267.114 79.1471C266.826 79.2499 266.566 79.417 266.352 79.6359C265.618 80.3774 265.786 81.7343 266.352 84.8707L268.554 85.1228L268.011 79.0428Z" fill="#263238"/>
<path d="M280.865 78.1384C281.328 78.1433 281.787 78.055 282.216 77.8788C282.891 77.4859 283.067 78.2644 282.693 78.9391C282.448 79.4226 282.085 79.8347 281.638 80.1359C281.19 80.4371 280.674 80.6173 280.138 80.6593C280.138 80.5629 279.507 78.9169 279.507 78.9169L280.865 78.1384Z" fill="#263238"/>
<path d="M269.046 85.1229C268.723 85.3231 268.253 84.6855 267.849 84.2628C267.692 84.0786 267.49 83.9382 267.263 83.8549C267.036 83.7715 266.792 83.7481 266.554 83.7867C266.316 83.8253 266.091 83.9247 265.902 84.0755C265.712 84.2263 265.564 84.4235 265.471 84.6484C264.803 86.072 266.323 87.9701 267.218 88.593C267.466 88.8123 267.777 88.9463 268.106 88.9756C268.434 89.0049 268.764 88.928 269.046 88.7561L269.281 94.2059C269.677 95.0788 270.28 95.8395 271.037 96.4203C271.794 97.0011 272.681 97.384 273.62 97.535C276.791 97.9651 276.137 95.3106 275.088 94.0353V92.0556C275.881 92.2249 276.697 92.2649 277.503 92.1742C277.914 92.063 278.898 90.8619 279.536 89.5124C280.891 86.8104 281.192 83.6935 280.381 80.7779C279.243 75.8991 274.053 75.7508 270.962 77.7157C267.872 79.6806 269.046 85.1229 269.046 85.1229Z" fill="#FFA8A7"/>
<path d="M269.046 85.6792C268.884 85.6792 268.26 84.6337 267.849 84.263C267.284 83.7439 268.011 79.0727 268.011 79.0727C267.855 78.5706 267.823 78.0376 267.919 77.5204C268.015 77.0032 268.236 76.5178 268.561 76.1068C269.677 74.9205 271.835 75.1207 273.414 75.0688C275.355 75.0765 277.278 74.6855 279.066 73.9195C281.312 72.9334 281.481 72.8222 281.753 73.8157C281.97 74.6368 281.997 75.4974 281.831 76.3306C281.666 77.1639 281.312 77.9474 280.799 78.6204L280.064 79.8216C280.064 79.8216 279.382 80.3999 277.29 80.6594C275.197 80.919 271.63 79.7771 271.182 79.7178C270.573 79.6362 270.448 80.2294 270.117 81.8532C269.838 83.2546 269.604 85.6718 269.046 85.6792Z" fill="#263238"/>
<path d="M268.018 79.4141L266.036 78.3386C266.099 78.2078 266.188 78.091 266.296 77.9948C266.404 77.8986 266.53 77.8249 266.666 77.7781C266.803 77.7312 266.947 77.712 267.091 77.7217C267.235 77.7313 267.375 77.7695 267.504 77.8342C267.776 77.9784 267.982 78.224 268.078 78.5189C268.174 78.8138 268.153 79.1349 268.018 79.4141V79.4141Z" fill="#263238"/>
<path d="M275.087 92.0557C273.737 91.7942 272.413 91.4095 271.131 90.9064C270.53 90.5862 270.037 90.0934 269.714 89.4902C269.869 90.0957 270.144 90.6632 270.521 91.1585C271.255 92.1299 275.087 92.8417 275.087 92.8417V92.0557Z" fill="#F28F8F"/>
<path d="M275.183 85.0195C275.185 85.1796 275.124 85.334 275.015 85.4492C274.905 85.5645 274.754 85.6313 274.596 85.6352C274.517 85.6333 274.439 85.6156 274.366 85.5832C274.294 85.5509 274.229 85.5044 274.174 85.4466C274.12 85.3887 274.077 85.3206 274.049 85.246C274.02 85.1715 274.007 85.092 274.008 85.0121C274.007 84.8521 274.067 84.6977 274.177 84.5824C274.287 84.4672 274.437 84.4004 274.596 84.3965C274.675 84.3984 274.753 84.4161 274.825 84.4484C274.897 84.4808 274.963 84.5272 275.017 84.5851C275.072 84.6429 275.114 84.7111 275.143 84.7856C275.171 84.8602 275.185 84.9397 275.183 85.0195V85.0195Z" fill="#263238"/>
<path d="M274.559 82.7725L273.304 83.5142C273.256 83.4282 273.226 83.3335 273.215 83.2356C273.204 83.1377 273.213 83.0385 273.24 82.9439C273.267 82.8493 273.313 82.7611 273.374 82.6846C273.436 82.608 273.512 82.5446 273.598 82.4981C273.763 82.4127 273.954 82.3935 274.132 82.4444C274.31 82.4953 274.463 82.6125 274.559 82.7725Z" fill="#263238"/>
<path d="M274.823 89.001L276.167 89.5128C276.1 89.6907 275.969 89.8361 275.799 89.9189C275.63 90.0017 275.436 90.0156 275.256 89.9578C275.166 89.9239 275.082 89.8723 275.011 89.8058C274.94 89.7393 274.883 89.6593 274.843 89.5704C274.803 89.4815 274.78 89.3854 274.777 89.2877C274.773 89.1899 274.789 89.0925 274.823 89.001V89.001Z" fill="#F28F8F"/>
<path d="M280.424 83.27L279.279 82.38C279.394 82.2298 279.562 82.13 279.748 82.101C279.933 82.072 280.123 82.1161 280.278 82.2242C280.356 82.2827 280.422 82.3563 280.471 82.4407C280.521 82.5252 280.554 82.6188 280.568 82.7161C280.581 82.8134 280.576 82.9125 280.551 83.0076C280.526 83.1027 280.483 83.1919 280.424 83.27V83.27Z" fill="#263238"/>
<path d="M280.072 84.8491C280.074 85.0092 280.014 85.1636 279.904 85.2788C279.794 85.3941 279.643 85.4609 279.485 85.4648C279.406 85.4628 279.328 85.4452 279.256 85.4128C279.183 85.3805 279.118 85.334 279.064 85.2762C279.009 85.2183 278.966 85.1502 278.938 85.0756C278.909 85.0011 278.896 84.9216 278.898 84.8417C278.896 84.6817 278.956 84.5273 279.066 84.412C279.176 84.2968 279.327 84.23 279.485 84.2261C279.644 84.2319 279.794 84.3003 279.904 84.4167C280.014 84.5332 280.074 84.6883 280.072 84.8491V84.8491Z" fill="#263238"/>
<path d="M277.304 84.7744L276.754 88.3038L278.685 88.0739L277.304 84.7744Z" fill="#F28F8F"/>
<path d="M280.652 176.36L280.534 175.826C280.916 175.9 282.568 178.666 284.205 179.867C285.996 181.18 287.545 181.958 288.345 182.551C289.417 183.345 287.868 184.968 285.233 185.117C283.926 185.183 281.562 184.783 280.828 184.079C280.094 183.374 279.565 182.21 278.978 181.706C278.391 181.202 277.224 180.757 276.82 180.112C276.604 179.471 276.526 178.791 276.592 178.117C276.592 177.42 276.644 176.634 276.879 176.671L276.967 177.072C277.647 177.423 278.405 177.594 279.169 177.569C279.808 177.539 280.96 177.398 280.652 176.36Z" fill="#263238"/>
<path d="M276.71 143.521C276.71 143.521 275.146 132.302 274.728 130.567C275.984 129.874 277.153 129.03 278.208 128.054C277.48 129.105 276.685 130.108 275.829 131.057L276.71 143.521Z" fill="#263238"/>
<path d="M267.277 143.128C267.277 143.128 269.156 147.851 269.92 148.897C269.92 148.897 269.729 152.5 269.751 153.227L268.767 154.094C268.741 152.464 268.889 150.836 269.208 149.238C268.345 147.279 267.697 145.23 267.277 143.128Z" fill="#263238"/>
<path d="M261.837 113.952C261.837 113.952 276.644 115.553 278.384 115.012C280.124 114.471 282.458 112.728 283.684 111.987C284.91 111.245 285.842 111.201 285.842 111.505C285.842 111.809 284.771 113.462 284.528 114.152C284.286 114.841 285.681 114.841 287.523 114.411C289.366 113.981 290.1 112.928 290.577 113.536C291.054 114.144 289.557 117.244 286.503 118.408C283.449 119.572 281.181 118.793 278.655 118.905C276.13 119.016 260.575 120.017 257.073 118.905C256.98 118.338 257.044 117.756 257.258 117.224C257.472 116.691 257.827 116.229 258.284 115.887C259.342 115.029 260.546 114.373 261.837 113.952V113.952Z" fill="#FFA8A7"/>
<path d="M179.751 185.391C179.787 184.909 180.69 179.719 181.307 176.812L187.349 178.681L186.38 182.752L181.358 187.66C180.853 187.564 180.403 187.275 180.103 186.852C179.804 186.429 179.678 185.906 179.751 185.391V185.391Z" fill="#FFA8A7"/>
<path d="M192.994 141.452H195.93C198.097 141.452 200.175 142.321 201.708 143.869C203.24 145.416 204.101 147.515 204.101 149.704V170.732H184.823V149.704C184.823 147.515 185.684 145.416 187.216 143.869C188.749 142.321 190.827 141.452 192.994 141.452Z" fill="#263238"/>
<path d="M208.975 174.484L211.83 179.771L207.382 183.611L203.315 177.094L208.975 174.484Z" fill="#F28F8F"/>
<path d="M198.257 162.695C201.091 162.695 204.211 163.763 205.283 166.009L209.687 175.233C209.687 175.233 207.184 178.94 203.212 178.681L198.257 162.695Z" fill="#455A64"/>
<path d="M200.548 254.169C201.523 255.487 202.619 256.708 203.822 257.817C204.015 257.974 204.169 258.175 204.27 258.403C204.395 258.789 204.556 259.716 202.86 260.094C202.001 260.284 201.111 260.285 200.25 260.097C199.39 259.909 198.58 259.536 197.876 259.004C196.635 257.995 196.782 256.223 195.637 255.059C194.785 254.207 193.633 253.873 192.994 252.835C192.546 252.093 192.788 251.211 193.192 250.121C193.596 249.031 193.882 248.038 194.271 248.178L194.139 248.727C194.543 249.595 197.076 250.143 198.316 249.728C198.984 251.246 199.729 252.729 200.548 254.169Z" fill="#263238"/>
<path d="M201.546 255.444C201.201 255.037 200.863 254.621 200.548 254.169C199.898 253.077 199.317 251.946 198.808 250.78C198.477 250.086 198.419 249.291 198.646 248.556L199.483 245.701L195.079 244.678L194.124 248.675C193.919 249.587 194.572 250.491 195.769 251.811C196.965 253.131 198.345 256.037 199.439 256.861C200.533 257.684 201.429 257.765 201.987 257.483C202.544 257.202 202.684 256.942 201.546 255.444Z" fill="#FFA8A7"/>
<path d="M188.7 256.683V256.052C188.949 256.794 190.08 259.953 191.798 261.539C193.17 262.792 195.035 264.253 195.505 265.654C195.975 267.056 192.913 267.604 191.636 267.375C189.932 267.086 188.368 266.239 187.187 264.965C186.453 264.053 185.983 262.97 185.455 262.251C184.926 261.532 183.722 260.768 183.444 259.908C183.355 259.133 183.438 258.348 183.686 257.609C183.891 256.868 184.104 255.986 184.368 256.052V256.571C184.997 257.066 185.774 257.328 186.571 257.313C187.173 257.313 188.707 257.172 188.7 256.683Z" fill="#263238"/>
<path d="M193.038 262.644L191.797 261.531C190.647 260.3 189.749 258.851 189.155 257.268C188.854 256.537 188.699 255.754 188.699 254.962V252.463H184.368V256.527V256.638C184.574 257.55 186.57 259.967 187.694 261.546C188.615 262.904 190.019 263.849 191.614 264.186C193.265 264.408 194.124 263.889 193.038 262.644Z" fill="#FFA8A7"/>
<path d="M185.227 188.646C181.872 196.061 185.351 222.168 185.351 222.168C185.249 223.376 183.883 225.742 183.384 231.065C182.782 237.323 184.324 253.028 184.324 253.028C184.987 253.421 185.736 253.643 186.504 253.674C187.272 253.705 188.036 253.544 188.728 253.205C188.728 253.205 192.861 229.545 193.639 223.324L196.121 203.364L199.791 222.842C198.809 224.369 197.997 226 197.369 227.707C196.495 230.457 194.726 246.132 194.726 246.132C195.323 246.683 196.037 247.089 196.813 247.319C197.589 247.549 198.407 247.597 199.204 247.459C199.204 247.459 207.683 225.957 208.064 221.567C208.292 218.935 204.489 187.593 204.489 187.593L185.227 188.646Z" fill="#37474F"/>
<path d="M196.092 203.335L196.679 199.049C196.679 199.049 201.297 198.085 203.389 196.083C201.944 197.793 200.055 199.062 197.934 199.746L197.318 203.883L198.052 213.47L196.092 203.335Z" fill="#263238"/>
<path d="M191.188 162.895C189.952 163.199 188.799 163.779 187.814 164.592C186.83 165.406 186.038 166.432 185.499 167.596C184.706 169.365 184.632 171.378 185.293 173.201L188.251 181.973C188.251 181.973 186.849 185.406 185.212 188.646C192.751 192.895 202.155 190.663 204.424 187.564C204.519 186.904 204.387 183.938 204.57 180.572C204.761 176.975 205.253 172.912 204.695 170.695C203.653 166.565 201.707 162.695 197.839 162.695L191.188 162.895Z" fill="#F03E3D"/>
<path d="M190.035 162.895C187.466 163.258 183.693 163.784 182.386 169.953C181.08 176.122 180.69 178.384 180.69 178.384C181.528 179.214 182.526 179.861 183.623 180.285C184.719 180.708 185.89 180.899 187.062 180.845L188.391 176.1L190.035 162.895Z" fill="#455A64"/>
<path d="M191.496 168.1C191.053 168.1 190.614 168.011 190.204 167.84C189.795 167.669 189.422 167.417 189.109 167.101C188.795 166.784 188.546 166.408 188.377 165.994C188.207 165.58 188.12 165.137 188.12 164.689V154.761H191.496V168.1Z" fill="#263238"/>
<path d="M200.937 145.389C201.957 145.997 203.213 148.584 203.088 154.004C202.985 158.602 201.509 159.743 200.768 160.07C200.027 160.396 198.602 160.196 197.215 159.958V162.717C197.215 162.717 199.131 164.941 199.014 166.239C198.896 167.536 196.239 167.803 194.44 166.565C193.282 165.716 192.286 164.661 191.504 163.451V156.778C191.357 156.958 191.177 157.108 190.973 157.218C190.769 157.328 190.546 157.396 190.316 157.418C190.086 157.44 189.854 157.416 189.633 157.347C189.412 157.277 189.207 157.165 189.03 157.015C187.496 155.984 187.437 153.441 188.332 152.566C189.228 151.691 191.144 151.943 191.504 153.204C193.318 153.123 195.084 152.588 196.642 151.647C197.798 151.022 198.79 150.128 199.536 149.04C200.283 147.952 200.763 146.701 200.937 145.389V145.389Z" fill="#FFA8A7"/>
<path d="M198.007 152.856C198.009 152.969 197.977 153.08 197.916 153.176C197.855 153.271 197.768 153.346 197.665 153.392C197.563 153.438 197.449 153.452 197.338 153.433C197.227 153.413 197.125 153.362 197.043 153.284C196.961 153.206 196.904 153.106 196.878 152.996C196.852 152.885 196.859 152.77 196.897 152.663C196.936 152.557 197.005 152.464 197.095 152.397C197.185 152.329 197.293 152.29 197.406 152.285C197.482 152.282 197.559 152.294 197.631 152.321C197.703 152.348 197.769 152.39 197.825 152.443C197.881 152.496 197.926 152.56 197.957 152.631C197.988 152.702 198.006 152.778 198.007 152.856V152.856Z" fill="#263238"/>
<path d="M198.162 156.748L199.491 157.178C199.467 157.269 199.426 157.353 199.369 157.427C199.312 157.501 199.241 157.562 199.16 157.607C199.079 157.652 198.99 157.68 198.898 157.689C198.805 157.698 198.713 157.689 198.624 157.66C198.446 157.598 198.298 157.468 198.212 157.298C198.126 157.128 198.108 156.931 198.162 156.748V156.748Z" fill="#F28F8F"/>
<path d="M202.699 151.076L201.546 150.268C201.595 150.189 201.659 150.121 201.734 150.067C201.809 150.014 201.894 149.977 201.985 149.958C202.075 149.94 202.167 149.94 202.257 149.958C202.347 149.977 202.433 150.014 202.508 150.068C202.663 150.178 202.769 150.345 202.804 150.533C202.84 150.721 202.802 150.916 202.699 151.076V151.076Z" fill="#263238"/>
<path d="M202.434 152.433C202.444 152.589 202.393 152.743 202.291 152.861C202.189 152.979 202.045 153.052 201.891 153.063C201.737 153.066 201.588 153.007 201.476 152.901C201.363 152.794 201.296 152.648 201.289 152.492C201.285 152.416 201.296 152.34 201.321 152.269C201.346 152.197 201.385 152.131 201.436 152.074C201.486 152.018 201.547 151.972 201.615 151.939C201.683 151.907 201.757 151.888 201.832 151.884C201.907 151.88 201.982 151.891 202.053 151.917C202.124 151.942 202.19 151.982 202.246 152.033C202.301 152.084 202.347 152.145 202.379 152.214C202.412 152.283 202.43 152.357 202.434 152.433V152.433Z" fill="#263238"/>
<path d="M199.733 152.107L199.828 155.584L201.642 155.013L199.733 152.107Z" fill="#F28F8F"/>
<path d="M197.215 159.959C195.747 159.766 192.737 158.891 192.267 157.69C192.454 158.299 192.823 158.836 193.324 159.225C194.22 160.003 197.215 160.886 197.215 160.886V159.959Z" fill="#F28F8F"/>
<path d="M208.748 180.586C209.577 179.029 209.783 178.962 210.282 178.621C210.781 178.28 213.798 177.821 215.054 177.709C216.522 177.583 217.058 177.858 216.647 179.148C215.502 182.38 214.108 185.516 212.477 188.527C212.08 189.061 212 189.551 210.341 189.714C208.682 189.877 206.839 189.951 206.266 189.988C205.694 190.025 204.901 190.166 205.415 188.461C206.069 186.535 206.827 184.646 207.683 182.803C208.351 181.402 208.748 180.586 208.748 180.586Z" fill="#37474F"/>
<path d="M186.38 182.781C186.38 182.781 199.807 184.212 201.546 183.671C203.286 183.129 205.621 181.372 206.876 180.646C208.131 179.919 209.034 179.86 209.034 180.156C209.034 180.453 207.962 182.121 207.713 182.803C207.463 183.485 208.873 183.493 210.708 183.063C212.543 182.633 213.285 181.58 213.769 182.188C214.254 182.796 212.749 185.895 209.695 187.059C206.641 188.223 204.373 187.452 201.847 187.556C199.322 187.66 184.86 188.802 181.359 187.689C181.266 187.123 181.33 186.541 181.544 186.008C181.758 185.476 182.113 185.013 182.57 184.672C183.702 183.791 184.998 183.148 186.38 182.781Z" fill="#FFA8A7"/>
<path d="M187.349 179.296C187.925 177.72 188.415 176.114 188.817 174.484C188.817 174.484 188.575 178.065 187.576 179.986L187.349 179.296Z" fill="#37474F"/>
<path d="M78.7091 135.201L76.3232 140.406L80.7645 144.247L84.6039 137.7L78.7091 135.201Z" fill="#F28F8F"/>
<path d="M89.6618 123.293C86.8282 123.293 83.7083 124.369 82.6365 126.608C81.5647 128.847 78.2319 135.839 78.2319 135.839C78.2319 135.839 80.7352 139.546 84.7067 139.279L89.6618 123.293Z" fill="#37474F"/>
<path d="M101.951 205.885H98.0308V211.646H101.951V205.885Z" fill="#FFA8A7"/>
<path d="M88.1683 198.757L84.2505 198.893L84.4466 204.651L88.3643 204.515L88.1683 198.757Z" fill="#FFA8A7"/>
<path d="M101.687 149.638C101.687 153.419 102.171 177.858 102.171 177.858C102.267 178.94 103.272 180.95 103.052 185.124C102.759 190.796 102.274 206.553 102.274 206.553C102.274 206.553 100.439 208.391 97.8695 206.553C97.8695 206.553 94.3164 185.139 93.619 179.519C93.0024 174.618 91.9673 161.294 91.9673 161.294L88.3335 176.976C88.3335 176.976 88.9722 180.683 89.119 183.263C89.2658 185.843 88.451 200.903 88.451 200.903C87.8158 201.303 87.0881 201.529 86.3399 201.557C85.5917 201.586 84.8492 201.416 84.1859 201.066C84.1859 201.066 81.0439 179.104 80.6402 176.753C80.2364 174.403 83.393 149.638 83.393 149.638H101.687Z" fill="#37474F"/>
<path d="M95.7916 123.471H95.8503C97.5319 123.898 99.0237 124.882 100.088 126.264C101.152 127.647 101.728 129.35 101.723 131.101V149.638C98.9775 152.655 89.4049 154.086 83.3706 149.638V130.36C83.3706 127.282 85.0664 123.575 89.7426 123.301L95.7916 123.471Z" fill="#02897A"/>
<path d="M97.1126 107.7C97.4275 107.665 97.7463 107.701 98.045 107.808C98.3438 107.915 98.6148 108.088 98.8378 108.316C99.5719 109.057 99.425 110.503 98.8378 113.758L96.5474 114.025L97.1126 107.7Z" fill="#263238"/>
<path d="M83.745 106.796C83.2535 106.797 82.7667 106.699 82.3135 106.507C81.5794 106.099 81.4252 106.907 81.807 107.604C82.0628 108.107 82.4421 108.536 82.9086 108.849C83.3752 109.162 83.9134 109.348 84.4718 109.391C84.4718 109.295 85.1251 107.589 85.1251 107.589L83.745 106.796Z" fill="#263238"/>
<path d="M96.034 114.025C96.3791 114.232 96.8636 113.573 97.282 113.128C97.446 112.935 97.6563 112.788 97.8928 112.701C98.1292 112.614 98.3839 112.589 98.6323 112.63C98.8807 112.671 99.1145 112.776 99.3112 112.935C99.508 113.093 99.6611 113.3 99.7559 113.536C100.49 115.018 98.8676 116.991 97.9427 117.636C97.6831 117.864 97.3587 118.004 97.0158 118.034C96.6729 118.065 96.3292 117.985 96.034 117.806L95.7918 123.471C95.3808 124.38 94.7534 125.172 93.9656 125.776C93.1778 126.38 92.2541 126.778 91.2771 126.934C87.981 127.386 88.6637 124.643 89.7428 123.293V121.232C88.9209 121.412 88.0756 121.457 87.2395 121.365C86.8064 121.247 85.7713 119.994 85.118 118.592C84.3839 117.02 83.1433 114.232 84.2444 109.509C85.4263 104.43 90.8513 104.275 94.0373 106.321C97.2233 108.368 96.034 114.025 96.034 114.025Z" fill="#FFA8A7"/>
<path d="M96.0336 114.603C96.2098 114.603 96.8558 113.521 97.2816 113.12C97.8688 112.579 97.1127 107.693 97.1127 107.693C97.1127 107.693 97.7073 105.847 96.5475 104.616C95.3876 103.385 93.1339 103.593 91.4895 103.533C89.4716 103.546 87.4727 103.139 85.6167 102.339C83.2823 101.316 83.1061 101.198 82.8198 102.228C82.5933 103.082 82.5649 103.977 82.7368 104.844C82.9087 105.711 83.2762 106.526 83.8109 107.226L84.9707 107.656C84.9707 107.656 85.5947 108.219 87.775 108.486C89.7855 108.637 91.8055 108.599 93.8093 108.375C94.4406 108.286 94.5434 108.901 94.9178 110.599C95.2114 112.082 95.461 114.596 96.0336 114.603Z" fill="#263238"/>
<path d="M97.1054 108.086L99.1682 106.966C99.1027 106.826 99.0098 106.701 98.895 106.598C98.7802 106.496 98.6459 106.418 98.5003 106.369C98.3548 106.321 98.2009 106.302 98.0482 106.316C97.8955 106.329 97.747 106.374 97.6119 106.447C97.3355 106.602 97.1288 106.859 97.0346 107.164C96.9403 107.469 96.9656 107.799 97.1054 108.086V108.086Z" fill="#263238"/>
<path d="M89.75 121.232C91.1568 120.965 92.5356 120.566 93.8683 120.039C94.4954 119.706 95.0076 119.189 95.3365 118.556C95.1762 119.185 94.8916 119.775 94.4996 120.291C93.7215 121.299 89.7427 122.041 89.7427 122.041L89.75 121.232Z" fill="#F28F8F"/>
<path d="M90.4839 113.254C90.4868 113.377 90.5256 113.496 90.5955 113.597C90.6653 113.698 90.763 113.775 90.8763 113.82C90.9896 113.864 91.1135 113.874 91.2323 113.848C91.3511 113.822 91.4596 113.76 91.5441 113.672C91.6286 113.583 91.6853 113.472 91.7071 113.351C91.7288 113.23 91.7148 113.105 91.6666 112.992C91.6184 112.88 91.5382 112.784 91.4362 112.717C91.3342 112.65 91.2148 112.615 91.0932 112.616C90.929 112.62 90.7729 112.689 90.6589 112.809C90.5448 112.928 90.482 113.088 90.4839 113.254Z" fill="#263238"/>
<path d="M91.1304 110.926L92.4444 111.667C92.5355 111.485 92.5543 111.275 92.497 111.079C92.4397 110.883 92.3106 110.717 92.1361 110.614C92.0501 110.567 91.9556 110.537 91.858 110.527C91.7605 110.517 91.6619 110.526 91.5682 110.556C91.4744 110.585 91.3874 110.632 91.3122 110.696C91.237 110.759 91.1752 110.838 91.1304 110.926Z" fill="#263238"/>
<path d="M90.5281 117.443L89.1333 117.977C89.1638 118.071 89.2128 118.159 89.2773 118.233C89.3419 118.308 89.4206 118.369 89.5089 118.413C89.5973 118.457 89.6933 118.482 89.7915 118.487C89.8896 118.493 89.9878 118.478 90.0803 118.444C90.2696 118.369 90.4224 118.223 90.5061 118.036C90.5897 117.849 90.5976 117.636 90.5281 117.443V117.443Z" fill="#F28F8F"/>
<path d="M85.0295 111.438L86.2114 110.503C86.1546 110.422 86.0822 110.353 85.9986 110.301C85.9149 110.249 85.8217 110.214 85.7244 110.199C85.6272 110.183 85.5279 110.188 85.4325 110.212C85.3371 110.237 85.2475 110.28 85.169 110.34C85.0104 110.47 84.9074 110.656 84.8815 110.861C84.8555 111.065 84.9085 111.272 85.0295 111.438V111.438Z" fill="#263238"/>
<path d="M85.3962 113.084C85.3943 113.25 85.4571 113.41 85.5712 113.529C85.6853 113.648 85.8413 113.718 86.0056 113.721C86.1717 113.718 86.3296 113.648 86.4451 113.527C86.5605 113.406 86.6242 113.244 86.6222 113.076C86.6316 112.989 86.6228 112.901 86.5963 112.818C86.5698 112.734 86.5262 112.658 86.4684 112.592C86.4106 112.527 86.3398 112.475 86.2607 112.439C86.1815 112.404 86.0959 112.385 86.0092 112.385C85.9226 112.385 85.8369 112.404 85.7578 112.439C85.6787 112.475 85.6079 112.527 85.5501 112.592C85.4922 112.658 85.4486 112.734 85.4221 112.818C85.3956 112.901 85.3868 112.989 85.3962 113.076V113.084Z" fill="#263238"/>
<path d="M88.5171 112.498L88.3115 116.212L86.3955 115.552L88.5171 112.498Z" fill="#F28F8F"/>
<path d="M98.0304 209.689V209.118C97.656 209.281 96.7824 212.64 95.2335 214.071C93.9928 215.205 92.2971 216.525 91.8786 217.778C91.4602 219.031 94.2277 219.825 95.3803 219.617C96.7237 219.38 99.0508 218.423 99.6307 217.541C100.211 216.659 100.49 215.354 100.959 214.701C101.429 214.049 102.53 213.329 102.787 212.58C102.863 211.88 102.785 211.171 102.56 210.504C102.376 209.807 102.185 209.021 101.95 209.103C101.95 209.185 101.95 209.533 101.95 209.533C101.393 209.977 100.7 210.213 99.9904 210.2C99.4252 210.245 98.023 210.134 98.0304 209.689Z" fill="#263238"/>
<path d="M84.4128 203.423C84.2072 203.423 84.0384 203.72 83.5906 204.209C82.9222 204.896 82.1426 205.463 81.2855 205.885C79.8173 206.626 76.969 207.768 75.677 208.354C74.8768 208.725 74.9429 209.703 75.7431 210.267C76.5432 210.83 78.5914 211.231 81.0066 210.682C82.3206 210.386 84.0384 209.162 85.1175 209.199C86.1966 209.236 88.2301 209.251 89.0303 208.695C89.8304 208.139 89.5148 206.945 89.2872 205.922C89.0596 204.899 88.6852 203.104 88.3182 203.178V203.527C87.8484 204.268 85.4479 204.543 84.4128 204.016V203.423Z" fill="#263238"/>
<path d="M79.1716 141.192C78.342 139.628 78.1365 139.561 77.6373 139.22C77.1381 138.879 74.121 138.419 72.8657 138.315C71.3975 138.189 70.8616 138.464 71.2727 139.746C72.4095 142.979 73.7937 146.118 75.413 149.133C75.8094 149.66 75.8901 150.149 77.5492 150.312C79.2083 150.475 81.0509 150.55 81.6235 150.587C82.1961 150.624 82.9889 150.765 82.475 149.059C81.8192 147.134 81.062 145.245 80.2067 143.402C79.6047 142 79.1716 141.192 79.1716 141.192Z" fill="#37474F"/>
<path d="M109.262 145.893C109.226 145.404 107.794 139.873 107.06 137.314L101.687 139.183L102.949 143.209L107.677 148.155C108.178 148.055 108.622 147.765 108.917 147.344C109.212 146.923 109.336 146.404 109.262 145.893V145.893Z" fill="#FFA8A7"/>
<path d="M102.927 143.209C102.927 143.209 88.1129 144.811 86.3731 144.269C84.6333 143.728 82.2988 141.971 81.0435 141.244C79.7882 140.518 78.8853 140.458 78.8853 140.762C78.8853 141.066 79.9571 142.72 80.2067 143.402C80.4563 144.084 79.0468 144.091 77.2115 143.661C75.3763 143.231 74.6349 142.178 74.1503 142.786C73.6658 143.394 75.1707 146.494 78.2246 147.658C81.2784 148.822 83.5468 148.051 86.0721 148.155C88.5974 148.258 104.153 149.267 107.655 148.155C107.747 147.589 107.683 147.008 107.47 146.477C107.256 145.945 106.901 145.484 106.443 145.144C105.395 144.293 104.204 143.637 102.927 143.209V143.209Z" fill="#FFA8A7"/>
<path d="M97.0322 123.894C99.3593 124.672 103.977 125.065 105.467 130.152C106.957 135.238 107.706 138.537 107.706 138.537C106.825 139.724 103.301 141.096 101.686 140.584L97.0322 123.894Z" fill="#455A64"/>
<path d="M101.686 140.584L100.093 134.875L101.686 142.912V140.584Z" fill="#37474F"/>
<path d="M68.2699 152.581C68.1965 152.677 67.5725 153.723 67.5725 153.723L64.7021 157.875L61.9052 162.109C61.8171 162.238 61.6908 162.335 61.5444 162.387C61.398 162.439 61.239 162.443 61.0904 162.398L60.8995 162.331C59.9305 161.968 58.477 161.353 56.5463 160.455C54.9974 159.714 55.0781 159.499 55.0781 159.232C55.0579 159.02 55.0579 158.806 55.0781 158.594V158.594C55.3938 157.986 56.3701 156.466 57.6842 154.546C60.0186 151.12 61.1418 149.6 61.8392 148.614C61.9387 148.47 62.0855 148.367 62.2536 148.322C62.4216 148.277 62.5999 148.294 62.7568 148.37C64.0121 148.792 66.5594 149.897 67.8955 150.446H67.9542C68.6736 150.839 68.2772 152.551 68.2699 152.581Z" fill="#37474F"/>
<path d="M68.3434 152.448L67.6093 153.723L64.805 157.957L61.8686 162.087C61.7805 162.216 61.6541 162.313 61.5077 162.365C61.3613 162.417 61.2024 162.421 61.0538 162.376L60.8629 162.309C59.8939 161.946 58.4404 161.33 56.5097 160.433C54.9607 159.692 55.0415 159.477 55.0415 159.21C55.0213 158.998 55.0213 158.784 55.0415 158.572V158.572C56.5097 159.225 61.1565 161.449 61.3107 161.368C61.6777 161.19 64.827 156.088 66.5008 153.486C67.3376 152.188 67.712 151.639 67.969 151.195C68.0161 151.142 68.0513 151.079 68.0719 151.01C68.0925 150.942 68.0981 150.87 68.0884 150.8C68.0786 150.729 68.0536 150.661 68.0152 150.602C67.9769 150.542 67.926 150.491 67.8662 150.453H67.8075C67.9723 150.541 68.1146 150.666 68.2229 150.82C68.3312 150.973 68.4027 151.149 68.4314 151.335C68.5115 151.513 68.5454 151.708 68.53 151.903C68.5146 152.098 68.4503 152.285 68.3434 152.448V152.448Z" fill="#37474F"/>
<path opacity="0.1" d="M68.3434 152.448L67.6093 153.723L64.805 157.957L61.8686 162.087C61.7805 162.216 61.6541 162.313 61.5077 162.365C61.3613 162.417 61.2024 162.421 61.0538 162.376L60.8629 162.309C59.8939 161.946 58.4404 161.33 56.5097 160.433C54.9607 159.692 55.0415 159.477 55.0415 159.21C55.0213 158.998 55.0213 158.784 55.0415 158.572V158.572C56.5097 159.225 61.1565 161.449 61.3107 161.368C61.6777 161.19 64.827 156.088 66.5008 153.486C67.3376 152.188 67.712 151.639 67.969 151.195C68.0161 151.142 68.0513 151.079 68.0719 151.01C68.0925 150.942 68.0981 150.87 68.0884 150.8C68.0786 150.729 68.0536 150.661 68.0152 150.602C67.9769 150.542 67.926 150.491 67.8662 150.453H67.8075C67.9723 150.541 68.1146 150.666 68.2229 150.82C68.3312 150.973 68.4027 151.149 68.4314 151.335C68.5115 151.513 68.5454 151.708 68.53 151.903C68.5146 152.098 68.4503 152.285 68.3434 152.448V152.448Z" fill="black"/>
<path d="M61.8762 149.585L67.0296 151.765L61.5386 160.01L56.4146 157.63L61.8762 149.585Z" fill="#FAFAFA"/>
<path d="M60.4297 178.317C61.8392 177.909 63.9681 172.615 65.5684 166.609C67.1688 160.603 68.013 159.276 68.0644 157.385C68.1157 155.495 67.9836 153.011 67.9836 153.011L65.194 157.126C65.073 156.332 64.8251 155.563 64.4599 154.85C64.1002 154.108 63.4249 153.522 62.8743 153.967C62.5806 154.204 63.3588 155.22 63.1899 157.489C63.1762 158.394 63.2648 159.297 63.4542 160.181L58.2715 172.86L60.4297 178.317Z" fill="#FFA8A7"/>
<path d="M39.574 152.025C37.937 151.558 36.5496 152.44 35.7787 155.072C34.4276 160.028 33.446 165.079 32.8424 170.183C32.6221 172.015 32.3725 174.239 34.105 174.41C35.4264 174.543 39.2437 173.802 39.9117 173.135C40.8073 172.26 40.6458 168.73 40.6458 168.73H38.6638C38.6638 168.73 39.0895 165.95 39.2143 165.104C39.6548 162.265 40.3081 158.683 40.3081 158.683L39.574 152.025Z" fill="#F28F8F"/>
<path d="M49.1832 149.423L48.5152 155.362L42.7158 156.044L43.5527 148.162L49.1832 149.423Z" fill="#FFA8A7"/>
<path d="M36.7695 140.755C37.2467 135.268 40.1904 133.014 42.4661 132.465C47.0616 131.375 51.5983 132.932 53.4776 136.172C53.9078 137.187 54.1296 138.279 54.1296 139.383C54.1296 140.487 53.9078 141.579 53.4776 142.594C52.4792 144.892 36.7916 140.74 36.7916 140.74" fill="#263238"/>
<path d="M53.7638 143.706C53.7638 143.706 54.5933 145.968 54.3731 146.139C54.0269 146.265 53.6619 146.33 53.2939 146.332L53.7638 143.706Z" fill="#FFA8A7"/>
<path d="M51.2903 136.558C52.3841 137.508 54.2267 139.228 53.7348 143.973C53.1916 148.882 52.017 150.209 51.2242 150.683C50.6956 151.002 48.3539 150.446 47.2674 149.801C45.9166 148.993 42.9215 146.909 42.0112 144.099C40.9321 140.792 41.4754 136.848 43.8391 135.817C45.0419 135.294 46.3563 135.088 47.6593 135.218C48.9624 135.348 50.2116 135.809 51.2903 136.558Z" fill="#FFA8A7"/>
<path d="M52.6409 136.685C52.6643 137.997 52.3947 139.298 51.852 140.49C51.3094 141.683 50.5076 142.736 49.5063 143.573C49.5063 143.573 48.8236 141.786 47.304 142.194C45.7844 142.602 45.8358 144.626 46.9223 145.723C47.2039 146.037 47.5684 146.263 47.9728 146.374C48.3772 146.486 48.8048 146.479 49.2053 146.353C48.9887 147.756 48.3386 149.054 47.348 150.061C45.7672 150.428 44.1159 150.338 42.5837 149.8C41.0515 149.262 39.7005 148.299 38.6857 147.021C35.3308 142.95 36.3219 136.485 41.5633 134.579C43.4166 133.828 45.4437 133.627 47.4062 134C49.3686 134.373 51.1848 135.305 52.6409 136.685V136.685Z" fill="#263238"/>
<path d="M42.0182 238.777L44.5215 242.291C43.3812 242.812 42.1389 243.066 40.8877 243.033C38.6487 243.122 38.0321 242.38 37.9513 242.202C37.5696 241.379 38.1642 239.904 38.3257 238.636L42.0182 238.777Z" fill="#263238"/>
<path d="M44.3678 240.593C44.3678 240.593 47.3996 240.393 49.5065 240.126C51.6134 239.859 53.2651 240.868 52.7732 241.765C52.2814 242.662 51.1215 243.366 49.323 243.989C47.7887 244.516 45.9388 244.894 44.3311 245.376C42.7234 245.858 41.6296 246.451 40.6973 246.117C39.6549 245.754 39.2291 245.331 39.2952 244.568C39.5226 243.479 39.8044 242.402 40.1394 241.342L44.3678 240.593Z" fill="#263238"/>
<path d="M37.9517 235.233C37.9517 235.233 38.326 238.421 38.3554 239.11C38.3848 239.8 41.4386 240.015 42.0259 238.762L42.1213 234.862L37.9517 235.233Z" fill="#F28F8F"/>
<path d="M41.0276 237.197L39.9631 242.039C39.9631 242.039 39.853 242.625 42.3563 243.003C44.8596 243.381 48.765 241.683 49.433 241.342C50.101 241.001 50.1671 240.311 47.7225 240.445C45.278 240.578 44.4044 240.593 44.4044 240.593L45.2046 238.443L41.0276 237.197Z" fill="#FFA8A7"/>
<path d="M37.9517 172.378C35.8596 175.663 33.8775 178.555 33.4517 182.247C32.5561 190.048 35.4925 198.96 36.1165 204.729C34.9295 206.37 34.2431 208.326 34.1418 210.356C34.1418 212.744 37.9517 235.232 37.9517 235.232C37.9517 235.232 40.7193 236.085 42.1141 234.862L44.7348 193.488L43.3547 188.453L37.9517 172.378Z" fill="#455A64"/>
<path d="M44.7346 193.488L43.3545 188.453C40.757 187.771 38.2503 186.775 35.8887 185.487C35.8887 185.487 37.3055 188.082 41.3504 189.506L43.4572 195.979L43.6408 210.808L44.7346 193.488Z" fill="#37474F"/>
<path d="M37.9514 172.378C36.8355 174.217 34.1561 177.376 34.7287 180.401C35.4187 184.108 37.3714 186.652 43.3543 188.453L48.9629 208.97C48.9629 208.97 46.0265 211.735 45.1529 214.36C44.2793 216.985 41.0272 237.197 41.0272 237.197C41.0272 237.197 42.0256 238.843 45.1823 238.443C45.1823 238.443 56.1937 213.092 56.9278 211.461C57.8671 209.791 58.197 207.842 57.8601 205.952C57.5078 203.298 53.7639 174.217 53.7639 174.217L37.9514 172.378Z" fill="#455A64"/>
<path d="M36.9311 153.864C37.1561 153.259 37.5802 152.75 38.1321 152.424C38.6841 152.097 39.3305 151.972 39.9629 152.069C43.8757 153.144 49.9614 154.561 51.1139 154.902C51.1139 154.902 50.5927 162.517 55.1001 165.201C54.8872 166.899 53.742 174.217 53.742 174.217C53.742 174.217 48.3243 176.871 43.8683 175.566C39.4124 174.261 37.9148 172.378 37.9148 172.378L40.1171 168.708C39.6399 167.514 37.7973 163.458 36.6081 159.692C36.1955 157.755 36.307 155.742 36.9311 153.864Z" fill="#FFB900"/>
<path d="M39.5742 167.262C41.4276 168.388 43.3697 169.358 45.3809 170.161C43.553 170.114 41.766 169.604 40.1835 168.678L39.5742 167.262Z" fill="#E0E0E0"/>
<path d="M55.0052 164.63C53.4039 163.888 52.0865 162.639 51.2539 161.071C51.3889 162.275 51.7978 163.432 52.4485 164.451C53.0992 165.469 53.9742 166.322 55.0052 166.943V164.63Z" fill="#E0E0E0"/>
<path d="M51.1506 154.902C53.6099 155.643 55.1368 155.881 56.4655 157.082C58.2127 158.668 60.0185 167.64 60.3856 169.494C61.0243 172.704 61.729 176.041 61.0389 177.539C60.5398 178.621 57.8236 179.429 56.6343 175.93C56.3848 175.188 56.3334 174.847 56.1131 174.18C54.99 170.828 53.3015 164.422 53.3015 164.422C53.3015 164.422 49.9761 162.569 51.1506 154.902Z" fill="#FFA8A7"/>
<path d="M39.2289 134.579C38.3553 135.091 36.777 135.587 35.7933 140.222C34.9925 144.109 34.5161 148.058 34.3691 152.026C34.4058 153.464 37.3569 157.461 43.5821 157.083C49.8072 156.704 52.0683 153.019 52.0683 153.019C52.0683 153.019 49.0071 151.759 49.2493 146.346C49.2493 146.346 48.1702 148.489 45.2118 147.414C42.2534 146.339 39.2289 134.579 39.2289 134.579Z" fill="#263238"/>
</svg>
