<svg width="40" height="41" viewBox="0 0 40 41" fill="none" xmlns="http://www.w3.org/2000/svg">
<circle cx="20" cy="20.0161" r="20" fill="#EDFFFC"/>
<path d="M25 10.0161H15C12.2386 10.0161 10 12.2547 10 15.0161V25.0161C10 27.7775 12.2386 30.0161 15 30.0161H25C27.7614 30.0161 30 27.7775 30 25.0161V15.0161C30 12.2547 27.7614 10.0161 25 10.0161Z" stroke="#02897A" stroke-width="2" stroke-linecap="round" stroke-linejoin="round"/>
<path d="M24.0002 19.3861C24.1236 20.2184 23.9815 21.0683 23.594 21.8151C23.2065 22.5619 22.5933 23.1675 21.8418 23.5458C21.0903 23.924 20.2386 24.0557 19.408 23.922C18.5773 23.7884 17.81 23.3962 17.215 22.8013C16.6201 22.2063 16.2279 21.439 16.0943 20.6083C15.9606 19.7777 16.0923 18.926 16.4705 18.1745C16.8488 17.423 17.4544 16.8099 18.2012 16.4224C18.948 16.0349 19.7979 15.8927 20.6302 16.0161C21.4791 16.142 22.265 16.5376 22.8719 17.1444C23.4787 17.7513 23.8743 18.5372 24.0002 19.3861Z" stroke="#02897A" stroke-width="2" stroke-linecap="round" stroke-linejoin="round"/>
<path d="M25.5 14.5161H25.51" stroke="#02897A" stroke-width="2" stroke-linecap="round" stroke-linejoin="round"/>
</svg>
